<?xml version="1.0" encoding="UTF-8" standalone="no"?>
<!DOCTYPE svg PUBLIC "-//W3C//DTD SVG 1.1//EN" "http://www.w3.org/Graphics/SVG/1.1/DTD/svg11.dtd">
<svg xmlns="http://www.w3.org/2000/svg" version="1.1" viewBox="0.00 0.00 225.00 225.00">
<g stroke-width="2.00" fill="none" stroke-linecap="butt">
<path stroke="#a0d49f" vector-effect="non-scaling-stroke" d="
  M 133.29 114.62
  Q 136.20 115.09 137.26 114.20
  C 141.69 110.48 145.57 110.64 152.17 110.76
  C 155.09 110.81 160.89 110.41 162.19 113.40
  A 0.49 0.49 0.0 0 0 163.06 113.46
  Q 164.30 111.36 164.64 109.06
  C 165.05 106.31 163.09 103.95 162.41 101.48
  C 161.52 98.27 158.81 96.88 155.67 96.54
  Q 152.10 96.15 146.75 96.17
  A 8.70 8.70 0.0 0 1 142.66 95.17
  Q 117.33 81.84 51.93 47.58
  C 49.86 46.50 47.57 44.92 46.22 47.33
  Q 45.56 48.52 46.34 49.61
  Q 58.21 66.22 70.44 82.80
  Q 74.55 88.37 80.28 89.75
  Q 98.13 94.07 118.47 99.23
  A 0.69 0.69 0.0 0 0 119.17 98.12
  L 117.86 96.54
  A 3.22 3.20 -12.4 0 0 116.16 95.46
  Q 94.88 90.11 83.99 87.54
  C 78.71 86.30 75.22 84.55 72.32 80.44
  Q 63.51 67.96 52.57 52.67
  Q 52.32 52.33 52.27 51.88
  A 0.26 0.26 0.0 0 1 52.65 51.62
  Q 103.76 78.32 141.19 97.82
  C 146.00 100.33 152.08 98.36 157.17 99.76
  Q 159.67 100.45 159.45 103.05
  A 2.54 2.52 27.8 0 0 160.02 104.88
  L 161.89 107.14
  A 0.86 0.86 0.0 0 1 161.10 108.54
  Q 154.13 107.54 146.09 107.80
  C 140.08 107.99 137.13 110.35 133.11 113.99
  A 0.36 0.36 0.0 0 0 133.29 114.62"
/>
<path stroke="#a0d49f" vector-effect="non-scaling-stroke" d="
  M 207.76 82.74
  A 0.29 0.29 0.0 0 1 208.12 83.11
  Q 207.93 83.72 207.71 83.97
  Q 202.98 89.36 201.19 91.58
  C 197.55 96.08 193.24 96.34 187.99 96.89
  A 3.59 3.56 -70.3 0 0 185.83 97.92
  L 184.44 99.31
  A 0.67 0.67 0.0 0 0 185.00 100.45
  C 193.01 99.35 197.95 99.73 203.09 93.86
  Q 210.51 85.37 213.71 81.47
  Q 214.75 80.20 214.56 78.89
  A 1.01 1.01 0.0 0 0 213.26 78.06
  L 159.62 94.59
  A 0.42 0.42 0.0 0 0 159.57 95.37
  C 161.73 96.32 163.36 96.42 165.87 95.64
  Q 189.98 88.15 207.76 82.74"
/>
<path stroke="#a0d49f" vector-effect="non-scaling-stroke" d="
  M 83.60 93.09
  A 0.34 0.34 0.0 0 0 83.33 93.67
  Q 86.90 97.08 95.63 106.32
  C 98.65 109.52 102.70 110.98 107.51 110.78
  Q 108.12 110.75 125.84 110.90
  A 0.79 0.78 67.7 0 0 126.40 109.56
  L 125.47 108.63
  A 3.00 2.99 67.6 0 0 123.34 107.74
  Q 114.03 107.68 106.52 107.75
  C 103.97 107.77 101.16 107.06 99.26 105.51
  Q 97.36 103.95 89.15 95.20
  A 4.10 4.06 81.7 0 0 88.05 94.37
  Q 86.19 93.39 83.60 93.09"
/>
<path stroke="#a0d49f" vector-effect="non-scaling-stroke" d="
  M 174.80 110.81
  Q 180.42 110.82 184.76 110.76
  Q 187.49 110.72 189.73 108.22
  Q 194.17 103.24 194.50 102.84
  A 0.74 0.73 14.6 0 0 193.80 101.65
  L 191.92 101.99
  A 1.87 1.85 -71.9 0 0 190.95 102.49
  L 186.79 106.66
  A 3.84 3.83 22.6 0 1 184.09 107.77
  L 177.44 107.77
  A 3.10 3.09 -67.6 0 0 175.24 108.69
  L 174.30 109.62
  A 0.70 0.70 0.0 0 0 174.80 110.81"
/>
<path stroke="#8daf9d" vector-effect="non-scaling-stroke" d="
  M 26.35 108.14
  L 28.70 108.14
  A 0.69 0.65 -63.9 0 0 29.13 107.98
  L 33.54 104.33
  A 0.40 0.40 0.0 0 0 33.35 103.63
  Q 28.38 102.73 26.00 107.58
  A 0.39 0.39 0.0 0 0 26.35 108.14"
/>
<path stroke="#8daf9d" vector-effect="non-scaling-stroke" d="
  M 25.44 110.15
  A 0.50 0.50 0.0 0 0 25.00 110.41
  L 11.52 135.53
  A 0.50 0.50 0.0 0 0 11.96 136.27
  L 15.53 136.27
  A 0.50 0.50 0.0 0 0 15.97 136.01
  L 19.88 128.73
  A 0.50 0.50 0.0 0 1 20.32 128.47
  L 28.68 128.47
  A 0.50 0.50 0.0 0 1 29.17 128.88
  L 30.42 135.81
  A 0.50 0.50 0.0 0 0 30.91 136.22
  L 34.57 136.22
  A 0.50 0.50 0.0 0 0 35.06 135.63
  L 30.56 110.56
  A 0.50 0.50 0.0 0 0 30.07 110.15
  L 25.44 110.15"
/>
<path stroke="#8daf9d" vector-effect="non-scaling-stroke" d="
  M 82.6345 110.4013
  A 2.94 2.41 -42.3 0 0 78.8380 110.5975
  A 2.94 2.41 -42.3 0 0 78.2855 114.3587
  A 2.94 2.41 -42.3 0 0 82.0820 114.1625
  A 2.94 2.41 -42.3 0 0 82.6345 110.4013"
/>
<path stroke="#a0d49f" vector-effect="non-scaling-stroke" d="
  M 172.21 113.15
  A 2.87 2.86 -70.6 0 0 169.98 114.22
  C 168.27 116.34 166.48 117.28 163.42 117.32
  Q 154.56 117.44 148.95 117.26
  A 0.37 0.37 0.0 0 0 148.62 117.81
  L 154.23 127.53
  A 0.49 0.48 -26.1 0 1 153.99 128.22
  Q 137.51 134.81 120.72 129.26
  A 0.44 0.43 -55.9 0 1 120.58 128.51
  L 133.20 118.07
  A 0.39 0.39 0.0 0 0 132.96 117.38
  Q 130.86 117.32 121.02 117.24
  Q 117.26 117.21 115.14 114.70
  A 3.61 3.56 74.5 0 0 113.00 113.47
  L 111.19 113.14
  A 0.66 0.65 73.5 0 0 110.60 114.23
  C 113.42 117.31 115.75 120.02 119.27 120.28
  Q 120.68 120.39 125.66 120.28
  A 0.16 0.16 0.0 0 1 125.76 120.56
  L 115.17 129.32
  A 0.39 0.39 0.0 0 0 115.26 129.97
  C 129.52 136.67 143.55 135.61 157.86 129.74
  A 0.59 0.59 0.0 0 0 158.14 128.90
  L 153.27 120.47
  A 0.24 0.23 -13.2 0 1 153.49 120.12
  Q 159.77 120.42 164.76 120.26
  C 169.14 120.11 170.88 117.42 174.17 114.16
  A 0.59 0.59 0.0 0 0 173.75 113.15
  L 172.21 113.15"
/>
<path stroke="#8daf9d" vector-effect="non-scaling-stroke" d="
  M 100.21 117.98
  Q 95.70 116.91 91.31 117.21
  C 83.65 117.72 82.90 123.75 82.20 130.47
  C 81.48 137.35 88.27 137.05 92.89 135.85
  A 1.78 1.67 44.5 0 1 93.82 135.87
  Q 95.35 136.32 97.06 136.25
  A 0.68 0.66 -85.6 0 0 97.69 135.70
  L 100.70 118.73
  A 0.65 0.65 0.0 0 0 100.21 117.98"
/>
<path stroke="#8daf9d" vector-effect="non-scaling-stroke" d="
  M 47.55 136.64
  C 46.18 140.25 41.12 140.55 37.40 140.24
  A 0.57 0.57 0.0 0 0 36.79 140.91
  L 37.19 143.16
  A 1.09 1.08 86.9 0 0 38.18 144.05
  Q 39.38 144.14 43.55 143.54
  Q 51.12 142.47 52.30 135.04
  Q 53.25 129.01 55.31 117.96
  A 0.59 0.59 0.0 0 0 54.62 117.27
  L 50.99 117.92
  A 1.27 1.21 46.5 0 1 50.43 117.89
  C 39.42 114.54 36.60 122.32 36.41 131.21
  C 36.29 137.16 43.08 137.17 46.98 136.03
  A 0.47 0.47 0.0 0 1 47.55 136.64"
/>
<path stroke="#8daf9d" vector-effect="non-scaling-stroke" d="
  M 73.96 117.49
  L 70.68 117.49
  A 0.71 0.70 -84.5 0 0 69.99 118.07
  L 67.73 130.81
  A 2.43 2.43 0.0 0 1 65.34 132.81
  L 62.56 132.81
  A 2.17 2.16 -84.9 0 1 60.43 130.26
  L 62.56 118.23
  A 0.69 0.68 -84.7 0 0 61.89 117.42
  L 59.17 117.42
  A 1.12 1.12 0.0 0 0 58.07 118.32
  Q 56.53 125.86 55.93 132.07
  A 3.86 3.61 -72.5 0 0 57.65 135.66
  C 59.91 137.03 63.30 136.59 66.40 135.93
  C 67.77 135.64 69.19 136.27 70.73 136.21
  A 0.65 0.65 0.0 0 0 71.35 135.67
  L 74.47 118.11
  A 0.53 0.52 -84.9 0 0 73.96 117.49"
/>
<path stroke="#8daf9d" vector-effect="non-scaling-stroke" d="
  M 77.86 117.42
  A 0.68 0.68 0.0 0 0 77.19 117.98
  L 74.08 135.46
  A 0.68 0.68 0.0 0 0 74.75 136.26
  L 77.84 136.26
  A 0.68 0.68 0.0 0 0 78.51 135.70
  L 81.62 118.22
  A 0.68 0.68 0.0 0 0 80.95 117.42
  L 77.86 117.42"
/>
<path stroke="#8daf9d" vector-effect="non-scaling-stroke" d="
  M 53.28 164.46
  A 0.92 0.90 4.9 0 0 54.18 163.71
  L 55.91 153.97
  A 0.65 0.65 0.0 0 1 56.55 153.44
  L 65.83 153.44
  A 0.89 0.88 5.1 0 0 66.70 152.72
  L 67.12 150.31
  A 0.62 0.62 0.0 0 0 66.51 149.58
  L 57.34 149.58
  A 0.59 0.59 0.0 0 1 56.76 148.88
  L 57.56 144.34
  A 1.09 1.09 0.0 0 1 58.63 143.44
  L 69.22 143.44
  A 0.96 0.95 5.0 0 0 70.16 142.66
  L 70.53 140.60
  A 0.84 0.84 0.0 0 0 69.69 139.61
  Q 62.13 139.71 56.96 139.56
  C 53.45 139.46 53.34 142.43 52.81 145.48
  Q 51.30 154.16 49.58 163.72
  A 0.63 0.62 5.3 0 0 50.20 164.46
  L 53.28 164.46"
/>
<path stroke="#8daf9d" vector-effect="non-scaling-stroke" d="
  M 73.08 164.41
  A 0.42 0.42 0.0 0 0 73.49 164.06
  L 77.74 140.10
  A 0.42 0.42 0.0 0 0 77.33 139.61
  L 73.71 139.61
  A 0.42 0.42 0.0 0 0 73.30 139.96
  L 69.04 163.92
  A 0.42 0.42 0.0 0 0 69.45 164.41
  L 73.08 164.41"
/>
<path stroke="#8daf9d" vector-effect="non-scaling-stroke" d="
  M 151.79 145.40
  L 152.72 140.14
  A 0.42 0.42 0.0 0 0 152.31 139.64
  L 148.94 139.64
  A 0.69 0.68 -84.9 0 0 148.27 140.21
  Q 146.91 148.20 145.32 156.71
  C 143.98 163.90 146.17 165.16 152.89 164.69
  A 0.96 0.96 0.0 0 0 153.77 163.90
  L 154.15 161.78
  A 0.52 0.52 0.0 0 0 153.64 161.17
  L 150.83 161.17
  A 1.58 1.58 0.0 0 1 149.27 159.31
  L 150.98 149.70
  A 0.62 0.62 0.0 0 1 151.59 149.19
  L 155.51 149.19
  A 0.99 0.99 0.0 0 0 156.48 148.38
  L 156.82 146.47
  A 0.54 0.54 0.0 0 0 156.29 145.84
  L 152.16 145.84
  A 0.38 0.37 5.1 0 1 151.79 145.40"
/>
<path stroke="#8daf9d" vector-effect="non-scaling-stroke" d="
  M 179.68 139.56
  A 0.64 0.64 0.0 0 0 179.05 140.09
  L 174.83 163.84
  A 0.64 0.64 0.0 0 0 175.46 164.59
  L 178.67 164.59
  A 0.64 0.64 0.0 0 0 179.30 164.06
  L 183.53 140.31
  A 0.64 0.64 0.0 0 0 182.90 139.56
  L 179.68 139.56"
/>
<path stroke="#8daf9d" vector-effect="non-scaling-stroke" d="
  M 110.32 145.29
  L 104.61 147.05
  A 0.60 0.60 0.0 0 1 103.94 146.82
  Q 102.97 145.44 100.41 145.74
  A 0.75 0.74 -87.9 0 0 99.76 146.35
  L 96.67 163.76
  A 0.61 0.61 0.0 0 0 97.27 164.48
  L 100.34 164.48
  A 0.81 0.80 4.6 0 0 101.14 163.81
  L 103.39 151.15
  A 1.05 1.05 0.0 0 1 104.23 150.31
  L 109.89 149.29
  A 0.92 0.92 0.0 0 0 110.64 148.54
  L 111.10 145.98
  A 0.61 0.61 0.0 0 0 110.32 145.29"
/>
<path stroke="#8daf9d" vector-effect="non-scaling-stroke" d="
  M 174.79 146.24
  Q 170.28 145.16 165.89 145.46
  C 158.22 145.96 157.47 152.00 156.76 158.72
  C 156.03 165.60 162.83 165.31 167.45 164.11
  A 1.78 1.68 44.6 0 1 168.38 164.13
  Q 169.91 164.59 171.62 164.52
  A 0.68 0.67 -85.6 0 0 172.26 163.97
  L 175.28 146.99
  A 0.65 0.65 0.0 0 0 174.79 146.24"
/>
<path stroke="#8daf9d" vector-effect="non-scaling-stroke" d="
  M 77.99 153.50
  C 77.14 158.09 75.66 163.53 81.75 164.55
  Q 85.03 165.09 88.24 164.51
  C 92.70 163.70 94.24 160.82 95.01 156.70
  C 95.86 152.12 97.34 146.67 91.25 145.66
  Q 87.97 145.11 84.76 145.70
  C 80.30 146.50 78.76 149.39 77.99 153.50"
/>
<path stroke="#8daf9d" vector-effect="non-scaling-stroke" d="
  M 124.83 160.65
  Q 122.17 161.45 117.70 160.98
  A 2.48 2.46 3.1 0 1 115.49 158.53
  L 115.49 157.68
  A 1.40 1.40 0.0 0 1 116.89 156.28
  L 126.88 156.28
  A 0.92 0.91 7.3 0 0 127.77 155.60
  Q 128.46 153.00 128.40 150.26
  C 128.32 146.37 125.70 145.64 122.18 145.39
  C 113.51 144.77 111.25 151.74 111.07 158.77
  Q 110.96 163.65 115.52 164.45
  Q 120.01 165.23 124.34 164.25
  A 0.96 0.96 0.0 0 0 125.08 163.48
  L 125.48 161.23
  A 0.51 0.51 0.0 0 0 124.83 160.65"
/>
<path stroke="#8daf9d" vector-effect="non-scaling-stroke" d="
  M 127.98 160.51
  L 127.53 163.09
  A 0.78 0.77 -77.5 0 0 128.09 163.98
  Q 134.59 165.73 139.84 163.66
  A 2.99 2.82 -73.3 0 0 140.60 163.22
  Q 141.61 162.43 142.23 160.24
  C 143.04 157.35 142.46 155.73 139.57 154.18
  Q 135.25 151.88 135.20 151.85
  A 1.31 1.31 0.0 0 1 135.64 149.42
  Q 139.17 148.86 142.68 149.59
  A 0.59 0.59 0.0 0 0 143.38 149.12
  L 143.79 146.80
  A 0.80 0.80 0.0 0 0 143.26 145.90
  Q 141.37 145.26 136.78 145.45
  Q 130.50 145.71 130.08 151.27
  C 129.81 154.94 134.26 156.36 137.02 157.76
  A 1.62 1.62 0.0 0 1 137.18 160.56
  C 135.26 161.82 130.59 160.80 128.74 160.09
  A 0.56 0.56 0.0 0 0 127.98 160.51"
/>
<path stroke="#8daf9d" vector-effect="non-scaling-stroke" d="
  M 22.46 124.72
  L 27.99 124.72
  A 0.59 0.58 -5.3 0 0 28.57 124.03
  L 27.03 115.42
  A 0.17 0.17 0.0 0 0 26.71 115.37
  L 22.06 124.05
  A 0.45 0.45 0.0 0 0 22.46 124.72"
/>
<path stroke="#8daf9d" vector-effect="non-scaling-stroke" d="
  M 94.95 120.96
  L 90.72 120.96
  A 2.82 2.82 0.0 0 0 87.94 123.29
  L 86.61 130.78
  A 1.46 1.46 0.0 0 0 87.66 132.45
  Q 90.81 133.29 93.26 132.39
  A 1.01 1.00 84.9 0 0 93.90 131.62
  L 95.65 121.79
  A 0.71 0.71 0.0 0 0 94.95 120.96"
/>
<path stroke="#8daf9d" vector-effect="non-scaling-stroke" d="
  M 48.23 132.15
  L 50.00 123.04
  A 1.49 1.49 0.0 0 0 48.83 121.29
  L 45.82 120.70
  A 3.38 3.21 -79.0 0 0 42.03 123.41
  L 40.98 128.81
  A 3.38 3.21 -79.0 0 0 43.48 132.74
  L 46.49 133.32
  A 1.49 1.49 0.0 0 0 48.23 132.15"
/>
<path stroke="#8daf9d" vector-effect="non-scaling-stroke" d="
  M 169.57 149.23
  L 165.35 149.20
  A 2.82 2.81 5.5 0 0 162.55 151.50
  L 161.16 158.97
  A 1.46 1.45 -76.8 0 0 162.19 160.64
  Q 165.33 161.51 167.78 160.63
  A 1.01 1.00 85.4 0 0 168.43 159.87
  L 170.26 150.07
  A 0.71 0.71 0.0 0 0 169.57 149.23"
/>
<path stroke="#8daf9d" vector-effect="non-scaling-stroke" d="
  M 82.32 154.30
  Q 81.80 157.13 81.69 159.05
  A 1.75 1.74 -82.8 0 0 83.09 160.86
  C 87.91 161.81 89.76 160.80 90.65 155.92
  Q 91.16 153.08 91.28 151.17
  A 1.75 1.74 -82.8 0 0 89.87 149.35
  C 85.06 148.40 83.20 149.41 82.32 154.30"
/>
<path stroke="#8daf9d" vector-effect="non-scaling-stroke" d="
  M 116.92 153.19
  L 124.35 152.91
  A 0.27 0.27 0.0 0 0 124.61 152.63
  L 124.61 152.48
  A 3.63 3.56 -2.2 0 0 120.84 149.06
  L 120.12 149.09
  A 3.63 3.56 -2.2 0 0 116.63 152.78
  L 116.64 152.93
  A 0.27 0.27 0.0 0 0 116.92 153.19"
/>
</g>
<path fill="#ffffff" d="
  M 225.00 0.00
  L 225.00 225.00
  L 0.00 225.00
  L 0.00 0.00
  L 225.00 0.00
  Z
  M 133.29 114.62
  Q 136.20 115.09 137.26 114.20
  C 141.69 110.48 145.57 110.64 152.17 110.76
  C 155.09 110.81 160.89 110.41 162.19 113.40
  A 0.49 0.49 0.0 0 0 163.06 113.46
  Q 164.30 111.36 164.64 109.06
  C 165.05 106.31 163.09 103.95 162.41 101.48
  C 161.52 98.27 158.81 96.88 155.67 96.54
  Q 152.10 96.15 146.75 96.17
  A 8.70 8.70 0.0 0 1 142.66 95.17
  Q 117.33 81.84 51.93 47.58
  C 49.86 46.50 47.57 44.92 46.22 47.33
  Q 45.56 48.52 46.34 49.61
  Q 58.21 66.22 70.44 82.80
  Q 74.55 88.37 80.28 89.75
  Q 98.13 94.07 118.47 99.23
  A 0.69 0.69 0.0 0 0 119.17 98.12
  L 117.86 96.54
  A 3.22 3.20 -12.4 0 0 116.16 95.46
  Q 94.88 90.11 83.99 87.54
  C 78.71 86.30 75.22 84.55 72.32 80.44
  Q 63.51 67.96 52.57 52.67
  Q 52.32 52.33 52.27 51.88
  A 0.26 0.26 0.0 0 1 52.65 51.62
  Q 103.76 78.32 141.19 97.82
  C 146.00 100.33 152.08 98.36 157.17 99.76
  Q 159.67 100.45 159.45 103.05
  A 2.54 2.52 27.8 0 0 160.02 104.88
  L 161.89 107.14
  A 0.86 0.86 0.0 0 1 161.10 108.54
  Q 154.13 107.54 146.09 107.80
  C 140.08 107.99 137.13 110.35 133.11 113.99
  A 0.36 0.36 0.0 0 0 133.29 114.62
  Z
  M 207.76 82.74
  A 0.29 0.29 0.0 0 1 208.12 83.11
  Q 207.93 83.72 207.71 83.97
  Q 202.98 89.36 201.19 91.58
  C 197.55 96.08 193.24 96.34 187.99 96.89
  A 3.59 3.56 -70.3 0 0 185.83 97.92
  L 184.44 99.31
  A 0.67 0.67 0.0 0 0 185.00 100.45
  C 193.01 99.35 197.95 99.73 203.09 93.86
  Q 210.51 85.37 213.71 81.47
  Q 214.75 80.20 214.56 78.89
  A 1.01 1.01 0.0 0 0 213.26 78.06
  L 159.62 94.59
  A 0.42 0.42 0.0 0 0 159.57 95.37
  C 161.73 96.32 163.36 96.42 165.87 95.64
  Q 189.98 88.15 207.76 82.74
  Z
  M 83.60 93.09
  A 0.34 0.34 0.0 0 0 83.33 93.67
  Q 86.90 97.08 95.63 106.32
  C 98.65 109.52 102.70 110.98 107.51 110.78
  Q 108.12 110.75 125.84 110.90
  A 0.79 0.78 67.7 0 0 126.40 109.56
  L 125.47 108.63
  A 3.00 2.99 67.6 0 0 123.34 107.74
  Q 114.03 107.68 106.52 107.75
  C 103.97 107.77 101.16 107.06 99.26 105.51
  Q 97.36 103.95 89.15 95.20
  A 4.10 4.06 81.7 0 0 88.05 94.37
  Q 86.19 93.39 83.60 93.09
  Z
  M 174.80 110.81
  Q 180.42 110.82 184.76 110.76
  Q 187.49 110.72 189.73 108.22
  Q 194.17 103.24 194.50 102.84
  A 0.74 0.73 14.6 0 0 193.80 101.65
  L 191.92 101.99
  A 1.87 1.85 -71.9 0 0 190.95 102.49
  L 186.79 106.66
  A 3.84 3.83 22.6 0 1 184.09 107.77
  L 177.44 107.77
  A 3.10 3.09 -67.6 0 0 175.24 108.69
  L 174.30 109.62
  A 0.70 0.70 0.0 0 0 174.80 110.81
  Z
  M 26.35 108.14
  L 28.70 108.14
  A 0.69 0.65 -63.9 0 0 29.13 107.98
  L 33.54 104.33
  A 0.40 0.40 0.0 0 0 33.35 103.63
  Q 28.38 102.73 26.00 107.58
  A 0.39 0.39 0.0 0 0 26.35 108.14
  Z
  M 25.44 110.15
  A 0.50 0.50 0.0 0 0 25.00 110.41
  L 11.52 135.53
  A 0.50 0.50 0.0 0 0 11.96 136.27
  L 15.53 136.27
  A 0.50 0.50 0.0 0 0 15.97 136.01
  L 19.88 128.73
  A 0.50 0.50 0.0 0 1 20.32 128.47
  L 28.68 128.47
  A 0.50 0.50 0.0 0 1 29.17 128.88
  L 30.42 135.81
  A 0.50 0.50 0.0 0 0 30.91 136.22
  L 34.57 136.22
  A 0.50 0.50 0.0 0 0 35.06 135.63
  L 30.56 110.56
  A 0.50 0.50 0.0 0 0 30.07 110.15
  L 25.44 110.15
  Z
  M 82.6345 110.4013
  A 2.94 2.41 -42.3 0 0 78.8380 110.5975
  A 2.94 2.41 -42.3 0 0 78.2855 114.3587
  A 2.94 2.41 -42.3 0 0 82.0820 114.1625
  A 2.94 2.41 -42.3 0 0 82.6345 110.4013
  Z
  M 172.21 113.15
  A 2.87 2.86 -70.6 0 0 169.98 114.22
  C 168.27 116.34 166.48 117.28 163.42 117.32
  Q 154.56 117.44 148.95 117.26
  A 0.37 0.37 0.0 0 0 148.62 117.81
  L 154.23 127.53
  A 0.49 0.48 -26.1 0 1 153.99 128.22
  Q 137.51 134.81 120.72 129.26
  A 0.44 0.43 -55.9 0 1 120.58 128.51
  L 133.20 118.07
  A 0.39 0.39 0.0 0 0 132.96 117.38
  Q 130.86 117.32 121.02 117.24
  Q 117.26 117.21 115.14 114.70
  A 3.61 3.56 74.5 0 0 113.00 113.47
  L 111.19 113.14
  A 0.66 0.65 73.5 0 0 110.60 114.23
  C 113.42 117.31 115.75 120.02 119.27 120.28
  Q 120.68 120.39 125.66 120.28
  A 0.16 0.16 0.0 0 1 125.76 120.56
  L 115.17 129.32
  A 0.39 0.39 0.0 0 0 115.26 129.97
  C 129.52 136.67 143.55 135.61 157.86 129.74
  A 0.59 0.59 0.0 0 0 158.14 128.90
  L 153.27 120.47
  A 0.24 0.23 -13.2 0 1 153.49 120.12
  Q 159.77 120.42 164.76 120.26
  C 169.14 120.11 170.88 117.42 174.17 114.16
  A 0.59 0.59 0.0 0 0 173.75 113.15
  L 172.21 113.15
  Z
  M 100.21 117.98
  Q 95.70 116.91 91.31 117.21
  C 83.65 117.72 82.90 123.75 82.20 130.47
  C 81.48 137.35 88.27 137.05 92.89 135.85
  A 1.78 1.67 44.5 0 1 93.82 135.87
  Q 95.35 136.32 97.06 136.25
  A 0.68 0.66 -85.6 0 0 97.69 135.70
  L 100.70 118.73
  A 0.65 0.65 0.0 0 0 100.21 117.98
  Z
  M 47.55 136.64
  C 46.18 140.25 41.12 140.55 37.40 140.24
  A 0.57 0.57 0.0 0 0 36.79 140.91
  L 37.19 143.16
  A 1.09 1.08 86.9 0 0 38.18 144.05
  Q 39.38 144.14 43.55 143.54
  Q 51.12 142.47 52.30 135.04
  Q 53.25 129.01 55.31 117.96
  A 0.59 0.59 0.0 0 0 54.62 117.27
  L 50.99 117.92
  A 1.27 1.21 46.5 0 1 50.43 117.89
  C 39.42 114.54 36.60 122.32 36.41 131.21
  C 36.29 137.16 43.08 137.17 46.98 136.03
  A 0.47 0.47 0.0 0 1 47.55 136.64
  Z
  M 73.96 117.49
  L 70.68 117.49
  A 0.71 0.70 -84.5 0 0 69.99 118.07
  L 67.73 130.81
  A 2.43 2.43 0.0 0 1 65.34 132.81
  L 62.56 132.81
  A 2.17 2.16 -84.9 0 1 60.43 130.26
  L 62.56 118.23
  A 0.69 0.68 -84.7 0 0 61.89 117.42
  L 59.17 117.42
  A 1.12 1.12 0.0 0 0 58.07 118.32
  Q 56.53 125.86 55.93 132.07
  A 3.86 3.61 -72.5 0 0 57.65 135.66
  C 59.91 137.03 63.30 136.59 66.40 135.93
  C 67.77 135.64 69.19 136.27 70.73 136.21
  A 0.65 0.65 0.0 0 0 71.35 135.67
  L 74.47 118.11
  A 0.53 0.52 -84.9 0 0 73.96 117.49
  Z
  M 77.86 117.42
  A 0.68 0.68 0.0 0 0 77.19 117.98
  L 74.08 135.46
  A 0.68 0.68 0.0 0 0 74.75 136.26
  L 77.84 136.26
  A 0.68 0.68 0.0 0 0 78.51 135.70
  L 81.62 118.22
  A 0.68 0.68 0.0 0 0 80.95 117.42
  L 77.86 117.42
  Z
  M 53.28 164.46
  A 0.92 0.90 4.9 0 0 54.18 163.71
  L 55.91 153.97
  A 0.65 0.65 0.0 0 1 56.55 153.44
  L 65.83 153.44
  A 0.89 0.88 5.1 0 0 66.70 152.72
  L 67.12 150.31
  A 0.62 0.62 0.0 0 0 66.51 149.58
  L 57.34 149.58
  A 0.59 0.59 0.0 0 1 56.76 148.88
  L 57.56 144.34
  A 1.09 1.09 0.0 0 1 58.63 143.44
  L 69.22 143.44
  A 0.96 0.95 5.0 0 0 70.16 142.66
  L 70.53 140.60
  A 0.84 0.84 0.0 0 0 69.69 139.61
  Q 62.13 139.71 56.96 139.56
  C 53.45 139.46 53.34 142.43 52.81 145.48
  Q 51.30 154.16 49.58 163.72
  A 0.63 0.62 5.3 0 0 50.20 164.46
  L 53.28 164.46
  Z
  M 73.08 164.41
  A 0.42 0.42 0.0 0 0 73.49 164.06
  L 77.74 140.10
  A 0.42 0.42 0.0 0 0 77.33 139.61
  L 73.71 139.61
  A 0.42 0.42 0.0 0 0 73.30 139.96
  L 69.04 163.92
  A 0.42 0.42 0.0 0 0 69.45 164.41
  L 73.08 164.41
  Z
  M 151.79 145.40
  L 152.72 140.14
  A 0.42 0.42 0.0 0 0 152.31 139.64
  L 148.94 139.64
  A 0.69 0.68 -84.9 0 0 148.27 140.21
  Q 146.91 148.20 145.32 156.71
  C 143.98 163.90 146.17 165.16 152.89 164.69
  A 0.96 0.96 0.0 0 0 153.77 163.90
  L 154.15 161.78
  A 0.52 0.52 0.0 0 0 153.64 161.17
  L 150.83 161.17
  A 1.58 1.58 0.0 0 1 149.27 159.31
  L 150.98 149.70
  A 0.62 0.62 0.0 0 1 151.59 149.19
  L 155.51 149.19
  A 0.99 0.99 0.0 0 0 156.48 148.38
  L 156.82 146.47
  A 0.54 0.54 0.0 0 0 156.29 145.84
  L 152.16 145.84
  A 0.38 0.37 5.1 0 1 151.79 145.40
  Z
  M 179.68 139.56
  A 0.64 0.64 0.0 0 0 179.05 140.09
  L 174.83 163.84
  A 0.64 0.64 0.0 0 0 175.46 164.59
  L 178.67 164.59
  A 0.64 0.64 0.0 0 0 179.30 164.06
  L 183.53 140.31
  A 0.64 0.64 0.0 0 0 182.90 139.56
  L 179.68 139.56
  Z
  M 110.32 145.29
  L 104.61 147.05
  A 0.60 0.60 0.0 0 1 103.94 146.82
  Q 102.97 145.44 100.41 145.74
  A 0.75 0.74 -87.9 0 0 99.76 146.35
  L 96.67 163.76
  A 0.61 0.61 0.0 0 0 97.27 164.48
  L 100.34 164.48
  A 0.81 0.80 4.6 0 0 101.14 163.81
  L 103.39 151.15
  A 1.05 1.05 0.0 0 1 104.23 150.31
  L 109.89 149.29
  A 0.92 0.92 0.0 0 0 110.64 148.54
  L 111.10 145.98
  A 0.61 0.61 0.0 0 0 110.32 145.29
  Z
  M 174.79 146.24
  Q 170.28 145.16 165.89 145.46
  C 158.22 145.96 157.47 152.00 156.76 158.72
  C 156.03 165.60 162.83 165.31 167.45 164.11
  A 1.78 1.68 44.6 0 1 168.38 164.13
  Q 169.91 164.59 171.62 164.52
  A 0.68 0.67 -85.6 0 0 172.26 163.97
  L 175.28 146.99
  A 0.65 0.65 0.0 0 0 174.79 146.24
  Z
  M 77.99 153.50
  C 77.14 158.09 75.66 163.53 81.75 164.55
  Q 85.03 165.09 88.24 164.51
  C 92.70 163.70 94.24 160.82 95.01 156.70
  C 95.86 152.12 97.34 146.67 91.25 145.66
  Q 87.97 145.11 84.76 145.70
  C 80.30 146.50 78.76 149.39 77.99 153.50
  Z
  M 124.83 160.65
  Q 122.17 161.45 117.70 160.98
  A 2.48 2.46 3.1 0 1 115.49 158.53
  L 115.49 157.68
  A 1.40 1.40 0.0 0 1 116.89 156.28
  L 126.88 156.28
  A 0.92 0.91 7.3 0 0 127.77 155.60
  Q 128.46 153.00 128.40 150.26
  C 128.32 146.37 125.70 145.64 122.18 145.39
  C 113.51 144.77 111.25 151.74 111.07 158.77
  Q 110.96 163.65 115.52 164.45
  Q 120.01 165.23 124.34 164.25
  A 0.96 0.96 0.0 0 0 125.08 163.48
  L 125.48 161.23
  A 0.51 0.51 0.0 0 0 124.83 160.65
  Z
  M 127.98 160.51
  L 127.53 163.09
  A 0.78 0.77 -77.5 0 0 128.09 163.98
  Q 134.59 165.73 139.84 163.66
  A 2.99 2.82 -73.3 0 0 140.60 163.22
  Q 141.61 162.43 142.23 160.24
  C 143.04 157.35 142.46 155.73 139.57 154.18
  Q 135.25 151.88 135.20 151.85
  A 1.31 1.31 0.0 0 1 135.64 149.42
  Q 139.17 148.86 142.68 149.59
  A 0.59 0.59 0.0 0 0 143.38 149.12
  L 143.79 146.80
  A 0.80 0.80 0.0 0 0 143.26 145.90
  Q 141.37 145.26 136.78 145.45
  Q 130.50 145.71 130.08 151.27
  C 129.81 154.94 134.26 156.36 137.02 157.76
  A 1.62 1.62 0.0 0 1 137.18 160.56
  C 135.26 161.82 130.59 160.80 128.74 160.09
  A 0.56 0.56 0.0 0 0 127.98 160.51
  Z"
/>
<path fill="#41a83e" d="
  M 133.11 113.99
  C 137.13 110.35 140.08 107.99 146.09 107.80
  Q 154.13 107.54 161.10 108.54
  A 0.86 0.86 0.0 0 0 161.89 107.14
  L 160.02 104.88
  A 2.54 2.52 27.8 0 1 159.45 103.05
  Q 159.67 100.45 157.17 99.76
  C 152.08 98.36 146.00 100.33 141.19 97.82
  Q 103.76 78.32 52.65 51.62
  A 0.26 0.26 0.0 0 0 52.27 51.88
  Q 52.32 52.33 52.57 52.67
  Q 63.51 67.96 72.32 80.44
  C 75.22 84.55 78.71 86.30 83.99 87.54
  Q 94.88 90.11 116.16 95.46
  A 3.22 3.20 -12.4 0 1 117.86 96.54
  L 119.17 98.12
  A 0.69 0.69 0.0 0 1 118.47 99.23
  Q 98.13 94.07 80.28 89.75
  Q 74.55 88.37 70.44 82.80
  Q 58.21 66.22 46.34 49.61
  Q 45.56 48.52 46.22 47.33
  C 47.57 44.92 49.86 46.50 51.93 47.58
  Q 117.33 81.84 142.66 95.17
  A 8.70 8.70 0.0 0 0 146.75 96.17
  Q 152.10 96.15 155.67 96.54
  C 158.81 96.88 161.52 98.27 162.41 101.48
  C 163.09 103.95 165.05 106.31 164.64 109.06
  Q 164.30 111.36 163.06 113.46
  A 0.49 0.49 0.0 0 1 162.19 113.40
  C 160.89 110.41 155.09 110.81 152.17 110.76
  C 145.57 110.64 141.69 110.48 137.26 114.20
  Q 136.20 115.09 133.29 114.62
  A 0.36 0.36 0.0 0 1 133.11 113.99
  Z"
/>
<path fill="#41a83e" d="
  M 207.76 82.74
  Q 189.98 88.15 165.87 95.64
  C 163.36 96.42 161.73 96.32 159.57 95.37
  A 0.42 0.42 0.0 0 1 159.62 94.59
  L 213.26 78.06
  A 1.01 1.01 0.0 0 1 214.56 78.89
  Q 214.75 80.20 213.71 81.47
  Q 210.51 85.37 203.09 93.86
  C 197.95 99.73 193.01 99.35 185.00 100.45
  A 0.67 0.67 0.0 0 1 184.44 99.31
  L 185.83 97.92
  A 3.59 3.56 -70.3 0 1 187.99 96.89
  C 193.24 96.34 197.55 96.08 201.19 91.58
  Q 202.98 89.36 207.71 83.97
  Q 207.93 83.72 208.12 83.11
  A 0.29 0.29 0.0 0 0 207.76 82.74
  Z"
/>
<path fill="#41a83e" d="
  M 83.60 93.09
  Q 86.19 93.39 88.05 94.37
  A 4.10 4.06 81.7 0 1 89.15 95.20
  Q 97.36 103.95 99.26 105.51
  C 101.16 107.06 103.97 107.77 106.52 107.75
  Q 114.03 107.68 123.34 107.74
  A 3.00 2.99 67.6 0 1 125.47 108.63
  L 126.40 109.56
  A 0.79 0.78 67.7 0 1 125.84 110.90
  Q 108.12 110.75 107.51 110.78
  C 102.70 110.98 98.65 109.52 95.63 106.32
  Q 86.90 97.08 83.33 93.67
  A 0.34 0.34 0.0 0 1 83.60 93.09
  Z"
/>
<path fill="#41a83e" d="
  M 174.80 110.81
  A 0.70 0.70 0.0 0 1 174.30 109.62
  L 175.24 108.69
  A 3.10 3.09 -67.6 0 1 177.44 107.77
  L 184.09 107.77
  A 3.84 3.83 22.6 0 0 186.79 106.66
  L 190.95 102.49
  A 1.87 1.85 -71.9 0 1 191.92 101.99
  L 193.80 101.65
  A 0.74 0.73 14.6 0 1 194.50 102.84
  Q 194.17 103.24 189.73 108.22
  Q 187.49 110.72 184.76 110.76
  Q 180.42 110.82 174.80 110.81
  Z"
/>
<path fill="#1b5f3b" d="
  M 26.00 107.58
  Q 28.38 102.73 33.35 103.63
  A 0.40 0.40 0.0 0 1 33.54 104.33
  L 29.13 107.98
  A 0.69 0.65 -63.9 0 1 28.70 108.14
  L 26.35 108.14
  A 0.39 0.39 0.0 0 1 26.00 107.58
  Z"
/>
<path fill="#1b5f3b" d="
  M 25.44 110.15
  L 30.07 110.15
  A 0.50 0.50 0.0 0 1 30.56 110.56
  L 35.06 135.63
  A 0.50 0.50 0.0 0 1 34.57 136.22
  L 30.91 136.22
  A 0.50 0.50 0.0 0 1 30.42 135.81
  L 29.17 128.88
  A 0.50 0.50 0.0 0 0 28.68 128.47
  L 20.32 128.47
  A 0.50 0.50 0.0 0 0 19.88 128.73
  L 15.97 136.01
  A 0.50 0.50 0.0 0 1 15.53 136.27
  L 11.96 136.27
  A 0.50 0.50 0.0 0 1 11.52 135.53
  L 25.00 110.41
  A 0.50 0.50 0.0 0 1 25.44 110.15
  Z
  M 22.46 124.72
  L 27.99 124.72
  A 0.59 0.58 -5.3 0 0 28.57 124.03
  L 27.03 115.42
  A 0.17 0.17 0.0 0 0 26.71 115.37
  L 22.06 124.05
  A 0.45 0.45 0.0 0 0 22.46 124.72
  Z"
/>
<ellipse fill="#1b5f3b" cx="0.00" cy="0.00" transform="translate(80.46,112.38) rotate(-42.3)" rx="2.94" ry="2.41"/>
<path fill="#41a83e" d="
  M 172.21 113.15
  L 173.75 113.15
  A 0.59 0.59 0.0 0 1 174.17 114.16
  C 170.88 117.42 169.14 120.11 164.76 120.26
  Q 159.77 120.42 153.49 120.12
  A 0.24 0.23 -13.2 0 0 153.27 120.47
  L 158.14 128.90
  A 0.59 0.59 0.0 0 1 157.86 129.74
  C 143.55 135.61 129.52 136.67 115.26 129.97
  A 0.39 0.39 0.0 0 1 115.17 129.32
  L 125.76 120.56
  A 0.16 0.16 0.0 0 0 125.66 120.28
  Q 120.68 120.39 119.27 120.28
  C 115.75 120.02 113.42 117.31 110.60 114.23
  A 0.66 0.65 73.5 0 1 111.19 113.14
  L 113.00 113.47
  A 3.61 3.56 74.5 0 1 115.14 114.70
  Q 117.26 117.21 121.02 117.24
  Q 130.86 117.32 132.96 117.38
  A 0.39 0.39 0.0 0 1 133.20 118.07
  L 120.58 128.51
  A 0.44 0.43 -55.9 0 0 120.72 129.26
  Q 137.51 134.81 153.99 128.22
  A 0.49 0.48 -26.1 0 0 154.23 127.53
  L 148.62 117.81
  A 0.37 0.37 0.0 0 1 148.95 117.26
  Q 154.56 117.44 163.42 117.32
  C 166.48 117.28 168.27 116.34 169.98 114.22
  A 2.87 2.86 -70.6 0 1 172.21 113.15
  Z"
/>
<path fill="#ffffff" d="
  M 22.06 124.05
  L 26.71 115.37
  A 0.17 0.17 0.0 0 1 27.03 115.42
  L 28.57 124.03
  A 0.59 0.58 -5.3 0 1 27.99 124.72
  L 22.46 124.72
  A 0.45 0.45 0.0 0 1 22.06 124.05
  Z"
/>
<path fill="#1b5f3b" d="
  M 100.21 117.98
  A 0.65 0.65 0.0 0 1 100.70 118.73
  L 97.69 135.70
  A 0.68 0.66 -85.6 0 1 97.06 136.25
  Q 95.35 136.32 93.82 135.87
  A 1.78 1.67 44.5 0 0 92.89 135.85
  C 88.27 137.05 81.48 137.35 82.20 130.47
  C 82.90 123.75 83.65 117.72 91.31 117.21
  Q 95.70 116.91 100.21 117.98
  Z
  M 94.95 120.96
  L 90.72 120.96
  A 2.82 2.82 0.0 0 0 87.94 123.29
  L 86.61 130.78
  A 1.46 1.46 0.0 0 0 87.66 132.45
  Q 90.81 133.29 93.26 132.39
  A 1.01 1.00 84.9 0 0 93.90 131.62
  L 95.65 121.79
  A 0.71 0.71 0.0 0 0 94.95 120.96
  Z"
/>
<path fill="#1b5f3b" d="
  M 46.98 136.03
  C 43.08 137.17 36.29 137.16 36.41 131.21
  C 36.60 122.32 39.42 114.54 50.43 117.89
  A 1.27 1.21 46.5 0 0 50.99 117.92
  L 54.62 117.27
  A 0.59 0.59 0.0 0 1 55.31 117.96
  Q 53.25 129.01 52.30 135.04
  Q 51.12 142.47 43.55 143.54
  Q 39.38 144.14 38.18 144.05
  A 1.09 1.08 86.9 0 1 37.19 143.16
  L 36.79 140.91
  A 0.57 0.57 0.0 0 1 37.40 140.24
  C 41.12 140.55 46.18 140.25 47.55 136.64
  A 0.47 0.47 0.0 0 0 46.98 136.03
  Z
  M 48.23 132.15
  L 50.00 123.04
  A 1.49 1.49 0.0 0 0 48.83 121.29
  L 45.82 120.70
  A 3.38 3.21 -79.0 0 0 42.03 123.41
  L 40.98 128.81
  A 3.38 3.21 -79.0 0 0 43.48 132.74
  L 46.49 133.32
  A 1.49 1.49 0.0 0 0 48.23 132.15
  Z"
/>
<path fill="#1b5f3b" d="
  M 73.96 117.49
  A 0.53 0.52 -84.9 0 1 74.47 118.11
  L 71.35 135.67
  A 0.65 0.65 0.0 0 1 70.73 136.21
  C 69.19 136.27 67.77 135.64 66.40 135.93
  C 63.30 136.59 59.91 137.03 57.65 135.66
  A 3.86 3.61 -72.5 0 1 55.93 132.07
  Q 56.53 125.86 58.07 118.32
  A 1.12 1.12 0.0 0 1 59.17 117.42
  L 61.89 117.42
  A 0.69 0.68 -84.7 0 1 62.56 118.23
  L 60.43 130.26
  A 2.17 2.16 -84.9 0 0 62.56 132.81
  L 65.34 132.81
  A 2.43 2.43 0.0 0 0 67.73 130.81
  L 69.99 118.07
  A 0.71 0.70 -84.5 0 1 70.68 117.49
  L 73.96 117.49
  Z"
/>
<path fill="#1b5f3b" d="
  M 77.86 117.42
  L 80.95 117.42
  A 0.68 0.68 0.0 0 1 81.62 118.22
  L 78.51 135.70
  A 0.68 0.68 0.0 0 1 77.84 136.26
  L 74.75 136.26
  A 0.68 0.68 0.0 0 1 74.08 135.46
  L 77.19 117.98
  A 0.68 0.68 0.0 0 1 77.86 117.42
  Z"
/>
<path fill="#ffffff" d="
  M 48.23 132.15
  A 1.49 1.49 0.0 0 1 46.49 133.32
  L 43.48 132.74
  A 3.38 3.21 -79.0 0 1 40.98 128.81
  L 42.03 123.41
  A 3.38 3.21 -79.0 0 1 45.82 120.70
  L 48.83 121.29
  A 1.49 1.49 0.0 0 1 50.00 123.04
  L 48.23 132.15
  Z"
/>
<path fill="#ffffff" d="
  M 95.65 121.79
  L 93.90 131.62
  A 1.01 1.00 84.9 0 1 93.26 132.39
  Q 90.81 133.29 87.66 132.45
  A 1.46 1.46 0.0 0 1 86.61 130.78
  L 87.94 123.29
  A 2.82 2.82 0.0 0 1 90.72 120.96
  L 94.95 120.96
  A 0.71 0.71 0.0 0 1 95.65 121.79
  Z"
/>
<path fill="#1b5f3b" d="
  M 53.28 164.46
  L 50.20 164.46
  A 0.63 0.62 5.3 0 1 49.58 163.72
  Q 51.30 154.16 52.81 145.48
  C 53.34 142.43 53.45 139.46 56.96 139.56
  Q 62.13 139.71 69.69 139.61
  A 0.84 0.84 0.0 0 1 70.53 140.60
  L 70.16 142.66
  A 0.96 0.95 5.0 0 1 69.22 143.44
  L 58.63 143.44
  A 1.09 1.09 0.0 0 0 57.56 144.34
  L 56.76 148.88
  A 0.59 0.59 0.0 0 0 57.34 149.58
  L 66.51 149.58
  A 0.62 0.62 0.0 0 1 67.12 150.31
  L 66.70 152.72
  A 0.89 0.88 5.1 0 1 65.83 153.44
  L 56.55 153.44
  A 0.65 0.65 0.0 0 0 55.91 153.97
  L 54.18 163.71
  A 0.92 0.90 4.9 0 1 53.28 164.46
  Z"
/>
<path fill="#1b5f3b" d="
  M 73.08 164.41
  L 69.45 164.41
  A 0.42 0.42 0.0 0 1 69.04 163.92
  L 73.30 139.96
  A 0.42 0.42 0.0 0 1 73.71 139.61
  L 77.33 139.61
  A 0.42 0.42 0.0 0 1 77.74 140.10
  L 73.49 164.06
  A 0.42 0.42 0.0 0 1 73.08 164.41
  Z"
/>
<path fill="#1b5f3b" d="
  M 151.79 145.40
  A 0.38 0.37 5.1 0 0 152.16 145.84
  L 156.29 145.84
  A 0.54 0.54 0.0 0 1 156.82 146.47
  L 156.48 148.38
  A 0.99 0.99 0.0 0 1 155.51 149.19
  L 151.59 149.19
  A 0.62 0.62 0.0 0 0 150.98 149.70
  L 149.27 159.31
  A 1.58 1.58 0.0 0 0 150.83 161.17
  L 153.64 161.17
  A 0.52 0.52 0.0 0 1 154.15 161.78
  L 153.77 163.90
  A 0.96 0.96 0.0 0 1 152.89 164.69
  C 146.17 165.16 143.98 163.90 145.32 156.71
  Q 146.91 148.20 148.27 140.21
  A 0.69 0.68 -84.9 0 1 148.94 139.64
  L 152.31 139.64
  A 0.42 0.42 0.0 0 1 152.72 140.14
  L 151.79 145.40
  Z"
/>
<path fill="#1b5f3b" d="
  M 179.68 139.56
  L 182.90 139.56
  A 0.64 0.64 0.0 0 1 183.53 140.31
  L 179.30 164.06
  A 0.64 0.64 0.0 0 1 178.67 164.59
  L 175.46 164.59
  A 0.64 0.64 0.0 0 1 174.83 163.84
  L 179.05 140.09
  A 0.64 0.64 0.0 0 1 179.68 139.56
  Z"
/>
<path fill="#1b5f3b" d="
  M 110.32 145.29
  A 0.61 0.61 0.0 0 1 111.10 145.98
  L 110.64 148.54
  A 0.92 0.92 0.0 0 1 109.89 149.29
  L 104.23 150.31
  A 1.05 1.05 0.0 0 0 103.39 151.15
  L 101.14 163.81
  A 0.81 0.80 4.6 0 1 100.34 164.48
  L 97.27 164.48
  A 0.61 0.61 0.0 0 1 96.67 163.76
  L 99.76 146.35
  A 0.75 0.74 -87.9 0 1 100.41 145.74
  Q 102.97 145.44 103.94 146.82
  A 0.60 0.60 0.0 0 0 104.61 147.05
  L 110.32 145.29
  Z"
/>
<path fill="#1b5f3b" d="
  M 174.79 146.24
  A 0.65 0.65 0.0 0 1 175.28 146.99
  L 172.26 163.97
  A 0.68 0.67 -85.6 0 1 171.62 164.52
  Q 169.91 164.59 168.38 164.13
  A 1.78 1.68 44.6 0 0 167.45 164.11
  C 162.83 165.31 156.03 165.60 156.76 158.72
  C 157.47 152.00 158.22 145.96 165.89 145.46
  Q 170.28 145.16 174.79 146.24
  Z
  M 169.57 149.23
  L 165.35 149.20
  A 2.82 2.81 5.5 0 0 162.55 151.50
  L 161.16 158.97
  A 1.46 1.45 -76.8 0 0 162.19 160.64
  Q 165.33 161.51 167.78 160.63
  A 1.01 1.00 85.4 0 0 168.43 159.87
  L 170.26 150.07
  A 0.71 0.71 0.0 0 0 169.57 149.23
  Z"
/>
<path fill="#1b5f3b" d="
  M 77.99 153.50
  C 78.76 149.39 80.30 146.50 84.76 145.70
  Q 87.97 145.11 91.25 145.66
  C 97.34 146.67 95.86 152.12 95.01 156.70
  C 94.24 160.82 92.70 163.70 88.24 164.51
  Q 85.03 165.09 81.75 164.55
  C 75.66 163.53 77.14 158.09 77.99 153.50
  Z
  M 82.32 154.30
  Q 81.80 157.13 81.69 159.05
  A 1.75 1.74 -82.8 0 0 83.09 160.86
  C 87.91 161.81 89.76 160.80 90.65 155.92
  Q 91.16 153.08 91.28 151.17
  A 1.75 1.74 -82.8 0 0 89.87 149.35
  C 85.06 148.40 83.20 149.41 82.32 154.30
  Z"
/>
<path fill="#1b5f3b" d="
  M 124.83 160.65
  A 0.51 0.51 0.0 0 1 125.48 161.23
  L 125.08 163.48
  A 0.96 0.96 0.0 0 1 124.34 164.25
  Q 120.01 165.23 115.52 164.45
  Q 110.96 163.65 111.07 158.77
  C 111.25 151.74 113.51 144.77 122.18 145.39
  C 125.70 145.64 128.32 146.37 128.40 150.26
  Q 128.46 153.00 127.77 155.60
  A 0.92 0.91 7.3 0 1 126.88 156.28
  L 116.89 156.28
  A 1.40 1.40 0.0 0 0 115.49 157.68
  L 115.49 158.53
  A 2.48 2.46 3.1 0 0 117.70 160.98
  Q 122.17 161.45 124.83 160.65
  Z
  M 116.92 153.19
  L 124.35 152.91
  A 0.27 0.27 0.0 0 0 124.61 152.63
  L 124.61 152.48
  A 3.63 3.56 -2.2 0 0 120.84 149.06
  L 120.12 149.09
  A 3.63 3.56 -2.2 0 0 116.63 152.78
  L 116.64 152.93
  A 0.27 0.27 0.0 0 0 116.92 153.19
  Z"
/>
<path fill="#1b5f3b" d="
  M 127.98 160.51
  A 0.56 0.56 0.0 0 1 128.74 160.09
  C 130.59 160.80 135.26 161.82 137.18 160.56
  A 1.62 1.62 0.0 0 0 137.02 157.76
  C 134.26 156.36 129.81 154.94 130.08 151.27
  Q 130.50 145.71 136.78 145.45
  Q 141.37 145.26 143.26 145.90
  A 0.80 0.80 0.0 0 1 143.79 146.80
  L 143.38 149.12
  A 0.59 0.59 0.0 0 1 142.68 149.59
  Q 139.17 148.86 135.64 149.42
  A 1.31 1.31 0.0 0 0 135.20 151.85
  Q 135.25 151.88 139.57 154.18
  C 142.46 155.73 143.04 157.35 142.23 160.24
  Q 141.61 162.43 140.60 163.22
  A 2.99 2.82 -73.3 0 1 139.84 163.66
  Q 134.59 165.73 128.09 163.98
  A 0.78 0.77 -77.5 0 1 127.53 163.09
  L 127.98 160.51
  Z"
/>
<path fill="#ffffff" d="
  M 116.92 153.19
  A 0.27 0.27 0.0 0 1 116.64 152.93
  L 116.63 152.78
  A 3.63 3.56 -2.2 0 1 120.12 149.09
  L 120.84 149.06
  A 3.63 3.56 -2.2 0 1 124.61 152.48
  L 124.61 152.63
  A 0.27 0.27 0.0 0 1 124.35 152.91
  L 116.92 153.19
  Z"
/>
<path fill="#ffffff" d="
  M 90.65 155.92
  C 89.76 160.80 87.91 161.81 83.09 160.86
  A 1.75 1.74 -82.8 0 1 81.69 159.05
  Q 81.80 157.13 82.32 154.30
  C 83.20 149.41 85.06 148.40 89.87 149.35
  A 1.75 1.74 -82.8 0 1 91.28 151.17
  Q 91.16 153.08 90.65 155.92
  Z"
/>
<path fill="#ffffff" d="
  M 169.57 149.23
  A 0.71 0.71 0.0 0 1 170.26 150.07
  L 168.43 159.87
  A 1.01 1.00 85.4 0 1 167.78 160.63
  Q 165.33 161.51 162.19 160.64
  A 1.46 1.45 -76.8 0 1 161.16 158.97
  L 162.55 151.50
  A 2.82 2.81 5.5 0 1 165.35 149.20
  L 169.57 149.23
  Z"
/>
</svg>
