<?xml version="1.0" encoding="UTF-8" standalone="no"?>
<!DOCTYPE svg PUBLIC "-//W3C//DTD SVG 1.1//EN" "http://www.w3.org/Graphics/SVG/1.1/DTD/svg11.dtd">
<svg xmlns="http://www.w3.org/2000/svg" version="1.1" viewBox="0.00 0.00 372.00 397.00">
<g stroke-width="2.00" fill="none" stroke-linecap="butt">
<path stroke="#c6a193" vector-effect="non-scaling-stroke" d="
  M 241.40 176.12
  A 15.04 14.90 -15.6 0 0 243.48 172.47
  Q 243.88 171.20 245.30 166.96
  C 247.37 160.75 248.08 154.12 247.37 147.53
  Q 247.04 144.51 246.73 138.47
  Q 245.65 117.53 238.59 95.82
  Q 237.68 92.99 233.74 83.86
  Q 232.19 80.27 229.06 71.75
  C 224.47 59.24 218.41 52.16 208.96 39.98
  Q 206.88 37.31 205.34 35.92
  C 201.81 32.73 198.54 28.56 195.28 25.63
  Q 189.89 20.79 181.46 14.92
  C 179.28 13.40 176.49 12.30 174.00 12.01
  Q 168.28 11.34 154.27 11.28
  Q 141.73 11.23 125.40 16.43
  Q 123.37 17.07 120.17 19.42
  Q 111.34 25.90 109.63 27.48
  Q 106.99 29.93 102.89 33.04
  Q 98.08 36.69 94.66 41.33
  A 6.41 5.94 -17.6 0 0 93.91 42.65
  C 89.39 53.42 87.28 68.98 91.98 80.15
  C 94.49 86.10 95.80 90.62 99.33 99.14
  Q 101.78 105.07 102.07 113.54
  A 14.70 14.21 39.1 0 0 102.38 116.10
  C 103.82 123.05 104.58 128.73 106.22 134.35
  Q 109.66 146.16 115.26 157.28
  C 117.77 162.27 122.53 167.68 125.22 172.56
  C 127.95 177.51 131.44 182.07 135.14 187.88
  Q 138.48 193.13 141.97 194.78
  Q 145.78 196.58 160.81 202.66
  Q 174.32 208.13 187.75 206.08
  Q 201.36 204.01 218.24 196.31
  Q 222.28 194.48 226.69 190.98
  Q 233.71 185.42 234.98 184.30
  A 2.95 2.73 -4.2 0 0 235.39 183.86
  L 241.40 176.12"
/>
<path stroke="#81b9a0" vector-effect="non-scaling-stroke" d="
  M 228.58 251.33
  C 228.59 266.68 234.96 278.34 252.09 277.99
  A 2.20 2.20 0.0 0 0 254.25 275.79
  L 254.25 269.17
  A 2.07 2.07 0.0 0 0 252.31 267.10
  Q 250.58 267.00 249.20 267.10
  C 242.42 267.61 242.02 255.57 242.02 251.32
  C 242.02 247.06 242.40 235.02 249.18 235.52
  Q 250.56 235.62 252.29 235.52
  A 2.07 2.07 0.0 0 0 254.23 233.45
  L 254.22 226.83
  A 2.20 2.20 0.0 0 0 252.06 224.63
  C 234.93 224.30 228.57 235.97 228.58 251.33"
/>
<path stroke="#81b9a0" vector-effect="non-scaling-stroke" d="
  M 289.9529 238.2485
  A 13.49 13.49 0.0 0 0 276.4865 224.7350
  L 270.8265 224.7251
  A 13.49 13.49 0.0 0 0 257.3130 238.1915
  L 257.2671 264.5115
  A 13.49 13.49 0.0 0 0 270.7335 278.0250
  L 276.3935 278.0349
  A 13.49 13.49 0.0 0 0 289.9070 264.5685
  L 289.9529 238.2485"
/>
<path stroke="#81b9a0" vector-effect="non-scaling-stroke" d="
  M 109.42 249.33
  Q 115.83 245.04 115.29 237.25
  C 114.53 226.27 107.59 224.72 97.82 225.00
  Q 93.19 225.12 86.49 225.03
  Q 82.16 224.97 82.16 229.48
  Q 82.16 261.04 82.16 273.49
  Q 82.16 277.37 85.60 277.58
  Q 88.41 277.75 105.05 277.70
  C 113.78 277.66 117.29 267.56 116.61 260.34
  Q 115.89 252.79 109.45 249.68
  A 0.20 0.20 0.0 0 1 109.42 249.33"
/>
<path stroke="#81b9a0" vector-effect="non-scaling-stroke" d="
  M 135.24 278.14
  Q 140.53 278.14 144.45 276.92
  C 151.15 274.83 151.60 268.85 151.63 262.25
  Q 151.68 250.21 151.56 229.04
  Q 151.54 225.53 148.19 225.14
  C 145.33 224.81 139.04 224.11 138.96 228.76
  Q 138.88 232.78 138.91 265.05
  A 2.40 2.40 0.0 0 1 137.24 267.34
  Q 136.38 267.61 135.24 267.61
  Q 134.10 267.61 133.24 267.34
  A 2.40 2.40 0.0 0 1 131.57 265.05
  Q 131.60 232.78 131.52 228.76
  C 131.44 224.11 125.15 224.81 122.29 225.14
  Q 118.94 225.53 118.92 229.04
  Q 118.80 250.21 118.85 262.25
  C 118.88 268.85 119.33 274.83 126.03 276.92
  Q 129.95 278.14 135.24 278.14"
/>
<path stroke="#81b9a0" vector-effect="non-scaling-stroke" d="
  M 168.35 259.56
  Q 170.37 260.83 171.23 263.35
  Q 173.36 269.63 173.68 270.44
  Q 176.95 278.74 185.83 278.04
  Q 187.62 277.91 188.52 276.68
  A 1.55 1.54 -26.4 0 0 188.80 275.85
  Q 189.03 270.44 188.78 266.70
  C 188.57 263.51 186.26 263.95 183.99 264.28
  A 2.07 2.06 68.7 0 1 181.97 263.38
  Q 179.92 260.31 180.49 256.70
  A 1.57 1.55 -8.5 0 1 181.35 255.54
  Q 187.11 252.75 187.90 246.65
  C 188.34 243.29 188.26 238.41 187.27 234.75
  C 184.91 226.13 178.72 224.79 170.20 224.97
  Q 166.23 225.05 159.47 225.04
  Q 154.98 225.03 154.98 229.03
  Q 154.99 265.76 154.94 271.22
  Q 154.91 273.95 155.35 275.92
  A 2.21 2.20 -5.0 0 0 157.41 277.65
  Q 160.34 277.76 163.31 277.67
  C 165.81 277.60 167.48 276.61 167.57 274.11
  Q 167.68 271.01 167.62 259.97
  A 0.48 0.48 0.0 0 1 168.35 259.56"
/>
<path stroke="#81b9a0" vector-effect="non-scaling-stroke" d="
  M 213.99 267.27
  Q 214.61 269.20 215.10 273.64
  C 215.36 276.03 216.17 277.69 219.04 277.72
  Q 223.54 277.75 225.99 277.45
  A 2.99 2.98 -86.2 0 0 228.52 275.23
  Q 228.93 273.63 228.47 271.38
  Q 224.14 250.24 220.59 229.83
  Q 219.74 224.97 214.99 225.00
  Q 206.45 225.06 206.04 225.03
  C 202.59 224.81 200.04 226.01 199.44 229.55
  Q 195.90 250.47 191.75 271.42
  Q 191.25 273.92 191.85 275.71
  A 2.85 2.84 -9.4 0 0 194.55 277.64
  L 201.28 277.64
  A 2.70 2.69 6.3 0 0 203.90 275.54
  L 205.57 268.05
  A 1.85 1.84 6.2 0 1 207.37 266.61
  L 213.08 266.60
  A 0.96 0.95 -8.7 0 1 213.99 267.27"
/>
<path stroke="#81b9a0" vector-effect="non-scaling-stroke" d="
  M 143.57 327.62
  C 148.22 327.66 152.36 327.83 157.01 326.25
  C 162.23 324.47 163.41 320.71 164.57 315.36
  C 166.35 307.16 165.67 295.08 157.36 290.78
  Q 154.63 289.37 148.41 289.51
  Q 144.55 289.60 134.43 289.54
  C 128.74 289.50 129.00 292.53 129.01 297.48
  Q 129.03 321.06 129.00 340.25
  Q 129.00 343.35 129.46 344.95
  A 3.12 3.12 0.0 0 0 132.05 347.19
  Q 135.96 347.72 139.47 347.18
  Q 142.52 346.70 142.75 343.68
  Q 142.90 341.64 142.85 328.34
  A 0.72 0.72 0.0 0 1 143.57 327.62"
/>
<path stroke="#81b9a0" vector-effect="non-scaling-stroke" d="
  M 187.42 335.94
  Q 188.10 338.06 188.63 342.94
  C 188.92 345.57 189.81 347.39 192.96 347.42
  Q 197.90 347.46 200.60 347.13
  A 3.29 3.28 -86.2 0 0 203.38 344.69
  Q 203.83 342.93 203.32 340.46
  Q 198.57 317.23 194.68 294.81
  Q 193.75 289.47 188.53 289.50
  Q 179.15 289.56 178.70 289.53
  C 174.90 289.28 172.10 290.60 171.44 294.49
  Q 167.54 317.48 162.98 340.49
  Q 162.43 343.24 163.09 345.21
  A 3.13 3.12 -9.4 0 0 166.05 347.33
  L 173.44 347.33
  A 2.96 2.96 0.0 0 0 176.33 345.02
  L 178.16 336.80
  A 2.03 2.03 0.0 0 1 180.14 335.21
  L 186.42 335.21
  A 1.05 1.04 -8.7 0 1 187.42 335.94"
/>
<path stroke="#81b9a0" vector-effect="non-scaling-stroke" d="
  M 205.74 293.96
  L 205.82 343.04
  A 4.41 4.41 0.0 0 0 210.24 347.44
  L 225.40 347.42
  A 19.35 17.77 89.9 0 0 243.14 328.04
  L 243.10 308.84
  A 19.35 17.77 89.9 0 0 225.30 289.52
  L 210.14 289.54
  A 4.41 4.41 0.0 0 0 205.74 293.96"
/>
<path stroke="#81b9a0" vector-effect="non-scaling-stroke" d="
  M 260.52 327.45
  Q 262.74 328.85 263.68 331.61
  Q 266.02 338.50 266.37 339.39
  Q 269.96 348.50 279.70 347.74
  Q 281.66 347.59 282.65 346.24
  A 1.70 1.69 -26.4 0 0 282.96 345.33
  Q 283.21 339.40 282.94 335.29
  C 282.71 331.79 280.17 332.27 277.68 332.63
  A 2.27 2.26 68.7 0 1 275.47 331.65
  Q 273.22 328.28 273.84 324.31
  A 1.72 1.70 -8.5 0 1 274.79 323.04
  Q 281.11 319.98 281.98 313.28
  C 282.46 309.60 282.37 304.24 281.28 300.23
  C 278.69 290.76 271.90 289.29 262.55 289.49
  Q 258.19 289.58 250.77 289.57
  Q 245.85 289.56 245.85 293.95
  Q 245.86 334.26 245.80 340.25
  Q 245.77 343.24 246.25 345.41
  A 2.42 2.41 -5.0 0 0 248.51 347.30
  Q 251.73 347.43 254.98 347.33
  C 257.73 347.25 259.56 346.17 259.66 343.42
  Q 259.78 340.02 259.72 327.90
  A 0.52 0.52 0.0 0 1 260.52 327.45"
/>
<path stroke="#81b9a0" vector-effect="non-scaling-stroke" d="
  M 314.18 335.75
  C 311.81 334.47 308.09 334.98 302.80 335.09
  Q 299.53 335.15 299.29 332.41
  Q 299.05 329.56 299.27 324.73
  A 1.82 1.82 0.0 0 1 301.14 322.99
  Q 308.85 323.17 310.22 323.15
  Q 312.98 323.09 313.66 322.03
  A 1.92 1.85 64.7 0 0 313.95 321.17
  Q 314.17 318.77 313.98 314.77
  C 313.87 312.44 312.73 311.44 310.28 311.53
  Q 303.94 311.77 301.67 311.56
  A 2.65 2.65 0.0 0 1 299.27 308.92
  L 299.27 303.08
  A 1.42 1.41 63.8 0 1 299.56 302.22
  Q 300.51 300.93 302.45 300.88
  Q 304.20 300.84 313.31 300.96
  A 1.52 1.52 0.0 0 0 314.85 299.44
  L 314.85 291.82
  A 2.16 2.16 0.0 0 0 312.74 289.66
  Q 303.59 289.47 289.76 289.57
  Q 285.31 289.61 285.32 294.48
  Q 285.36 322.56 285.32 340.35
  C 285.31 344.17 285.85 347.30 290.16 347.37
  Q 293.30 347.42 313.01 347.34
  A 1.73 1.72 -0.0 0 0 314.74 345.62
  L 314.74 336.68
  A 1.06 1.05 14.2 0 0 314.18 335.75"
/>
<path stroke="#81b9a0" vector-effect="non-scaling-stroke" d="
  M 117.1598 307.1048
  A 11.76 11.76 0.0 0 0 105.4204 295.3243
  L 100.5204 295.3158
  A 11.76 11.76 0.0 0 0 88.7399 307.0552
  L 88.7002 329.7952
  A 11.76 11.76 0.0 0 0 100.4396 341.5757
  L 105.3396 341.5842
  A 11.76 11.76 0.0 0 0 117.1201 329.8448
  L 117.1598 307.1048"
/>
<path stroke="#81b9a0" vector-effect="non-scaling-stroke" d="
  M 57.16 298.90
  L 57.22 338.08
  A 3.37 3.37 0.0 0 0 60.60 341.44
  L 72.38 341.42
  A 15.04 14.35 89.9 0 0 86.70 326.35
  L 86.68 310.51
  A 15.04 14.35 89.9 0 0 72.30 295.50
  L 60.52 295.52
  A 3.37 3.37 0.0 0 0 57.16 298.90"
/>
<path stroke="#c6a193" vector-effect="non-scaling-stroke" d="
  M 286.0982 362.9317
  A 2.53 1.18 -43.4 0 0 283.4492 363.8126
  A 2.53 1.18 -43.4 0 0 282.4218 366.4083
  A 2.53 1.18 -43.4 0 0 285.0708 365.5274
  A 2.53 1.18 -43.4 0 0 286.0982 362.9317"
/>
<path stroke="#c6a193" vector-effect="non-scaling-stroke" d="
  M 178.75 378.88
  A 1.49 1.49 0.0 0 0 179.99 380.35
  C 182.08 380.71 185.31 381.08 186.62 378.82
  C 188.97 374.76 185.24 373.53 182.25 372.20
  A 1.19 1.19 0.0 0 1 182.42 369.96
  Q 183.84 369.59 185.60 370.25
  A 0.86 0.86 0.0 0 0 186.76 369.55
  L 186.79 369.30
  A 1.39 1.39 0.0 0 0 185.93 367.83
  C 182.82 366.58 178.48 367.56 178.78 371.63
  C 178.95 373.99 181.69 374.86 183.94 375.84
  A 1.04 1.04 0.0 0 1 183.84 377.78
  Q 181.99 378.37 179.85 377.53
  A 0.81 0.81 0.0 0 0 178.75 378.28
  L 178.75 378.88"
/>
<path stroke="#c6a193" vector-effect="non-scaling-stroke" d="
  M 188.04 378.85
  A 1.49 1.48 -85.9 0 0 189.29 380.30
  C 191.38 380.63 194.60 380.96 195.88 378.70
  C 198.17 374.63 194.44 373.45 191.45 372.16
  A 1.19 1.18 48.8 0 1 191.59 369.92
  Q 193.00 369.54 194.76 370.18
  A 0.86 0.85 13.1 0 0 195.91 369.47
  L 195.94 369.22
  A 1.38 1.38 0.0 0 0 195.06 367.76
  C 191.95 366.55 187.64 367.58 187.99 371.63
  C 188.18 373.98 190.92 374.81 193.17 375.76
  A 1.03 1.03 0.0 0 1 193.10 377.69
  Q 191.26 378.30 189.12 377.49
  A 0.80 0.80 0.0 0 0 188.03 378.25
  L 188.04 378.85"
/>
<path stroke="#c6a193" vector-effect="non-scaling-stroke" d="
  M 81.99 368.76
  L 81.99 379.37
  A 1.08 1.08 0.0 0 0 83.07 380.44
  L 83.81 380.44
  A 1.00 1.00 0.0 0 0 84.81 379.45
  L 84.81 376.66
  A 0.75 0.75 0.0 0 1 85.45 375.93
  C 88.80 375.45 90.94 375.54 90.91 370.91
  A 3.27 3.26 89.8 0 0 87.65 367.66
  L 83.10 367.66
  A 1.11 1.10 -0.0 0 0 81.99 368.76"
/>
<path stroke="#c6a193" vector-effect="non-scaling-stroke" d="
  M 104.68 373.95
  A 6.61 6.61 0.0 0 0 98.07 367.34
  A 6.61 6.61 0.0 0 0 91.46 373.95
  A 6.61 6.61 0.0 0 0 98.07 380.56
  A 6.61 6.61 0.0 0 0 104.68 373.95"
/>
<path stroke="#c6a193" vector-effect="non-scaling-stroke" d="
  M 108.78 373.75
  A 0.32 0.31 -67.6 0 1 109.32 373.52
  L 115.97 380.16
  A 0.39 0.39 0.0 0 0 116.63 379.89
  L 116.63 369.51
  A 1.38 1.36 -67.7 0 0 116.23 368.54
  L 115.41 367.72
  A 0.92 0.92 0.0 0 0 113.84 368.37
  L 113.84 373.98
  A 0.36 0.36 0.0 0 1 113.23 374.24
  L 106.73 367.74
  A 0.42 0.42 0.0 0 0 106.01 368.03
  L 106.01 379.44
  A 1.03 1.03 0.0 0 0 107.04 380.47
  L 107.46 380.47
  A 1.32 1.32 0.0 0 0 108.78 379.15
  L 108.78 373.75"
/>
<path stroke="#c6a193" vector-effect="non-scaling-stroke" d="
  M 122.27 380.46
  Q 123.28 380.46 123.53 380.05
  A 1.19 1.18 61.3 0 0 123.71 379.42
  L 123.72 370.50
  A 0.59 0.59 0.0 0 1 124.31 369.91
  L 126.34 369.91
  A 0.97 0.97 0.0 0 0 127.31 368.94
  L 127.31 368.59
  A 0.99 0.98 0.4 0 0 126.33 367.61
  Q 124.39 367.58 122.33 367.60
  Q 120.26 367.56 118.32 367.57
  A 0.99 0.98 0.1 0 0 117.33 368.55
  L 117.33 368.90
  A 0.97 0.97 0.0 0 0 118.29 369.87
  L 120.32 369.89
  A 0.59 0.59 0.0 0 1 120.91 370.49
  L 120.84 379.41
  A 1.19 1.18 -60.8 0 0 121.01 380.04
  Q 121.25 380.45 122.27 380.46"
/>
<path stroke="#c6a193" vector-effect="non-scaling-stroke" d="
  M 151.38 374.23
  A 0.91 0.91 0.0 0 0 150.47 375.14
  L 150.47 377.27
  A 0.66 0.65 -2.9 0 1 149.88 377.92
  C 146.12 378.32 143.35 375.25 145.33 371.92
  C 146.93 369.20 149.29 369.86 152.11 370.48
  A 0.73 0.72 -83.7 0 0 152.99 369.77
  L 152.99 369.42
  A 1.68 1.67 7.1 0 0 151.72 367.80
  C 138.10 364.37 139.47 384.61 152.42 379.89
  A 0.80 0.80 0.0 0 0 152.95 379.14
  L 152.95 375.08
  A 0.86 0.85 0.0 0 0 152.09 374.23
  L 151.38 374.23"
/>
<path stroke="#c6a193" vector-effect="non-scaling-stroke" d="
  M 154.83 368.17
  L 154.83 379.51
  A 0.91 0.91 0.0 0 0 155.74 380.42
  L 156.50 380.42
  A 1.07 1.07 0.0 0 0 157.57 379.35
  L 157.57 376.52
  A 0.98 0.98 0.0 0 1 159.43 376.10
  L 160.92 379.25
  A 2.30 2.29 81.7 0 0 162.62 380.52
  L 163.24 380.63
  A 0.70 0.70 0.0 0 0 163.98 379.64
  L 162.19 375.90
  A 0.67 0.67 0.0 0 1 162.27 375.21
  L 163.62 373.47
  A 0.84 0.73 -22.5 0 0 163.76 373.19
  Q 164.83 369.65 161.77 367.93
  A 1.53 1.43 -27.2 0 0 161.14 367.75
  L 155.50 367.53
  A 0.64 0.64 0.0 0 0 154.83 368.17"
/>
<path stroke="#c6a193" vector-effect="non-scaling-stroke" d="
  M 178.06 373.95
  A 6.59 6.59 0.0 0 0 171.47 367.36
  A 6.59 6.59 0.0 0 0 164.88 373.95
  A 6.59 6.59 0.0 0 0 171.47 380.54
  A 6.59 6.59 0.0 0 0 178.06 373.95"
/>
<path stroke="#c6a193" vector-effect="non-scaling-stroke" d="
  M 222.89 368.76
  L 222.89 379.40
  A 1.08 1.08 0.0 0 0 223.97 380.48
  L 224.72 380.48
  A 1.00 1.00 0.0 0 0 225.72 379.48
  L 225.72 376.69
  A 0.76 0.75 -4.5 0 1 226.36 375.95
  C 229.72 375.47 231.87 375.56 231.84 370.92
  A 3.28 3.27 89.8 0 0 228.57 367.66
  L 224.00 367.66
  A 1.11 1.10 0.0 0 0 222.89 368.76"
/>
<path stroke="#c6a193" vector-effect="non-scaling-stroke" d="
  M 250.74 375.29
  Q 252.75 373.40 252.80 372.53
  C 253.13 366.97 248.06 367.58 243.96 367.57
  A 0.72 0.71 89.2 0 0 243.25 368.31
  L 243.62 379.43
  A 1.22 1.22 0.0 0 0 246.01 379.71
  Q 246.27 378.87 246.00 376.71
  A 1.09 1.09 0.0 0 1 248.07 376.10
  L 249.85 379.85
  A 0.91 0.91 0.0 0 0 250.67 380.36
  L 255.31 380.36
  A 0.95 0.94 -76.9 0 0 256.16 379.82
  L 256.77 378.50
  A 0.85 0.85 0.0 0 1 257.54 378.01
  L 261.07 378.01
  A 0.82 0.82 0.0 0 1 261.85 378.58
  Q 262.62 381.04 264.84 380.36
  A 0.56 0.56 0.0 0 0 265.18 379.59
  L 259.68 368.06
  A 0.44 0.44 0.0 0 0 258.88 368.06
  L 253.66 379.24
  A 0.76 0.76 0.0 0 1 252.25 379.16
  Q 251.65 377.36 250.68 376.15
  A 0.63 0.63 0.0 0 1 250.74 375.29"
/>
<path stroke="#c6a193" vector-effect="non-scaling-stroke" d="
  M 270.51 374.71
  Q 273.16 377.53 276.10 380.10
  A 0.31 0.31 0.0 0 0 276.62 379.87
  L 276.62 368.74
  A 1.29 1.28 0.0 0 0 275.33 367.46
  L 274.94 367.46
  A 1.08 1.08 0.0 0 0 273.86 368.54
  L 273.86 374.00
  A 0.33 0.32 -71.3 0 1 273.34 374.26
  Q 272.91 373.93 272.14 373.11
  Q 269.49 370.29 266.55 367.72
  A 0.31 0.31 0.0 0 0 266.03 367.95
  L 266.03 379.08
  A 1.29 1.28 -0.0 0 0 267.32 380.36
  L 267.71 380.36
  A 1.08 1.08 0.0 0 0 268.79 379.28
  L 268.79 373.82
  A 0.33 0.32 -71.3 0 1 269.31 373.56
  Q 269.74 373.89 270.51 374.71"
/>
<path stroke="#c6a193" vector-effect="non-scaling-stroke" d="
  M 131.57 378.08
  Q 132.40 378.08 133.22 378.12
  A 1.18 1.17 -11.2 0 1 134.23 378.79
  L 134.69 379.73
  A 1.33 1.33 0.0 0 0 135.89 380.49
  L 136.96 380.49
  A 0.59 0.59 0.0 0 0 137.50 379.65
  Q 134.17 372.70 132.07 368.14
  Q 132.02 368.03 131.87 367.96
  Q 131.73 367.89 131.59 367.89
  Q 131.43 367.89 131.30 367.96
  Q 131.14 368.03 131.09 368.14
  Q 128.98 372.69 125.63 379.63
  A 0.59 0.59 0.0 0 0 126.17 380.47
  L 127.24 380.48
  A 1.33 1.33 0.0 0 0 128.44 379.72
  L 128.90 378.78
  A 1.18 1.17 11.3 0 1 129.91 378.11
  Q 130.73 378.08 131.57 378.08"
/>
<path stroke="#c6a193" vector-effect="non-scaling-stroke" d="
  M 236.60 378.06
  Q 237.43 378.07 238.24 378.10
  A 1.17 1.16 -11.1 0 1 239.24 378.77
  L 239.70 379.70
  A 1.32 1.32 0.0 0 0 240.89 380.46
  L 241.95 380.46
  A 0.59 0.58 -12.5 0 0 242.49 379.63
  Q 239.19 372.73 237.12 368.20
  Q 237.07 368.09 236.91 368.02
  Q 236.78 367.95 236.64 367.95
  Q 236.48 367.95 236.35 368.02
  Q 236.20 368.09 236.15 368.20
  Q 234.04 372.71 230.71 379.59
  A 0.59 0.58 12.9 0 0 231.24 380.43
  L 232.30 380.43
  A 1.32 1.32 0.0 0 0 233.49 379.69
  L 233.96 378.76
  A 1.17 1.16 11.4 0 1 234.96 378.09
  Q 235.77 378.06 236.60 378.06"
/>
<path stroke="#c6a193" vector-effect="non-scaling-stroke" d="
  M 202.54 378.10
  Q 203.37 378.09 204.19 378.12
  A 1.17 1.17 0.0 0 1 205.20 378.78
  L 205.67 379.72
  A 1.33 1.32 76.9 0 0 206.87 380.47
  L 207.94 380.46
  A 0.59 0.59 0.0 0 0 208.47 379.62
  Q 205.09 372.71 202.96 368.17
  Q 202.91 368.06 202.76 367.99
  Q 202.63 367.93 202.47 367.93
  Q 202.32 367.93 202.19 368.00
  Q 202.04 368.07 201.99 368.18
  Q 199.92 372.74 196.62 379.69
  A 0.59 0.59 0.0 0 0 197.17 380.52
  L 198.23 380.52
  A 1.33 1.32 -77.6 0 0 199.43 379.76
  L 199.88 378.82
  A 1.17 1.17 0.0 0 1 200.89 378.14
  Q 201.70 378.10 202.54 378.10"
/>
<path stroke="#c6a193" vector-effect="non-scaling-stroke" d="
  M 283.37 377.94
  Q 284.19 377.94 285.00 377.97
  A 1.16 1.16 0.0 0 1 286.00 378.63
  L 286.46 379.56
  A 1.31 1.31 0.0 0 0 287.65 380.31
  L 288.71 380.30
  A 0.59 0.58 -12.8 0 0 289.24 379.47
  Q 285.92 372.61 283.83 368.11
  Q 283.78 368.00 283.62 367.93
  Q 283.49 367.86 283.35 367.86
  Q 283.19 367.86 283.06 367.93
  Q 282.91 368.00 282.86 368.11
  Q 280.79 372.62 277.50 379.49
  A 0.59 0.58 12.6 0 0 278.03 380.33
  L 279.09 380.32
  A 1.31 1.31 0.0 0 0 280.28 379.57
  L 280.73 378.64
  A 1.16 1.16 0.0 0 1 281.73 377.98
  Q 282.54 377.94 283.37 377.94"
/>
<path stroke="#c6a193" vector-effect="non-scaling-stroke" d="
  M 217.06 373.94
  A 1.99 1.99 0.0 0 0 215.07 371.95
  A 1.99 1.99 0.0 0 0 213.08 373.94
  A 1.99 1.99 0.0 0 0 215.07 375.93
  A 1.99 1.99 0.0 0 0 217.06 373.94"
/>
<path stroke="#662c17" vector-effect="non-scaling-stroke" d="
  M 175.33 194.93
  Q 174.70 195.04 174.55 195.12
  A 0.48 0.48 0.0 0 0 174.74 196.02
  Q 187.24 197.04 199.06 192.92
  A 0.74 0.72 74.2 0 0 199.53 192.06
  Q 199.51 191.97 198.93 191.84"
/>
<path stroke="#c6a193" vector-effect="non-scaling-stroke" d="
  M 198.93 191.84
  Q 210.89 187.28 217.98 179.25
  Q 220.75 176.11 224.60 168.02
  C 226.59 163.86 227.76 155.61 228.18 152.26
  Q 229.34 143.16 229.10 127.76
  C 228.94 118.46 225.56 109.00 221.75 101.34
  Q 219.40 96.61 218.31 93.77
  C 216.75 89.72 213.84 85.21 211.76 80.42
  C 209.38 74.96 208.04 70.69 205.17 65.44
  Q 200.52 56.94 194.15 48.73
  Q 192.17 46.19 190.35 44.76
  Q 186.67 41.86 185.76 41.68
  Q 178.07 40.09 172.09 44.64
  A 0.45 0.45 0.0 0 1 171.43 44.51
  Q 167.06 36.99 161.86 30.44
  C 159.49 27.46 152.87 27.61 149.64 28.40
  Q 143.19 29.98 144.58 36.56
  A 0.37 0.37 0.0 0 1 143.92 36.85
  C 141.73 33.80 135.41 26.79 131.28 26.46
  C 126.89 26.10 122.91 30.95 120.20 34.17
  Q 118.40 36.33 118.79 38.01
  C 120.26 44.28 123.89 48.36 126.85 53.45
  A 0.26 0.26 0.0 0 1 126.43 53.76
  C 123.52 50.57 118.69 44.95 114.03 49.16
  Q 111.21 51.71 110.51 55.90
  C 110.02 58.80 112.17 64.70 113.37 66.87
  Q 127.60 92.49 130.15 97.37
  Q 137.31 111.07 144.56 128.75
  A 0.23 0.22 66.5 0 1 144.45 129.04
  L 144.42 129.05
  A 0.23 0.23 0.0 0 1 144.11 128.94
  Q 140.74 121.90 135.11 114.69
  C 126.94 104.23 116.28 118.56 117.90 127.30
  Q 118.41 130.06 119.26 131.74
  Q 126.67 146.33 134.89 163.03
  Q 136.86 167.03 138.25 170.25
  C 141.55 177.96 147.28 186.32 155.02 189.50
  Q 163.94 193.16 175.33 194.93"
/>
<path stroke="#9f8b83" vector-effect="non-scaling-stroke" d="
  M 198.93 191.84
  Q 187.35 195.95 175.33 194.93"
/>
<path stroke="#9f8b83" vector-effect="non-scaling-stroke" d="
  M 156.12 150.26
  Q 161.29 162.95 172.49 169.76
  A 6.18 6.11 -27.6 0 0 175.36 170.64
  Q 177.66 170.75 179.28 170.69
  C 181.58 170.60 184.75 171.78 187.26 171.34
  Q 191.80 170.55 196.19 166.97"
/>
<path stroke="#c6a193" vector-effect="non-scaling-stroke" d="
  M 196.19 166.97
  Q 199.17 165.94 201.44 162.43
  Q 204.71 157.38 207.12 151.86
  Q 208.12 149.58 208.04 146.56"
/>
<path stroke="#9f8b83" vector-effect="non-scaling-stroke" d="
  M 208.04 146.56
  Q 209.89 134.96 209.27 131.24
  C 207.97 123.43 204.77 116.15 198.58 110.75
  C 192.58 105.52 182.29 107.94 176.24 111.75
  Q 172.80 113.90 169.15 118.04
  C 166.33 121.23 165.84 123.70 164.83 128.10
  Q 161.48 142.61 171.80 152.50
  A 3.23 3.07 80.1 0 0 172.46 152.99
  Q 176.88 155.49 179.38 155.84
  C 188.00 157.07 193.87 149.16 195.18 141.50
  C 196.44 134.11 196.11 127.29 189.39 123.15
  A 2.22 2.17 -29.2 0 0 188.21 122.83
  C 181.90 122.92 177.17 126.42 176.30 132.62
  C 175.76 136.46 177.60 140.29 182.03 137.57
  C 185.56 135.41 183.57 132.03 186.63 130.68
  C 189.44 129.45 190.94 131.40 190.80 134.01
  Q 190.57 138.41 187.20 141.35
  C 183.87 144.25 180.34 146.74 176.41 145.12
  C 173.25 143.83 170.26 142.26 169.69 138.75
  Q 168.20 129.42 173.29 122.79
  C 178.21 116.39 185.71 113.46 193.25 117.20
  C 198.81 119.97 202.37 126.67 202.68 132.61
  Q 202.79 134.69 202.32 141.74"
/>
<path stroke="#c6a193" vector-effect="non-scaling-stroke" d="
  M 202.32 141.74
  Q 201.09 146.74 198.57 151.13"
/>
<path stroke="#9f8b83" vector-effect="non-scaling-stroke" d="
  M 198.57 151.13
  Q 194.12 158.33 186.87 160.83
  Q 179.15 163.48 171.80 160.13
  Q 164.53 156.81 160.35 148.50"
/>
<path stroke="#c6a193" vector-effect="non-scaling-stroke" d="
  M 160.35 148.50
  L 157.90 141.14"
/>
<path stroke="#9f8b83" vector-effect="non-scaling-stroke" d="
  M 157.90 141.14
  C 156.82 128.80 161.01 115.11 171.89 108.15
  Q 178.14 104.15 182.68 102.38
  Q 187.94 100.34 197.04 102.27
  C 203.95 103.74 210.32 112.16 212.79 118.17
  Q 216.50 127.19 215.38 139.23
  Q 214.49 148.73 213.73 151.24
  Q 210.10 163.15 204.10 168.79
  Q 199.40 173.22 190.42 177.25
  A 5.89 5.79 -61.1 0 1 189.01 177.67
  Q 178.73 179.31 169.51 175.23"
/>
<path stroke="#c6a193" vector-effect="non-scaling-stroke" d="
  M 169.51 175.23
  C 160.25 170.58 156.58 163.60 151.22 155.06
  C 147.71 149.46 145.33 143.76 142.15 137.18
  C 138.77 130.16 134.59 124.10 130.10 117.67
  A 1.57 1.56 -33.1 0 0 128.00 117.23
  C 123.90 119.72 122.03 124.30 124.16 128.72
  C 125.45 131.38 126.57 134.41 128.15 137.19
  Q 135.63 150.34 141.77 164.68
  C 143.44 168.58 145.18 170.80 147.68 174.76
  Q 150.07 178.52 153.36 181.01
  Q 161.04 186.82 171.25 188.16"
/>
<path stroke="#9f8b83" vector-effect="non-scaling-stroke" d="
  M 171.25 188.16
  Q 189.84 191.80 205.58 181.40"
/>
<path stroke="#c6a193" vector-effect="non-scaling-stroke" d="
  M 205.58 181.40
  Q 211.99 177.69 215.56 170.79
  C 218.28 165.53 220.36 161.81 220.66 156.63
  Q 220.76 154.98 221.81 150.08
  Q 222.34 147.61 222.52 143.49
  Q 222.72 138.93 222.85 135.00
  Q 223.21 124.42 220.14 115.30
  C 218.72 111.09 216.65 107.41 215.42 103.86
  C 212.96 96.80 209.11 90.32 206.16 82.91
  Q 200.17 67.87 190.31 54.41
  Q 187.35 50.37 184.60 48.11
  Q 181.96 45.95 178.21 47.71
  A 1.17 1.16 -15.3 0 0 177.54 48.88
  Q 177.82 51.72 178.89 54.08
  Q 180.63 57.88 189.97 79.52
  Q 191.28 82.56 193.50 90.78
  A 3.29 3.28 -18.7 0 1 191.57 94.67
  L 191.42 94.73
  A 2.74 2.74 0.0 0 1 187.77 93.00
  C 184.71 83.19 180.18 71.54 174.36 61.65
  Q 172.47 58.44 167.16 48.84
  Q 164.78 44.55 158.61 36.20
  A 4.78 4.78 0.0 0 0 153.15 34.56
  L 152.96 34.63
  A 3.05 3.05 0.0 0 0 151.31 38.94
  Q 155.40 46.55 157.99 52.51
  Q 162.09 61.93 163.94 65.73
  Q 169.19 76.51 174.22 92.10
  A 1.69 1.63 -45.5 0 1 174.21 93.15
  C 173.36 95.73 169.67 98.45 168.28 94.20
  Q 164.23 81.80 159.70 71.89
  C 157.94 68.06 155.39 64.19 153.41 60.71
  Q 151.09 56.64 148.06 52.70
  Q 141.82 44.56 135.37 36.13
  Q 134.06 34.44 132.08 33.49
  A 1.22 1.20 -54.6 0 0 130.70 33.73
  L 125.57 38.85
  A 1.23 1.22 -35.3 0 0 125.33 40.23
  Q 127.98 45.96 131.96 51.50
  Q 135.69 56.68 142.74 70.30
  Q 144.92 74.51 153.06 91.01
  Q 157.30 99.61 158.96 105.67
  A 2.82 2.82 0.0 0 1 156.95 109.14
  L 156.86 109.17
  A 3.03 3.02 73.7 0 1 153.21 107.17
  Q 148.17 91.51 140.93 81.60
  C 133.61 71.59 127.06 62.47 118.69 54.44
  A 1.01 1.01 0.0 0 0 117.18 54.56
  C 114.43 58.22 117.20 63.50 119.26 66.84
  Q 126.38 78.38 134.18 92.58
  Q 143.94 110.36 150.51 130.30
  Q 151.49 133.27 153.17 140.30
  Q 154.43 145.54 156.12 150.26"
/>
<path stroke="#662c17" vector-effect="non-scaling-stroke" d="
  M 205.58 181.40
  Q 204.19 181.57 200.60 183.57
  Q 199.85 183.99 194.53 185.90
  Q 191.39 187.03 188.23 187.39
  Q 182.04 188.08 179.47 188.29
  A 6.20 6.14 -40.9 0 1 177.69 188.17
  Q 174.17 187.38 171.25 188.16"
/>
<path stroke="#662c17" vector-effect="non-scaling-stroke" d="
  M 169.51 175.23
  Q 169.19 175.12 169.13 175.54
  A 0.38 0.38 0.0 0 0 169.33 175.92
  Q 174.94 178.75 180.82 178.73
  A 8.40 7.79 35.3 0 1 181.98 178.81
  Q 186.97 179.54 190.64 178.05
  Q 197.00 175.46 203.37 170.66
  Q 209.10 166.34 212.45 157.80
  Q 212.75 157.02 213.77 154.97
  A 4.23 4.07 66.5 0 0 214.13 154.00
  Q 216.92 143.14 216.73 131.00
  Q 216.69 128.89 213.94 117.42
  A 3.67 3.64 23.0 0 0 213.53 116.42
  Q 209.03 108.90 202.82 104.15
  C 198.28 100.67 190.71 100.17 185.34 100.93
  Q 182.85 101.29 179.78 102.78
  Q 172.76 106.18 167.55 110.56
  C 160.94 116.10 157.75 125.95 156.69 134.50
  Q 156.20 138.40 157.90 141.14"
/>
<path stroke="#662c17" vector-effect="non-scaling-stroke" d="
  M 160.35 148.50
  Q 162.32 155.13 167.89 158.83
  Q 171.32 161.10 175.72 162.33
  C 183.54 164.53 193.14 160.04 197.57 153.87
  Q 197.81 153.54 198.69 152.41
  Q 199.87 150.90 198.57 151.13"
/>
<path stroke="#662c17" vector-effect="non-scaling-stroke" d="
  M 202.32 141.74
  Q 205.49 131.74 200.53 123.23
  Q 197.42 117.88 191.24 115.61
  Q 186.52 113.87 181.96 115.59
  C 172.99 118.95 168.06 127.10 168.59 136.65
  C 168.87 141.60 171.29 143.16 175.54 145.52
  C 180.03 147.99 182.64 145.45 186.59 142.74
  C 189.89 140.47 190.80 138.20 191.35 134.48
  Q 191.77 131.59 189.46 129.87
  A 1.58 1.55 64.0 0 0 188.59 129.56
  Q 185.95 129.45 184.41 131.47
  C 183.39 132.80 184.05 134.98 182.74 136.26
  C 180.27 138.69 176.85 138.33 176.92 134.30
  Q 177.03 127.81 182.83 124.62
  A 0.32 0.31 -64.7 0 1 182.96 124.57
  L 187.50 123.41
  A 1.02 1.00 45.5 0 1 188.04 123.42
  C 190.78 124.28 192.07 126.58 194.05 129.26
  A 2.26 2.24 22.1 0 1 194.47 130.24
  C 195.78 137.73 194.90 146.51 189.06 151.98
  C 185.62 155.20 182.03 155.77 177.65 154.42
  Q 171.64 152.58 168.41 147.28
  Q 165.21 142.03 164.72 138.46
  Q 164.22 134.90 165.00 131.11
  C 165.80 127.23 166.33 122.68 168.44 120.19
  C 170.86 117.33 172.53 115.18 175.37 113.15
  C 180.94 109.16 191.70 105.77 197.58 110.94
  Q 206.00 118.33 208.12 129.65
  Q 209.03 134.46 208.29 137.78
  Q 207.21 142.67 208.04 146.56"
/>
<path stroke="#662c17" vector-effect="non-scaling-stroke" d="
  M 196.19 166.97
  Q 190.65 169.92 185.38 170.58
  A 4.63 4.58 48.5 0 1 183.58 170.46
  Q 179.59 169.37 175.50 169.68
  A 4.09 4.06 57.0 0 1 173.24 169.19
  Q 167.00 165.73 163.75 161.50
  Q 161.58 158.66 156.12 150.26"
/>
<path stroke="#81b9a0" vector-effect="non-scaling-stroke" d="
  M 277.3027 238.3065
  A 3.21 3.21 0.0 0 0 274.0983 235.0909
  L 273.0983 235.0892
  A 3.21 3.21 0.0 0 0 269.8827 238.2935
  L 269.8373 264.3535
  A 3.21 3.21 0.0 0 0 273.0417 267.5691
  L 274.0417 267.5708
  A 3.21 3.21 0.0 0 0 277.2573 264.3665
  L 277.3027 238.3065"
/>
<path stroke="#81b9a0" vector-effect="non-scaling-stroke" d="
  M 101.9733 238.1594
  A 3.03 3.03 0.0 0 0 98.9012 235.1720
  L 97.6814 235.1890
  A 3.03 3.03 0.0 0 0 94.6940 238.2610
  L 94.7467 242.0406
  A 3.03 3.03 0.0 0 0 97.8188 245.0280
  L 99.0386 245.0110
  A 3.03 3.03 0.0 0 0 102.0260 241.9390
  L 101.9733 238.1594"
/>
<path stroke="#81b9a0" vector-effect="non-scaling-stroke" d="
  M 102.7661 258.0851
  A 3.51 3.51 0.0 0 0 99.2869 254.5446
  L 98.2869 254.5359
  A 3.51 3.51 0.0 0 0 94.7464 258.0151
  L 94.6939 264.0349
  A 3.51 3.51 0.0 0 0 98.1731 267.5754
  L 99.1731 267.5841
  A 3.51 3.51 0.0 0 0 102.7136 264.1049
  L 102.7661 258.0851"
/>
<path stroke="#81b9a0" vector-effect="non-scaling-stroke" d="
  M 167.57 236.90
  L 167.65 247.40
  A 1.73 1.73 0.0 0 0 169.39 249.11
  L 170.66 249.10
  A 4.96 4.30 89.6 0 0 174.92 244.11
  L 174.90 240.07
  A 4.96 4.30 89.6 0 0 170.56 235.14
  L 169.29 235.15
  A 1.73 1.73 0.0 0 0 167.57 236.90"
/>
<path stroke="#81b9a0" vector-effect="non-scaling-stroke" d="
  M 207.74 255.37
  L 212.12 255.37
  A 0.33 0.33 0.0 0 0 212.45 255.04
  L 212.45 254.91
  A 17.86 2.45 90.0 0 0 210.00 237.05
  L 209.86 237.05
  A 17.86 2.45 -90.0 0 0 207.41 254.91
  L 207.41 255.04
  A 0.33 0.33 0.0 0 0 207.74 255.37"
/>
<path stroke="#81b9a0" vector-effect="non-scaling-stroke" d="
  M 142.82 302.63
  L 142.94 314.15
  A 1.88 1.88 0.0 0 0 144.84 316.01
  L 146.31 316.00
  A 5.03 4.63 89.4 0 0 150.89 310.92
  L 150.83 305.70
  A 5.03 4.63 89.4 0 0 146.15 300.72
  L 144.68 300.73
  A 1.88 1.88 0.0 0 0 142.82 302.63"
/>
<path stroke="#81b9a0" vector-effect="non-scaling-stroke" d="
  M 180.48 322.83
  L 185.46 322.83
  A 0.27 0.27 0.0 0 0 185.73 322.56
  L 185.73 322.46
  A 19.81 2.65 89.9 0 0 183.04 302.65
  L 182.82 302.65
  A 19.81 2.65 89.9 0 0 180.21 322.46
  L 180.21 322.56
  A 0.27 0.27 0.0 0 0 180.48 322.83"
/>
<path stroke="#81b9a0" vector-effect="non-scaling-stroke" d="
  M 219.58 302.00
  L 219.76 334.50
  A 1.45 1.45 0.0 0 0 221.21 335.94
  L 221.88 335.94
  A 8.64 5.86 89.7 0 0 227.70 327.27
  L 227.60 309.15
  A 8.64 5.86 89.7 0 0 221.70 300.54
  L 221.03 300.54
  A 1.45 1.45 0.0 0 0 219.58 302.00"
/>
<path stroke="#81b9a0" vector-effect="non-scaling-stroke" d="
  M 259.66 302.55
  L 259.74 314.09
  A 1.89 1.89 0.0 0 0 261.64 315.96
  L 262.98 315.96
  A 5.50 4.81 89.6 0 0 267.75 310.42
  L 267.72 306.10
  A 5.50 4.81 89.6 0 0 262.88 300.64
  L 261.54 300.65
  A 1.89 1.89 0.0 0 0 259.66 302.55"
/>
<path stroke="#81b9a0" vector-effect="non-scaling-stroke" d="
  M 106.1102 307.0244
  A 2.76 2.76 0.0 0 0 103.3454 304.2692
  L 102.4454 304.2708
  A 2.76 2.76 0.0 0 0 99.6902 307.0356
  L 99.7298 329.7556
  A 2.76 2.76 0.0 0 0 102.4946 332.5108
  L 103.3946 332.5092
  A 2.76 2.76 0.0 0 0 106.1498 329.7444
  L 106.1102 307.0244"
/>
<path stroke="#81b9a0" vector-effect="non-scaling-stroke" d="
  M 68.13 305.25
  L 68.27 331.35
  A 0.97 0.97 0.0 0 0 69.24 332.31
  L 69.89 332.31
  A 7.19 4.68 89.7 0 0 74.54 325.09
  L 74.46 311.43
  A 7.19 4.68 89.7 0 0 69.75 304.27
  L 69.10 304.27
  A 0.97 0.97 0.0 0 0 68.13 305.25"
/>
<path stroke="#c6a193" vector-effect="non-scaling-stroke" d="
  M 84.68 370.64
  L 84.64 372.90
  A 0.75 0.75 0.0 0 0 85.38 373.66
  L 86.05 373.66
  A 2.14 1.75 0.8 0 0 88.22 371.94
  L 88.22 371.68
  A 2.14 1.75 0.8 0 0 86.11 369.91
  L 85.44 369.90
  A 0.75 0.75 0.0 0 0 84.68 370.64"
/>
<path stroke="#c6a193" vector-effect="non-scaling-stroke" d="
  M 102.01 373.91
  A 3.92 3.92 0.0 0 0 98.09 369.99
  A 3.92 3.92 0.0 0 0 94.17 373.91
  A 3.92 3.92 0.0 0 0 98.09 377.83
  A 3.92 3.92 0.0 0 0 102.01 373.91"
/>
<path stroke="#c6a193" vector-effect="non-scaling-stroke" d="
  M 157.56 370.47
  L 157.41 372.87
  A 0.68 0.68 0.0 0 0 158.04 373.59
  L 159.01 373.65
  A 2.25 1.66 3.6 0 0 161.36 372.13
  L 161.39 371.69
  A 2.25 1.66 3.6 0 0 159.25 369.89
  L 158.28 369.83
  A 0.68 0.68 0.0 0 0 157.56 370.47"
/>
<path stroke="#c6a193" vector-effect="non-scaling-stroke" d="
  M 175.39 373.93
  A 3.94 3.94 0.0 0 0 171.45 369.99
  A 3.94 3.94 0.0 0 0 167.51 373.93
  A 3.94 3.94 0.0 0 0 171.45 377.87
  A 3.94 3.94 0.0 0 0 175.39 373.93"
/>
<path stroke="#c6a193" vector-effect="non-scaling-stroke" d="
  M 225.71 370.49
  L 225.56 372.93
  A 0.64 0.64 0.0 0 0 226.16 373.61
  L 226.90 373.65
  A 2.16 1.73 3.5 0 0 229.16 372.06
  L 229.17 371.80
  A 2.16 1.73 3.5 0 0 227.12 369.94
  L 226.39 369.89
  A 0.64 0.64 0.0 0 0 225.71 370.49"
/>
<path stroke="#c6a193" vector-effect="non-scaling-stroke" d="
  M 246.09 370.61
  L 245.99 372.81
  A 0.78 0.78 0.0 0 0 246.74 373.62
  L 247.59 373.66
  A 2.37 1.75 2.5 0 0 250.03 372.02
  L 250.04 371.76
  A 2.37 1.75 2.5 0 0 247.75 369.91
  L 246.90 369.87
  A 0.78 0.78 0.0 0 0 246.09 370.61"
/>
<path stroke="#c6a193" vector-effect="non-scaling-stroke" d="
  M 259.30 376.05
  Q 260.05 376.03 260.17 375.99
  A 0.57 0.57 0.0 0 0 260.50 375.26
  Q 259.65 372.94 259.22 372.95
  Q 258.79 372.96 258.05 375.32
  A 0.57 0.57 0.0 0 0 258.43 376.04
  Q 258.54 376.07 259.30 376.05"
/>
<path stroke="#c6a193" vector-effect="non-scaling-stroke" d="
  M 130.72 375.98
  L 132.40 376.04
  A 0.25 0.25 0.0 0 0 132.66 375.80
  L 132.66 375.66
  A 2.47 1.08 -88.0 0 0 131.67 373.15
  L 131.65 373.15
  A 2.47 1.08 -88.0 0 0 130.48 375.58
  L 130.48 375.72
  A 0.25 0.25 0.0 0 0 130.72 375.98"
/>
<path stroke="#c6a193" vector-effect="non-scaling-stroke" d="
  M 236.63 376.07
  Q 237.39 376.09 237.48 376.07
  A 0.54 0.54 0.0 0 0 237.87 375.40
  Q 237.11 372.95 236.72 372.94
  Q 236.32 372.93 235.43 375.33
  A 0.54 0.54 0.0 0 0 235.78 376.02
  Q 235.86 376.05 236.63 376.07"
/>
<path stroke="#c6a193" vector-effect="non-scaling-stroke" d="
  M 202.51 376.03
  Q 203.27 376.04 203.40 376.01
  A 0.48 0.48 0.0 0 0 203.75 375.37
  Q 202.95 373.20 202.54 373.20
  Q 202.14 373.19 201.30 375.34
  A 0.48 0.48 0.0 0 0 201.63 375.99
  Q 201.76 376.02 202.51 376.03"
/>
<path stroke="#c6a193" vector-effect="non-scaling-stroke" d="
  M 283.40 376.03
  Q 284.23 376.01 284.26 376.00
  A 0.49 0.48 74.9 0 0 284.63 375.36
  Q 283.78 373.00 283.32 373.01
  Q 282.87 373.02 282.14 375.42
  A 0.49 0.48 -77.8 0 0 282.54 376.05
  Q 282.57 376.05 283.40 376.03"
/>
</g>
<path fill="#ffffff" d="
  M 372.00 0.00
  L 372.00 397.00
  L 0.00 397.00
  L 0.00 0.00
  L 372.00 0.00
  Z
  M 241.40 176.12
  A 15.04 14.90 -15.6 0 0 243.48 172.47
  Q 243.88 171.20 245.30 166.96
  C 247.37 160.75 248.08 154.12 247.37 147.53
  Q 247.04 144.51 246.73 138.47
  Q 245.65 117.53 238.59 95.82
  Q 237.68 92.99 233.74 83.86
  Q 232.19 80.27 229.06 71.75
  C 224.47 59.24 218.41 52.16 208.96 39.98
  Q 206.88 37.31 205.34 35.92
  C 201.81 32.73 198.54 28.56 195.28 25.63
  Q 189.89 20.79 181.46 14.92
  C 179.28 13.40 176.49 12.30 174.00 12.01
  Q 168.28 11.34 154.27 11.28
  Q 141.73 11.23 125.40 16.43
  Q 123.37 17.07 120.17 19.42
  Q 111.34 25.90 109.63 27.48
  Q 106.99 29.93 102.89 33.04
  Q 98.08 36.69 94.66 41.33
  A 6.41 5.94 -17.6 0 0 93.91 42.65
  C 89.39 53.42 87.28 68.98 91.98 80.15
  C 94.49 86.10 95.80 90.62 99.33 99.14
  Q 101.78 105.07 102.07 113.54
  A 14.70 14.21 39.1 0 0 102.38 116.10
  C 103.82 123.05 104.58 128.73 106.22 134.35
  Q 109.66 146.16 115.26 157.28
  C 117.77 162.27 122.53 167.68 125.22 172.56
  C 127.95 177.51 131.44 182.07 135.14 187.88
  Q 138.48 193.13 141.97 194.78
  Q 145.78 196.58 160.81 202.66
  Q 174.32 208.13 187.75 206.08
  Q 201.36 204.01 218.24 196.31
  Q 222.28 194.48 226.69 190.98
  Q 233.71 185.42 234.98 184.30
  A 2.95 2.73 -4.2 0 0 235.39 183.86
  L 241.40 176.12
  Z
  M 228.58 251.33
  C 228.59 266.68 234.96 278.34 252.09 277.99
  A 2.20 2.20 0.0 0 0 254.25 275.79
  L 254.25 269.17
  A 2.07 2.07 0.0 0 0 252.31 267.10
  Q 250.58 267.00 249.20 267.10
  C 242.42 267.61 242.02 255.57 242.02 251.32
  C 242.02 247.06 242.40 235.02 249.18 235.52
  Q 250.56 235.62 252.29 235.52
  A 2.07 2.07 0.0 0 0 254.23 233.45
  L 254.22 226.83
  A 2.20 2.20 0.0 0 0 252.06 224.63
  C 234.93 224.30 228.57 235.97 228.58 251.33
  Z
  M 289.9529 238.2485
  A 13.49 13.49 0.0 0 0 276.4865 224.7350
  L 270.8265 224.7251
  A 13.49 13.49 0.0 0 0 257.3130 238.1915
  L 257.2671 264.5115
  A 13.49 13.49 0.0 0 0 270.7335 278.0250
  L 276.3935 278.0349
  A 13.49 13.49 0.0 0 0 289.9070 264.5685
  L 289.9529 238.2485
  Z
  M 109.42 249.33
  Q 115.83 245.04 115.29 237.25
  C 114.53 226.27 107.59 224.72 97.82 225.00
  Q 93.19 225.12 86.49 225.03
  Q 82.16 224.97 82.16 229.48
  Q 82.16 261.04 82.16 273.49
  Q 82.16 277.37 85.60 277.58
  Q 88.41 277.75 105.05 277.70
  C 113.78 277.66 117.29 267.56 116.61 260.34
  Q 115.89 252.79 109.45 249.68
  A 0.20 0.20 0.0 0 1 109.42 249.33
  Z
  M 135.24 278.14
  Q 140.53 278.14 144.45 276.92
  C 151.15 274.83 151.60 268.85 151.63 262.25
  Q 151.68 250.21 151.56 229.04
  Q 151.54 225.53 148.19 225.14
  C 145.33 224.81 139.04 224.11 138.96 228.76
  Q 138.88 232.78 138.91 265.05
  A 2.40 2.40 0.0 0 1 137.24 267.34
  Q 136.38 267.61 135.24 267.61
  Q 134.10 267.61 133.24 267.34
  A 2.40 2.40 0.0 0 1 131.57 265.05
  Q 131.60 232.78 131.52 228.76
  C 131.44 224.11 125.15 224.81 122.29 225.14
  Q 118.94 225.53 118.92 229.04
  Q 118.80 250.21 118.85 262.25
  C 118.88 268.85 119.33 274.83 126.03 276.92
  Q 129.95 278.14 135.24 278.14
  Z
  M 168.35 259.56
  Q 170.37 260.83 171.23 263.35
  Q 173.36 269.63 173.68 270.44
  Q 176.95 278.74 185.83 278.04
  Q 187.62 277.91 188.52 276.68
  A 1.55 1.54 -26.4 0 0 188.80 275.85
  Q 189.03 270.44 188.78 266.70
  C 188.57 263.51 186.26 263.95 183.99 264.28
  A 2.07 2.06 68.7 0 1 181.97 263.38
  Q 179.92 260.31 180.49 256.70
  A 1.57 1.55 -8.5 0 1 181.35 255.54
  Q 187.11 252.75 187.90 246.65
  C 188.34 243.29 188.26 238.41 187.27 234.75
  C 184.91 226.13 178.72 224.79 170.20 224.97
  Q 166.23 225.05 159.47 225.04
  Q 154.98 225.03 154.98 229.03
  Q 154.99 265.76 154.94 271.22
  Q 154.91 273.95 155.35 275.92
  A 2.21 2.20 -5.0 0 0 157.41 277.65
  Q 160.34 277.76 163.31 277.67
  C 165.81 277.60 167.48 276.61 167.57 274.11
  Q 167.68 271.01 167.62 259.97
  A 0.48 0.48 0.0 0 1 168.35 259.56
  Z
  M 213.99 267.27
  Q 214.61 269.20 215.10 273.64
  C 215.36 276.03 216.17 277.69 219.04 277.72
  Q 223.54 277.75 225.99 277.45
  A 2.99 2.98 -86.2 0 0 228.52 275.23
  Q 228.93 273.63 228.47 271.38
  Q 224.14 250.24 220.59 229.83
  Q 219.74 224.97 214.99 225.00
  Q 206.45 225.06 206.04 225.03
  C 202.59 224.81 200.04 226.01 199.44 229.55
  Q 195.90 250.47 191.75 271.42
  Q 191.25 273.92 191.85 275.71
  A 2.85 2.84 -9.4 0 0 194.55 277.64
  L 201.28 277.64
  A 2.70 2.69 6.3 0 0 203.90 275.54
  L 205.57 268.05
  A 1.85 1.84 6.2 0 1 207.37 266.61
  L 213.08 266.60
  A 0.96 0.95 -8.7 0 1 213.99 267.27
  Z
  M 143.57 327.62
  C 148.22 327.66 152.36 327.83 157.01 326.25
  C 162.23 324.47 163.41 320.71 164.57 315.36
  C 166.35 307.16 165.67 295.08 157.36 290.78
  Q 154.63 289.37 148.41 289.51
  Q 144.55 289.60 134.43 289.54
  C 128.74 289.50 129.00 292.53 129.01 297.48
  Q 129.03 321.06 129.00 340.25
  Q 129.00 343.35 129.46 344.95
  A 3.12 3.12 0.0 0 0 132.05 347.19
  Q 135.96 347.72 139.47 347.18
  Q 142.52 346.70 142.75 343.68
  Q 142.90 341.64 142.85 328.34
  A 0.72 0.72 0.0 0 1 143.57 327.62
  Z
  M 187.42 335.94
  Q 188.10 338.06 188.63 342.94
  C 188.92 345.57 189.81 347.39 192.96 347.42
  Q 197.90 347.46 200.60 347.13
  A 3.29 3.28 -86.2 0 0 203.38 344.69
  Q 203.83 342.93 203.32 340.46
  Q 198.57 317.23 194.68 294.81
  Q 193.75 289.47 188.53 289.50
  Q 179.15 289.56 178.70 289.53
  C 174.90 289.28 172.10 290.60 171.44 294.49
  Q 167.54 317.48 162.98 340.49
  Q 162.43 343.24 163.09 345.21
  A 3.13 3.12 -9.4 0 0 166.05 347.33
  L 173.44 347.33
  A 2.96 2.96 0.0 0 0 176.33 345.02
  L 178.16 336.80
  A 2.03 2.03 0.0 0 1 180.14 335.21
  L 186.42 335.21
  A 1.05 1.04 -8.7 0 1 187.42 335.94
  Z
  M 205.74 293.96
  L 205.82 343.04
  A 4.41 4.41 0.0 0 0 210.24 347.44
  L 225.40 347.42
  A 19.35 17.77 89.9 0 0 243.14 328.04
  L 243.10 308.84
  A 19.35 17.77 89.9 0 0 225.30 289.52
  L 210.14 289.54
  A 4.41 4.41 0.0 0 0 205.74 293.96
  Z
  M 260.52 327.45
  Q 262.74 328.85 263.68 331.61
  Q 266.02 338.50 266.37 339.39
  Q 269.96 348.50 279.70 347.74
  Q 281.66 347.59 282.65 346.24
  A 1.70 1.69 -26.4 0 0 282.96 345.33
  Q 283.21 339.40 282.94 335.29
  C 282.71 331.79 280.17 332.27 277.68 332.63
  A 2.27 2.26 68.7 0 1 275.47 331.65
  Q 273.22 328.28 273.84 324.31
  A 1.72 1.70 -8.5 0 1 274.79 323.04
  Q 281.11 319.98 281.98 313.28
  C 282.46 309.60 282.37 304.24 281.28 300.23
  C 278.69 290.76 271.90 289.29 262.55 289.49
  Q 258.19 289.58 250.77 289.57
  Q 245.85 289.56 245.85 293.95
  Q 245.86 334.26 245.80 340.25
  Q 245.77 343.24 246.25 345.41
  A 2.42 2.41 -5.0 0 0 248.51 347.30
  Q 251.73 347.43 254.98 347.33
  C 257.73 347.25 259.56 346.17 259.66 343.42
  Q 259.78 340.02 259.72 327.90
  A 0.52 0.52 0.0 0 1 260.52 327.45
  Z
  M 314.18 335.75
  C 311.81 334.47 308.09 334.98 302.80 335.09
  Q 299.53 335.15 299.29 332.41
  Q 299.05 329.56 299.27 324.73
  A 1.82 1.82 0.0 0 1 301.14 322.99
  Q 308.85 323.17 310.22 323.15
  Q 312.98 323.09 313.66 322.03
  A 1.92 1.85 64.7 0 0 313.95 321.17
  Q 314.17 318.77 313.98 314.77
  C 313.87 312.44 312.73 311.44 310.28 311.53
  Q 303.94 311.77 301.67 311.56
  A 2.65 2.65 0.0 0 1 299.27 308.92
  L 299.27 303.08
  A 1.42 1.41 63.8 0 1 299.56 302.22
  Q 300.51 300.93 302.45 300.88
  Q 304.20 300.84 313.31 300.96
  A 1.52 1.52 0.0 0 0 314.85 299.44
  L 314.85 291.82
  A 2.16 2.16 0.0 0 0 312.74 289.66
  Q 303.59 289.47 289.76 289.57
  Q 285.31 289.61 285.32 294.48
  Q 285.36 322.56 285.32 340.35
  C 285.31 344.17 285.85 347.30 290.16 347.37
  Q 293.30 347.42 313.01 347.34
  A 1.73 1.72 -0.0 0 0 314.74 345.62
  L 314.74 336.68
  A 1.06 1.05 14.2 0 0 314.18 335.75
  Z
  M 117.1598 307.1048
  A 11.76 11.76 0.0 0 0 105.4204 295.3243
  L 100.5204 295.3158
  A 11.76 11.76 0.0 0 0 88.7399 307.0552
  L 88.7002 329.7952
  A 11.76 11.76 0.0 0 0 100.4396 341.5757
  L 105.3396 341.5842
  A 11.76 11.76 0.0 0 0 117.1201 329.8448
  L 117.1598 307.1048
  Z
  M 57.16 298.90
  L 57.22 338.08
  A 3.37 3.37 0.0 0 0 60.60 341.44
  L 72.38 341.42
  A 15.04 14.35 89.9 0 0 86.70 326.35
  L 86.68 310.51
  A 15.04 14.35 89.9 0 0 72.30 295.50
  L 60.52 295.52
  A 3.37 3.37 0.0 0 0 57.16 298.90
  Z
  M 286.0982 362.9317
  A 2.53 1.18 -43.4 0 0 283.4492 363.8126
  A 2.53 1.18 -43.4 0 0 282.4218 366.4083
  A 2.53 1.18 -43.4 0 0 285.0708 365.5274
  A 2.53 1.18 -43.4 0 0 286.0982 362.9317
  Z
  M 178.75 378.88
  A 1.49 1.49 0.0 0 0 179.99 380.35
  C 182.08 380.71 185.31 381.08 186.62 378.82
  C 188.97 374.76 185.24 373.53 182.25 372.20
  A 1.19 1.19 0.0 0 1 182.42 369.96
  Q 183.84 369.59 185.60 370.25
  A 0.86 0.86 0.0 0 0 186.76 369.55
  L 186.79 369.30
  A 1.39 1.39 0.0 0 0 185.93 367.83
  C 182.82 366.58 178.48 367.56 178.78 371.63
  C 178.95 373.99 181.69 374.86 183.94 375.84
  A 1.04 1.04 0.0 0 1 183.84 377.78
  Q 181.99 378.37 179.85 377.53
  A 0.81 0.81 0.0 0 0 178.75 378.28
  L 178.75 378.88
  Z
  M 188.04 378.85
  A 1.49 1.48 -85.9 0 0 189.29 380.30
  C 191.38 380.63 194.60 380.96 195.88 378.70
  C 198.17 374.63 194.44 373.45 191.45 372.16
  A 1.19 1.18 48.8 0 1 191.59 369.92
  Q 193.00 369.54 194.76 370.18
  A 0.86 0.85 13.1 0 0 195.91 369.47
  L 195.94 369.22
  A 1.38 1.38 0.0 0 0 195.06 367.76
  C 191.95 366.55 187.64 367.58 187.99 371.63
  C 188.18 373.98 190.92 374.81 193.17 375.76
  A 1.03 1.03 0.0 0 1 193.10 377.69
  Q 191.26 378.30 189.12 377.49
  A 0.80 0.80 0.0 0 0 188.03 378.25
  L 188.04 378.85
  Z
  M 81.99 368.76
  L 81.99 379.37
  A 1.08 1.08 0.0 0 0 83.07 380.44
  L 83.81 380.44
  A 1.00 1.00 0.0 0 0 84.81 379.45
  L 84.81 376.66
  A 0.75 0.75 0.0 0 1 85.45 375.93
  C 88.80 375.45 90.94 375.54 90.91 370.91
  A 3.27 3.26 89.8 0 0 87.65 367.66
  L 83.10 367.66
  A 1.11 1.10 -0.0 0 0 81.99 368.76
  Z
  M 104.68 373.95
  A 6.61 6.61 0.0 0 0 98.07 367.34
  A 6.61 6.61 0.0 0 0 91.46 373.95
  A 6.61 6.61 0.0 0 0 98.07 380.56
  A 6.61 6.61 0.0 0 0 104.68 373.95
  Z
  M 108.78 373.75
  A 0.32 0.31 -67.6 0 1 109.32 373.52
  L 115.97 380.16
  A 0.39 0.39 0.0 0 0 116.63 379.89
  L 116.63 369.51
  A 1.38 1.36 -67.7 0 0 116.23 368.54
  L 115.41 367.72
  A 0.92 0.92 0.0 0 0 113.84 368.37
  L 113.84 373.98
  A 0.36 0.36 0.0 0 1 113.23 374.24
  L 106.73 367.74
  A 0.42 0.42 0.0 0 0 106.01 368.03
  L 106.01 379.44
  A 1.03 1.03 0.0 0 0 107.04 380.47
  L 107.46 380.47
  A 1.32 1.32 0.0 0 0 108.78 379.15
  L 108.78 373.75
  Z
  M 122.27 380.46
  Q 123.28 380.46 123.53 380.05
  A 1.19 1.18 61.3 0 0 123.71 379.42
  L 123.72 370.50
  A 0.59 0.59 0.0 0 1 124.31 369.91
  L 126.34 369.91
  A 0.97 0.97 0.0 0 0 127.31 368.94
  L 127.31 368.59
  A 0.99 0.98 0.4 0 0 126.33 367.61
  Q 124.39 367.58 122.33 367.60
  Q 120.26 367.56 118.32 367.57
  A 0.99 0.98 0.1 0 0 117.33 368.55
  L 117.33 368.90
  A 0.97 0.97 0.0 0 0 118.29 369.87
  L 120.32 369.89
  A 0.59 0.59 0.0 0 1 120.91 370.49
  L 120.84 379.41
  A 1.19 1.18 -60.8 0 0 121.01 380.04
  Q 121.25 380.45 122.27 380.46
  Z
  M 151.38 374.23
  A 0.91 0.91 0.0 0 0 150.47 375.14
  L 150.47 377.27
  A 0.66 0.65 -2.9 0 1 149.88 377.92
  C 146.12 378.32 143.35 375.25 145.33 371.92
  C 146.93 369.20 149.29 369.86 152.11 370.48
  A 0.73 0.72 -83.7 0 0 152.99 369.77
  L 152.99 369.42
  A 1.68 1.67 7.1 0 0 151.72 367.80
  C 138.10 364.37 139.47 384.61 152.42 379.89
  A 0.80 0.80 0.0 0 0 152.95 379.14
  L 152.95 375.08
  A 0.86 0.85 0.0 0 0 152.09 374.23
  L 151.38 374.23
  Z
  M 154.83 368.17
  L 154.83 379.51
  A 0.91 0.91 0.0 0 0 155.74 380.42
  L 156.50 380.42
  A 1.07 1.07 0.0 0 0 157.57 379.35
  L 157.57 376.52
  A 0.98 0.98 0.0 0 1 159.43 376.10
  L 160.92 379.25
  A 2.30 2.29 81.7 0 0 162.62 380.52
  L 163.24 380.63
  A 0.70 0.70 0.0 0 0 163.98 379.64
  L 162.19 375.90
  A 0.67 0.67 0.0 0 1 162.27 375.21
  L 163.62 373.47
  A 0.84 0.73 -22.5 0 0 163.76 373.19
  Q 164.83 369.65 161.77 367.93
  A 1.53 1.43 -27.2 0 0 161.14 367.75
  L 155.50 367.53
  A 0.64 0.64 0.0 0 0 154.83 368.17
  Z
  M 178.06 373.95
  A 6.59 6.59 0.0 0 0 171.47 367.36
  A 6.59 6.59 0.0 0 0 164.88 373.95
  A 6.59 6.59 0.0 0 0 171.47 380.54
  A 6.59 6.59 0.0 0 0 178.06 373.95
  Z
  M 222.89 368.76
  L 222.89 379.40
  A 1.08 1.08 0.0 0 0 223.97 380.48
  L 224.72 380.48
  A 1.00 1.00 0.0 0 0 225.72 379.48
  L 225.72 376.69
  A 0.76 0.75 -4.5 0 1 226.36 375.95
  C 229.72 375.47 231.87 375.56 231.84 370.92
  A 3.28 3.27 89.8 0 0 228.57 367.66
  L 224.00 367.66
  A 1.11 1.10 0.0 0 0 222.89 368.76
  Z
  M 250.74 375.29
  Q 252.75 373.40 252.80 372.53
  C 253.13 366.97 248.06 367.58 243.96 367.57
  A 0.72 0.71 89.2 0 0 243.25 368.31
  L 243.62 379.43
  A 1.22 1.22 0.0 0 0 246.01 379.71
  Q 246.27 378.87 246.00 376.71
  A 1.09 1.09 0.0 0 1 248.07 376.10
  L 249.85 379.85
  A 0.91 0.91 0.0 0 0 250.67 380.36
  L 255.31 380.36
  A 0.95 0.94 -76.9 0 0 256.16 379.82
  L 256.77 378.50
  A 0.85 0.85 0.0 0 1 257.54 378.01
  L 261.07 378.01
  A 0.82 0.82 0.0 0 1 261.85 378.58
  Q 262.62 381.04 264.84 380.36
  A 0.56 0.56 0.0 0 0 265.18 379.59
  L 259.68 368.06
  A 0.44 0.44 0.0 0 0 258.88 368.06
  L 253.66 379.24
  A 0.76 0.76 0.0 0 1 252.25 379.16
  Q 251.65 377.36 250.68 376.15
  A 0.63 0.63 0.0 0 1 250.74 375.29
  Z
  M 270.51 374.71
  Q 273.16 377.53 276.10 380.10
  A 0.31 0.31 0.0 0 0 276.62 379.87
  L 276.62 368.74
  A 1.29 1.28 0.0 0 0 275.33 367.46
  L 274.94 367.46
  A 1.08 1.08 0.0 0 0 273.86 368.54
  L 273.86 374.00
  A 0.33 0.32 -71.3 0 1 273.34 374.26
  Q 272.91 373.93 272.14 373.11
  Q 269.49 370.29 266.55 367.72
  A 0.31 0.31 0.0 0 0 266.03 367.95
  L 266.03 379.08
  A 1.29 1.28 -0.0 0 0 267.32 380.36
  L 267.71 380.36
  A 1.08 1.08 0.0 0 0 268.79 379.28
  L 268.79 373.82
  A 0.33 0.32 -71.3 0 1 269.31 373.56
  Q 269.74 373.89 270.51 374.71
  Z
  M 131.57 378.08
  Q 132.40 378.08 133.22 378.12
  A 1.18 1.17 -11.2 0 1 134.23 378.79
  L 134.69 379.73
  A 1.33 1.33 0.0 0 0 135.89 380.49
  L 136.96 380.49
  A 0.59 0.59 0.0 0 0 137.50 379.65
  Q 134.17 372.70 132.07 368.14
  Q 132.02 368.03 131.87 367.96
  Q 131.73 367.89 131.59 367.89
  Q 131.43 367.89 131.30 367.96
  Q 131.14 368.03 131.09 368.14
  Q 128.98 372.69 125.63 379.63
  A 0.59 0.59 0.0 0 0 126.17 380.47
  L 127.24 380.48
  A 1.33 1.33 0.0 0 0 128.44 379.72
  L 128.90 378.78
  A 1.18 1.17 11.3 0 1 129.91 378.11
  Q 130.73 378.08 131.57 378.08
  Z
  M 236.60 378.06
  Q 237.43 378.07 238.24 378.10
  A 1.17 1.16 -11.1 0 1 239.24 378.77
  L 239.70 379.70
  A 1.32 1.32 0.0 0 0 240.89 380.46
  L 241.95 380.46
  A 0.59 0.58 -12.5 0 0 242.49 379.63
  Q 239.19 372.73 237.12 368.20
  Q 237.07 368.09 236.91 368.02
  Q 236.78 367.95 236.64 367.95
  Q 236.48 367.95 236.35 368.02
  Q 236.20 368.09 236.15 368.20
  Q 234.04 372.71 230.71 379.59
  A 0.59 0.58 12.9 0 0 231.24 380.43
  L 232.30 380.43
  A 1.32 1.32 0.0 0 0 233.49 379.69
  L 233.96 378.76
  A 1.17 1.16 11.4 0 1 234.96 378.09
  Q 235.77 378.06 236.60 378.06
  Z
  M 202.54 378.10
  Q 203.37 378.09 204.19 378.12
  A 1.17 1.17 0.0 0 1 205.20 378.78
  L 205.67 379.72
  A 1.33 1.32 76.9 0 0 206.87 380.47
  L 207.94 380.46
  A 0.59 0.59 0.0 0 0 208.47 379.62
  Q 205.09 372.71 202.96 368.17
  Q 202.91 368.06 202.76 367.99
  Q 202.63 367.93 202.47 367.93
  Q 202.32 367.93 202.19 368.00
  Q 202.04 368.07 201.99 368.18
  Q 199.92 372.74 196.62 379.69
  A 0.59 0.59 0.0 0 0 197.17 380.52
  L 198.23 380.52
  A 1.33 1.32 -77.6 0 0 199.43 379.76
  L 199.88 378.82
  A 1.17 1.17 0.0 0 1 200.89 378.14
  Q 201.70 378.10 202.54 378.10
  Z
  M 283.37 377.94
  Q 284.19 377.94 285.00 377.97
  A 1.16 1.16 0.0 0 1 286.00 378.63
  L 286.46 379.56
  A 1.31 1.31 0.0 0 0 287.65 380.31
  L 288.71 380.30
  A 0.59 0.58 -12.8 0 0 289.24 379.47
  Q 285.92 372.61 283.83 368.11
  Q 283.78 368.00 283.62 367.93
  Q 283.49 367.86 283.35 367.86
  Q 283.19 367.86 283.06 367.93
  Q 282.91 368.00 282.86 368.11
  Q 280.79 372.62 277.50 379.49
  A 0.59 0.58 12.6 0 0 278.03 380.33
  L 279.09 380.32
  A 1.31 1.31 0.0 0 0 280.28 379.57
  L 280.73 378.64
  A 1.16 1.16 0.0 0 1 281.73 377.98
  Q 282.54 377.94 283.37 377.94
  Z
  M 217.06 373.94
  A 1.99 1.99 0.0 0 0 215.07 371.95
  A 1.99 1.99 0.0 0 0 213.08 373.94
  A 1.99 1.99 0.0 0 0 215.07 375.93
  A 1.99 1.99 0.0 0 0 217.06 373.94
  Z"
/>
<path fill="#8c4227" d="
  M 241.40 176.12
  L 235.39 183.86
  A 2.95 2.73 -4.2 0 1 234.98 184.30
  Q 233.71 185.42 226.69 190.98
  Q 222.28 194.48 218.24 196.31
  Q 201.36 204.01 187.75 206.08
  Q 174.32 208.13 160.81 202.66
  Q 145.78 196.58 141.97 194.78
  Q 138.48 193.13 135.14 187.88
  C 131.44 182.07 127.95 177.51 125.22 172.56
  C 122.53 167.68 117.77 162.27 115.26 157.28
  Q 109.66 146.16 106.22 134.35
  C 104.58 128.73 103.82 123.05 102.38 116.10
  A 14.70 14.21 39.1 0 1 102.07 113.54
  Q 101.78 105.07 99.33 99.14
  C 95.80 90.62 94.49 86.10 91.98 80.15
  C 87.28 68.98 89.39 53.42 93.91 42.65
  A 6.41 5.94 -17.6 0 1 94.66 41.33
  Q 98.08 36.69 102.89 33.04
  Q 106.99 29.93 109.63 27.48
  Q 111.34 25.90 120.17 19.42
  Q 123.37 17.07 125.40 16.43
  Q 141.73 11.23 154.27 11.28
  Q 168.28 11.34 174.00 12.01
  C 176.49 12.30 179.28 13.40 181.46 14.92
  Q 189.89 20.79 195.28 25.63
  C 198.54 28.56 201.81 32.73 205.34 35.92
  Q 206.88 37.31 208.96 39.98
  C 218.41 52.16 224.47 59.24 229.06 71.75
  Q 232.19 80.27 233.74 83.86
  Q 237.68 92.99 238.59 95.82
  Q 245.65 117.53 246.73 138.47
  Q 247.04 144.51 247.37 147.53
  C 248.08 154.12 247.37 160.75 245.30 166.96
  Q 243.88 171.20 243.48 172.47
  A 15.04 14.90 -15.6 0 1 241.40 176.12
  Z
  M 175.33 194.93
  Q 174.70 195.04 174.55 195.12
  A 0.48 0.48 0.0 0 0 174.74 196.02
  Q 187.24 197.04 199.06 192.92
  A 0.74 0.72 74.2 0 0 199.53 192.06
  Q 199.51 191.97 198.93 191.84
  Q 210.89 187.28 217.98 179.25
  Q 220.75 176.11 224.60 168.02
  C 226.59 163.86 227.76 155.61 228.18 152.26
  Q 229.34 143.16 229.10 127.76
  C 228.94 118.46 225.56 109.00 221.75 101.34
  Q 219.40 96.61 218.31 93.77
  C 216.75 89.72 213.84 85.21 211.76 80.42
  C 209.38 74.96 208.04 70.69 205.17 65.44
  Q 200.52 56.94 194.15 48.73
  Q 192.17 46.19 190.35 44.76
  Q 186.67 41.86 185.76 41.68
  Q 178.07 40.09 172.09 44.64
  A 0.45 0.45 0.0 0 1 171.43 44.51
  Q 167.06 36.99 161.86 30.44
  C 159.49 27.46 152.87 27.61 149.64 28.40
  Q 143.19 29.98 144.58 36.56
  A 0.37 0.37 0.0 0 1 143.92 36.85
  C 141.73 33.80 135.41 26.79 131.28 26.46
  C 126.89 26.10 122.91 30.95 120.20 34.17
  Q 118.40 36.33 118.79 38.01
  C 120.26 44.28 123.89 48.36 126.85 53.45
  A 0.26 0.26 0.0 0 1 126.43 53.76
  C 123.52 50.57 118.69 44.95 114.03 49.16
  Q 111.21 51.71 110.51 55.90
  C 110.02 58.80 112.17 64.70 113.37 66.87
  Q 127.60 92.49 130.15 97.37
  Q 137.31 111.07 144.56 128.75
  A 0.23 0.22 66.5 0 1 144.45 129.04
  L 144.42 129.05
  A 0.23 0.23 0.0 0 1 144.11 128.94
  Q 140.74 121.90 135.11 114.69
  C 126.94 104.23 116.28 118.56 117.90 127.30
  Q 118.41 130.06 119.26 131.74
  Q 126.67 146.33 134.89 163.03
  Q 136.86 167.03 138.25 170.25
  C 141.55 177.96 147.28 186.32 155.02 189.50
  Q 163.94 193.16 175.33 194.93
  Z"
/>
<path fill="#ffffff" d="
  M 198.93 191.84
  Q 187.35 195.95 175.33 194.93
  Q 163.94 193.16 155.02 189.50
  C 147.28 186.32 141.55 177.96 138.25 170.25
  Q 136.86 167.03 134.89 163.03
  Q 126.67 146.33 119.26 131.74
  Q 118.41 130.06 117.90 127.30
  C 116.28 118.56 126.94 104.23 135.11 114.69
  Q 140.74 121.90 144.11 128.94
  A 0.23 0.23 0.0 0 0 144.42 129.05
  L 144.45 129.04
  A 0.23 0.22 66.5 0 0 144.56 128.75
  Q 137.31 111.07 130.15 97.37
  Q 127.60 92.49 113.37 66.87
  C 112.17 64.70 110.02 58.80 110.51 55.90
  Q 111.21 51.71 114.03 49.16
  C 118.69 44.95 123.52 50.57 126.43 53.76
  A 0.26 0.26 0.0 0 0 126.85 53.45
  C 123.89 48.36 120.26 44.28 118.79 38.01
  Q 118.40 36.33 120.20 34.17
  C 122.91 30.95 126.89 26.10 131.28 26.46
  C 135.41 26.79 141.73 33.80 143.92 36.85
  A 0.37 0.37 0.0 0 0 144.58 36.56
  Q 143.19 29.98 149.64 28.40
  C 152.87 27.61 159.49 27.46 161.86 30.44
  Q 167.06 36.99 171.43 44.51
  A 0.45 0.45 0.0 0 0 172.09 44.64
  Q 178.07 40.09 185.76 41.68
  Q 186.67 41.86 190.35 44.76
  Q 192.17 46.19 194.15 48.73
  Q 200.52 56.94 205.17 65.44
  C 208.04 70.69 209.38 74.96 211.76 80.42
  C 213.84 85.21 216.75 89.72 218.31 93.77
  Q 219.40 96.61 221.75 101.34
  C 225.56 109.00 228.94 118.46 229.10 127.76
  Q 229.34 143.16 228.18 152.26
  C 227.76 155.61 226.59 163.86 224.60 168.02
  Q 220.75 176.11 217.98 179.25
  Q 210.89 187.28 198.93 191.84
  Z
  M 156.12 150.26
  Q 161.29 162.95 172.49 169.76
  A 6.18 6.11 -27.6 0 0 175.36 170.64
  Q 177.66 170.75 179.28 170.69
  C 181.58 170.60 184.75 171.78 187.26 171.34
  Q 191.80 170.55 196.19 166.97
  Q 199.17 165.94 201.44 162.43
  Q 204.71 157.38 207.12 151.86
  Q 208.12 149.58 208.04 146.56
  Q 209.89 134.96 209.27 131.24
  C 207.97 123.43 204.77 116.15 198.58 110.75
  C 192.58 105.52 182.29 107.94 176.24 111.75
  Q 172.80 113.90 169.15 118.04
  C 166.33 121.23 165.84 123.70 164.83 128.10
  Q 161.48 142.61 171.80 152.50
  A 3.23 3.07 80.1 0 0 172.46 152.99
  Q 176.88 155.49 179.38 155.84
  C 188.00 157.07 193.87 149.16 195.18 141.50
  C 196.44 134.11 196.11 127.29 189.39 123.15
  A 2.22 2.17 -29.2 0 0 188.21 122.83
  C 181.90 122.92 177.17 126.42 176.30 132.62
  C 175.76 136.46 177.60 140.29 182.03 137.57
  C 185.56 135.41 183.57 132.03 186.63 130.68
  C 189.44 129.45 190.94 131.40 190.80 134.01
  Q 190.57 138.41 187.20 141.35
  C 183.87 144.25 180.34 146.74 176.41 145.12
  C 173.25 143.83 170.26 142.26 169.69 138.75
  Q 168.20 129.42 173.29 122.79
  C 178.21 116.39 185.71 113.46 193.25 117.20
  C 198.81 119.97 202.37 126.67 202.68 132.61
  Q 202.79 134.69 202.32 141.74
  Q 201.09 146.74 198.57 151.13
  Q 194.12 158.33 186.87 160.83
  Q 179.15 163.48 171.80 160.13
  Q 164.53 156.81 160.35 148.50
  L 157.90 141.14
  C 156.82 128.80 161.01 115.11 171.89 108.15
  Q 178.14 104.15 182.68 102.38
  Q 187.94 100.34 197.04 102.27
  C 203.95 103.74 210.32 112.16 212.79 118.17
  Q 216.50 127.19 215.38 139.23
  Q 214.49 148.73 213.73 151.24
  Q 210.10 163.15 204.10 168.79
  Q 199.40 173.22 190.42 177.25
  A 5.89 5.79 -61.1 0 1 189.01 177.67
  Q 178.73 179.31 169.51 175.23
  C 160.25 170.58 156.58 163.60 151.22 155.06
  C 147.71 149.46 145.33 143.76 142.15 137.18
  C 138.77 130.16 134.59 124.10 130.10 117.67
  A 1.57 1.56 -33.1 0 0 128.00 117.23
  C 123.90 119.72 122.03 124.30 124.16 128.72
  C 125.45 131.38 126.57 134.41 128.15 137.19
  Q 135.63 150.34 141.77 164.68
  C 143.44 168.58 145.18 170.80 147.68 174.76
  Q 150.07 178.52 153.36 181.01
  Q 161.04 186.82 171.25 188.16
  Q 189.84 191.80 205.58 181.40
  Q 211.99 177.69 215.56 170.79
  C 218.28 165.53 220.36 161.81 220.66 156.63
  Q 220.76 154.98 221.81 150.08
  Q 222.34 147.61 222.52 143.49
  Q 222.72 138.93 222.85 135.00
  Q 223.21 124.42 220.14 115.30
  C 218.72 111.09 216.65 107.41 215.42 103.86
  C 212.96 96.80 209.11 90.32 206.16 82.91
  Q 200.17 67.87 190.31 54.41
  Q 187.35 50.37 184.60 48.11
  Q 181.96 45.95 178.21 47.71
  A 1.17 1.16 -15.3 0 0 177.54 48.88
  Q 177.82 51.72 178.89 54.08
  Q 180.63 57.88 189.97 79.52
  Q 191.28 82.56 193.50 90.78
  A 3.29 3.28 -18.7 0 1 191.57 94.67
  L 191.42 94.73
  A 2.74 2.74 0.0 0 1 187.77 93.00
  C 184.71 83.19 180.18 71.54 174.36 61.65
  Q 172.47 58.44 167.16 48.84
  Q 164.78 44.55 158.61 36.20
  A 4.78 4.78 0.0 0 0 153.15 34.56
  L 152.96 34.63
  A 3.05 3.05 0.0 0 0 151.31 38.94
  Q 155.40 46.55 157.99 52.51
  Q 162.09 61.93 163.94 65.73
  Q 169.19 76.51 174.22 92.10
  A 1.69 1.63 -45.5 0 1 174.21 93.15
  C 173.36 95.73 169.67 98.45 168.28 94.20
  Q 164.23 81.80 159.70 71.89
  C 157.94 68.06 155.39 64.19 153.41 60.71
  Q 151.09 56.64 148.06 52.70
  Q 141.82 44.56 135.37 36.13
  Q 134.06 34.44 132.08 33.49
  A 1.22 1.20 -54.6 0 0 130.70 33.73
  L 125.57 38.85
  A 1.23 1.22 -35.3 0 0 125.33 40.23
  Q 127.98 45.96 131.96 51.50
  Q 135.69 56.68 142.74 70.30
  Q 144.92 74.51 153.06 91.01
  Q 157.30 99.61 158.96 105.67
  A 2.82 2.82 0.0 0 1 156.95 109.14
  L 156.86 109.17
  A 3.03 3.02 73.7 0 1 153.21 107.17
  Q 148.17 91.51 140.93 81.60
  C 133.61 71.59 127.06 62.47 118.69 54.44
  A 1.01 1.01 0.0 0 0 117.18 54.56
  C 114.43 58.22 117.20 63.50 119.26 66.84
  Q 126.38 78.38 134.18 92.58
  Q 143.94 110.36 150.51 130.30
  Q 151.49 133.27 153.17 140.30
  Q 154.43 145.54 156.12 150.26
  Z"
/>
<path fill="#8c4227" d="
  M 205.58 181.40
  Q 204.19 181.57 200.60 183.57
  Q 199.85 183.99 194.53 185.90
  Q 191.39 187.03 188.23 187.39
  Q 182.04 188.08 179.47 188.29
  A 6.20 6.14 -40.9 0 1 177.69 188.17
  Q 174.17 187.38 171.25 188.16
  Q 161.04 186.82 153.36 181.01
  Q 150.07 178.52 147.68 174.76
  C 145.18 170.80 143.44 168.58 141.77 164.68
  Q 135.63 150.34 128.15 137.19
  C 126.57 134.41 125.45 131.38 124.16 128.72
  C 122.03 124.30 123.90 119.72 128.00 117.23
  A 1.57 1.56 -33.1 0 1 130.10 117.67
  C 134.59 124.10 138.77 130.16 142.15 137.18
  C 145.33 143.76 147.71 149.46 151.22 155.06
  C 156.58 163.60 160.25 170.58 169.51 175.23
  Q 169.19 175.12 169.13 175.54
  A 0.38 0.38 0.0 0 0 169.33 175.92
  Q 174.94 178.75 180.82 178.73
  A 8.40 7.79 35.3 0 1 181.98 178.81
  Q 186.97 179.54 190.64 178.05
  Q 197.00 175.46 203.37 170.66
  Q 209.10 166.34 212.45 157.80
  Q 212.75 157.02 213.77 154.97
  A 4.23 4.07 66.5 0 0 214.13 154.00
  Q 216.92 143.14 216.73 131.00
  Q 216.69 128.89 213.94 117.42
  A 3.67 3.64 23.0 0 0 213.53 116.42
  Q 209.03 108.90 202.82 104.15
  C 198.28 100.67 190.71 100.17 185.34 100.93
  Q 182.85 101.29 179.78 102.78
  Q 172.76 106.18 167.55 110.56
  C 160.94 116.10 157.75 125.95 156.69 134.50
  Q 156.20 138.40 157.90 141.14
  L 160.35 148.50
  Q 162.32 155.13 167.89 158.83
  Q 171.32 161.10 175.72 162.33
  C 183.54 164.53 193.14 160.04 197.57 153.87
  Q 197.81 153.54 198.69 152.41
  Q 199.87 150.90 198.57 151.13
  Q 201.09 146.74 202.32 141.74
  Q 205.49 131.74 200.53 123.23
  Q 197.42 117.88 191.24 115.61
  Q 186.52 113.87 181.96 115.59
  C 172.99 118.95 168.06 127.10 168.59 136.65
  C 168.87 141.60 171.29 143.16 175.54 145.52
  C 180.03 147.99 182.64 145.45 186.59 142.74
  C 189.89 140.47 190.80 138.20 191.35 134.48
  Q 191.77 131.59 189.46 129.87
  A 1.58 1.55 64.0 0 0 188.59 129.56
  Q 185.95 129.45 184.41 131.47
  C 183.39 132.80 184.05 134.98 182.74 136.26
  C 180.27 138.69 176.85 138.33 176.92 134.30
  Q 177.03 127.81 182.83 124.62
  A 0.32 0.31 -64.7 0 1 182.96 124.57
  L 187.50 123.41
  A 1.02 1.00 45.5 0 1 188.04 123.42
  C 190.78 124.28 192.07 126.58 194.05 129.26
  A 2.26 2.24 22.1 0 1 194.47 130.24
  C 195.78 137.73 194.90 146.51 189.06 151.98
  C 185.62 155.20 182.03 155.77 177.65 154.42
  Q 171.64 152.58 168.41 147.28
  Q 165.21 142.03 164.72 138.46
  Q 164.22 134.90 165.00 131.11
  C 165.80 127.23 166.33 122.68 168.44 120.19
  C 170.86 117.33 172.53 115.18 175.37 113.15
  C 180.94 109.16 191.70 105.77 197.58 110.94
  Q 206.00 118.33 208.12 129.65
  Q 209.03 134.46 208.29 137.78
  Q 207.21 142.67 208.04 146.56
  Q 208.12 149.58 207.12 151.86
  Q 204.71 157.38 201.44 162.43
  Q 199.17 165.94 196.19 166.97
  Q 190.65 169.92 185.38 170.58
  A 4.63 4.58 48.5 0 1 183.58 170.46
  Q 179.59 169.37 175.50 169.68
  A 4.09 4.06 57.0 0 1 173.24 169.19
  Q 167.00 165.73 163.75 161.50
  Q 161.58 158.66 156.12 150.26
  Q 154.43 145.54 153.17 140.30
  Q 151.49 133.27 150.51 130.30
  Q 143.94 110.36 134.18 92.58
  Q 126.38 78.38 119.26 66.84
  C 117.20 63.50 114.43 58.22 117.18 54.56
  A 1.01 1.01 0.0 0 1 118.69 54.44
  C 127.06 62.47 133.61 71.59 140.93 81.60
  Q 148.17 91.51 153.21 107.17
  A 3.03 3.02 73.7 0 0 156.86 109.17
  L 156.95 109.14
  A 2.82 2.82 0.0 0 0 158.96 105.67
  Q 157.30 99.61 153.06 91.01
  Q 144.92 74.51 142.74 70.30
  Q 135.69 56.68 131.96 51.50
  Q 127.98 45.96 125.33 40.23
  A 1.23 1.22 -35.3 0 1 125.57 38.85
  L 130.70 33.73
  A 1.22 1.20 -54.6 0 1 132.08 33.49
  Q 134.06 34.44 135.37 36.13
  Q 141.82 44.56 148.06 52.70
  Q 151.09 56.64 153.41 60.71
  C 155.39 64.19 157.94 68.06 159.70 71.89
  Q 164.23 81.80 168.28 94.20
  C 169.67 98.45 173.36 95.73 174.21 93.15
  A 1.69 1.63 -45.5 0 0 174.22 92.10
  Q 169.19 76.51 163.94 65.73
  Q 162.09 61.93 157.99 52.51
  Q 155.40 46.55 151.31 38.94
  A 3.05 3.05 0.0 0 1 152.96 34.63
  L 153.15 34.56
  A 4.78 4.78 0.0 0 1 158.61 36.20
  Q 164.78 44.55 167.16 48.84
  Q 172.47 58.44 174.36 61.65
  C 180.18 71.54 184.71 83.19 187.77 93.00
  A 2.74 2.74 0.0 0 0 191.42 94.73
  L 191.57 94.67
  A 3.29 3.28 -18.7 0 0 193.50 90.78
  Q 191.28 82.56 189.97 79.52
  Q 180.63 57.88 178.89 54.08
  Q 177.82 51.72 177.54 48.88
  A 1.17 1.16 -15.3 0 1 178.21 47.71
  Q 181.96 45.95 184.60 48.11
  Q 187.35 50.37 190.31 54.41
  Q 200.17 67.87 206.16 82.91
  C 209.11 90.32 212.96 96.80 215.42 103.86
  C 216.65 107.41 218.72 111.09 220.14 115.30
  Q 223.21 124.42 222.85 135.00
  Q 222.72 138.93 222.52 143.49
  Q 222.34 147.61 221.81 150.08
  Q 220.76 154.98 220.66 156.63
  C 220.36 161.81 218.28 165.53 215.56 170.79
  Q 211.99 177.69 205.58 181.40
  Z"
/>
<path fill="#3f1606" d="
  M 169.51 175.23
  Q 178.73 179.31 189.01 177.67
  A 5.89 5.79 -61.1 0 0 190.42 177.25
  Q 199.40 173.22 204.10 168.79
  Q 210.10 163.15 213.73 151.24
  Q 214.49 148.73 215.38 139.23
  Q 216.50 127.19 212.79 118.17
  C 210.32 112.16 203.95 103.74 197.04 102.27
  Q 187.94 100.34 182.68 102.38
  Q 178.14 104.15 171.89 108.15
  C 161.01 115.11 156.82 128.80 157.90 141.14
  Q 156.20 138.40 156.69 134.50
  C 157.75 125.95 160.94 116.10 167.55 110.56
  Q 172.76 106.18 179.78 102.78
  Q 182.85 101.29 185.34 100.93
  C 190.71 100.17 198.28 100.67 202.82 104.15
  Q 209.03 108.90 213.53 116.42
  A 3.67 3.64 23.0 0 1 213.94 117.42
  Q 216.69 128.89 216.73 131.00
  Q 216.92 143.14 214.13 154.00
  A 4.23 4.07 66.5 0 1 213.77 154.97
  Q 212.75 157.02 212.45 157.80
  Q 209.10 166.34 203.37 170.66
  Q 197.00 175.46 190.64 178.05
  Q 186.97 179.54 181.98 178.81
  A 8.40 7.79 35.3 0 0 180.82 178.73
  Q 174.94 178.75 169.33 175.92
  A 0.38 0.38 0.0 0 1 169.13 175.54
  Q 169.19 175.12 169.51 175.23
  Z"
/>
<path fill="#3f1606" d="
  M 208.04 146.56
  Q 207.21 142.67 208.29 137.78
  Q 209.03 134.46 208.12 129.65
  Q 206.00 118.33 197.58 110.94
  C 191.70 105.77 180.94 109.16 175.37 113.15
  C 172.53 115.18 170.86 117.33 168.44 120.19
  C 166.33 122.68 165.80 127.23 165.00 131.11
  Q 164.22 134.90 164.72 138.46
  Q 165.21 142.03 168.41 147.28
  Q 171.64 152.58 177.65 154.42
  C 182.03 155.77 185.62 155.20 189.06 151.98
  C 194.90 146.51 195.78 137.73 194.47 130.24
  A 2.26 2.24 22.1 0 0 194.05 129.26
  C 192.07 126.58 190.78 124.28 188.04 123.42
  A 1.02 1.00 45.5 0 0 187.50 123.41
  L 182.96 124.57
  A 0.32 0.31 -64.7 0 0 182.83 124.62
  Q 177.03 127.81 176.92 134.30
  C 176.85 138.33 180.27 138.69 182.74 136.26
  C 184.05 134.98 183.39 132.80 184.41 131.47
  Q 185.95 129.45 188.59 129.56
  A 1.58 1.55 64.0 0 1 189.46 129.87
  Q 191.77 131.59 191.35 134.48
  C 190.80 138.20 189.89 140.47 186.59 142.74
  C 182.64 145.45 180.03 147.99 175.54 145.52
  C 171.29 143.16 168.87 141.60 168.59 136.65
  C 168.06 127.10 172.99 118.95 181.96 115.59
  Q 186.52 113.87 191.24 115.61
  Q 197.42 117.88 200.53 123.23
  Q 205.49 131.74 202.32 141.74
  Q 202.79 134.69 202.68 132.61
  C 202.37 126.67 198.81 119.97 193.25 117.20
  C 185.71 113.46 178.21 116.39 173.29 122.79
  Q 168.20 129.42 169.69 138.75
  C 170.26 142.26 173.25 143.83 176.41 145.12
  C 180.34 146.74 183.87 144.25 187.20 141.35
  Q 190.57 138.41 190.80 134.01
  C 190.94 131.40 189.44 129.45 186.63 130.68
  C 183.57 132.03 185.56 135.41 182.03 137.57
  C 177.60 140.29 175.76 136.46 176.30 132.62
  C 177.17 126.42 181.90 122.92 188.21 122.83
  A 2.22 2.17 -29.2 0 1 189.39 123.15
  C 196.11 127.29 196.44 134.11 195.18 141.50
  C 193.87 149.16 188.00 157.07 179.38 155.84
  Q 176.88 155.49 172.46 152.99
  A 3.23 3.07 80.1 0 1 171.80 152.50
  Q 161.48 142.61 164.83 128.10
  C 165.84 123.70 166.33 121.23 169.15 118.04
  Q 172.80 113.90 176.24 111.75
  C 182.29 107.94 192.58 105.52 198.58 110.75
  C 204.77 116.15 207.97 123.43 209.27 131.24
  Q 209.89 134.96 208.04 146.56
  Z"
/>
<path fill="#3f1606" d="
  M 160.35 148.50
  Q 164.53 156.81 171.80 160.13
  Q 179.15 163.48 186.87 160.83
  Q 194.12 158.33 198.57 151.13
  Q 199.87 150.90 198.69 152.41
  Q 197.81 153.54 197.57 153.87
  C 193.14 160.04 183.54 164.53 175.72 162.33
  Q 171.32 161.10 167.89 158.83
  Q 162.32 155.13 160.35 148.50
  Z"
/>
<path fill="#3f1606" d="
  M 196.19 166.97
  Q 191.80 170.55 187.26 171.34
  C 184.75 171.78 181.58 170.60 179.28 170.69
  Q 177.66 170.75 175.36 170.64
  A 6.18 6.11 -27.6 0 1 172.49 169.76
  Q 161.29 162.95 156.12 150.26
  Q 161.58 158.66 163.75 161.50
  Q 167.00 165.73 173.24 169.19
  A 4.09 4.06 57.0 0 0 175.50 169.68
  Q 179.59 169.37 183.58 170.46
  A 4.63 4.58 48.5 0 0 185.38 170.58
  Q 190.65 169.92 196.19 166.97
  Z"
/>
<path fill="#3f1606" d="
  M 205.58 181.40
  Q 189.84 191.80 171.25 188.16
  Q 174.17 187.38 177.69 188.17
  A 6.20 6.14 -40.9 0 0 179.47 188.29
  Q 182.04 188.08 188.23 187.39
  Q 191.39 187.03 194.53 185.90
  Q 199.85 183.99 200.60 183.57
  Q 204.19 181.57 205.58 181.40
  Z"
/>
<path fill="#3f1606" d="
  M 198.93 191.84
  Q 199.51 191.97 199.53 192.06
  A 0.74 0.72 74.2 0 1 199.06 192.92
  Q 187.24 197.04 174.74 196.02
  A 0.48 0.48 0.0 0 1 174.55 195.12
  Q 174.70 195.04 175.33 194.93
  Q 187.35 195.95 198.93 191.84
  Z"
/>
<path fill="#027240" d="
  M 242.02 251.32
  C 242.02 255.57 242.42 267.61 249.20 267.10
  Q 250.58 267.00 252.31 267.10
  A 2.07 2.07 0.0 0 1 254.25 269.17
  L 254.25 275.79
  A 2.20 2.20 0.0 0 1 252.09 277.99
  C 234.96 278.34 228.59 266.68 228.58 251.33
  C 228.57 235.97 234.93 224.30 252.06 224.63
  A 2.20 2.20 0.0 0 1 254.22 226.83
  L 254.23 233.45
  A 2.07 2.07 0.0 0 1 252.29 235.52
  Q 250.56 235.62 249.18 235.52
  C 242.40 235.02 242.02 247.06 242.02 251.32
  Z"
/>
<path fill="#027240" d="
  M 289.9070 264.5685
  A 13.49 13.49 0.0 0 1 276.3935 278.0349
  L 270.7335 278.0250
  A 13.49 13.49 0.0 0 1 257.2671 264.5115
  L 257.3130 238.1915
  A 13.49 13.49 0.0 0 1 270.8265 224.7251
  L 276.4865 224.7350
  A 13.49 13.49 0.0 0 1 289.9529 238.2485
  L 289.9070 264.5685
  Z
  M 277.3027 238.3065
  A 3.21 3.21 0.0 0 0 274.0983 235.0909
  L 273.0983 235.0892
  A 3.21 3.21 0.0 0 0 269.8827 238.2935
  L 269.8373 264.3535
  A 3.21 3.21 0.0 0 0 273.0417 267.5691
  L 274.0417 267.5708
  A 3.21 3.21 0.0 0 0 277.2573 264.3665
  L 277.3027 238.3065
  Z"
/>
<path fill="#027240" d="
  M 109.42 249.33
  A 0.20 0.20 0.0 0 0 109.45 249.68
  Q 115.89 252.79 116.61 260.34
  C 117.29 267.56 113.78 277.66 105.05 277.70
  Q 88.41 277.75 85.60 277.58
  Q 82.16 277.37 82.16 273.49
  Q 82.16 261.04 82.16 229.48
  Q 82.16 224.97 86.49 225.03
  Q 93.19 225.12 97.82 225.00
  C 107.59 224.72 114.53 226.27 115.29 237.25
  Q 115.83 245.04 109.42 249.33
  Z
  M 101.9733 238.1594
  A 3.03 3.03 0.0 0 0 98.9012 235.1720
  L 97.6814 235.1890
  A 3.03 3.03 0.0 0 0 94.6940 238.2610
  L 94.7467 242.0406
  A 3.03 3.03 0.0 0 0 97.8188 245.0280
  L 99.0386 245.0110
  A 3.03 3.03 0.0 0 0 102.0260 241.9390
  L 101.9733 238.1594
  Z
  M 102.7661 258.0851
  A 3.51 3.51 0.0 0 0 99.2869 254.5446
  L 98.2869 254.5359
  A 3.51 3.51 0.0 0 0 94.7464 258.0151
  L 94.6939 264.0349
  A 3.51 3.51 0.0 0 0 98.1731 267.5754
  L 99.1731 267.5841
  A 3.51 3.51 0.0 0 0 102.7136 264.1049
  L 102.7661 258.0851
  Z"
/>
<path fill="#027240" d="
  M 135.24 267.61
  Q 136.38 267.61 137.24 267.34
  A 2.40 2.40 0.0 0 0 138.91 265.05
  Q 138.88 232.78 138.96 228.76
  C 139.04 224.11 145.33 224.81 148.19 225.14
  Q 151.54 225.53 151.56 229.04
  Q 151.68 250.21 151.63 262.25
  C 151.60 268.85 151.15 274.83 144.45 276.92
  Q 140.53 278.14 135.24 278.14
  Q 129.95 278.14 126.03 276.92
  C 119.33 274.83 118.88 268.85 118.85 262.25
  Q 118.80 250.21 118.92 229.04
  Q 118.94 225.53 122.29 225.14
  C 125.15 224.81 131.44 224.11 131.52 228.76
  Q 131.60 232.78 131.57 265.05
  A 2.40 2.40 0.0 0 0 133.24 267.34
  Q 134.10 267.61 135.24 267.61
  Z"
/>
<path fill="#027240" d="
  M 168.35 259.56
  A 0.48 0.48 0.0 0 0 167.62 259.97
  Q 167.68 271.01 167.57 274.11
  C 167.48 276.61 165.81 277.60 163.31 277.67
  Q 160.34 277.76 157.41 277.65
  A 2.21 2.20 -5.0 0 1 155.35 275.92
  Q 154.91 273.95 154.94 271.22
  Q 154.99 265.76 154.98 229.03
  Q 154.98 225.03 159.47 225.04
  Q 166.23 225.05 170.20 224.97
  C 178.72 224.79 184.91 226.13 187.27 234.75
  C 188.26 238.41 188.34 243.29 187.90 246.65
  Q 187.11 252.75 181.35 255.54
  A 1.57 1.55 -8.5 0 0 180.49 256.70
  Q 179.92 260.31 181.97 263.38
  A 2.07 2.06 68.7 0 0 183.99 264.28
  C 186.26 263.95 188.57 263.51 188.78 266.70
  Q 189.03 270.44 188.80 275.85
  A 1.55 1.54 -26.4 0 1 188.52 276.68
  Q 187.62 277.91 185.83 278.04
  Q 176.95 278.74 173.68 270.44
  Q 173.36 269.63 171.23 263.35
  Q 170.37 260.83 168.35 259.56
  Z
  M 167.57 236.90
  L 167.65 247.40
  A 1.73 1.73 0.0 0 0 169.39 249.11
  L 170.66 249.10
  A 4.96 4.30 89.6 0 0 174.92 244.11
  L 174.90 240.07
  A 4.96 4.30 89.6 0 0 170.56 235.14
  L 169.29 235.15
  A 1.73 1.73 0.0 0 0 167.57 236.90
  Z"
/>
<path fill="#027240" d="
  M 213.99 267.27
  A 0.96 0.95 -8.7 0 0 213.08 266.60
  L 207.37 266.61
  A 1.85 1.84 6.2 0 0 205.57 268.05
  L 203.90 275.54
  A 2.70 2.69 6.3 0 1 201.28 277.64
  L 194.55 277.64
  A 2.85 2.84 -9.4 0 1 191.85 275.71
  Q 191.25 273.92 191.75 271.42
  Q 195.90 250.47 199.44 229.55
  C 200.04 226.01 202.59 224.81 206.04 225.03
  Q 206.45 225.06 214.99 225.00
  Q 219.74 224.97 220.59 229.83
  Q 224.14 250.24 228.47 271.38
  Q 228.93 273.63 228.52 275.23
  A 2.99 2.98 -86.2 0 1 225.99 277.45
  Q 223.54 277.75 219.04 277.72
  C 216.17 277.69 215.36 276.03 215.10 273.64
  Q 214.61 269.20 213.99 267.27
  Z
  M 207.74 255.37
  L 212.12 255.37
  A 0.33 0.33 0.0 0 0 212.45 255.04
  L 212.45 254.91
  A 17.86 2.45 90.0 0 0 210.00 237.05
  L 209.86 237.05
  A 17.86 2.45 -90.0 0 0 207.41 254.91
  L 207.41 255.04
  A 0.33 0.33 0.0 0 0 207.74 255.37
  Z"
/>
<rect fill="#ffffff" x="-3.64" y="-4.92" transform="translate(98.36,240.10) rotate(-0.8)" width="7.28" height="9.84" rx="3.03"/>
<path fill="#ffffff" d="
  M 167.57 236.90
  A 1.73 1.73 0.0 0 1 169.29 235.15
  L 170.56 235.14
  A 4.96 4.30 89.6 0 1 174.90 240.07
  L 174.92 244.11
  A 4.96 4.30 89.6 0 1 170.66 249.10
  L 169.39 249.11
  A 1.73 1.73 0.0 0 1 167.65 247.40
  L 167.57 236.90
  Z"
/>
<rect fill="#ffffff" x="-3.71" y="-16.24" transform="translate(273.57,251.33) rotate(0.1)" width="7.42" height="32.48" rx="3.21"/>
<path fill="#ffffff" d="
  M 207.74 255.37
  A 0.33 0.33 0.0 0 1 207.41 255.04
  L 207.41 254.91
  A 17.86 2.45 -90.0 0 1 209.86 237.05
  L 210.00 237.05
  A 17.86 2.45 -90.0 0 1 212.45 254.91
  L 212.45 255.04
  A 0.33 0.33 0.0 0 1 212.12 255.37
  L 207.74 255.37
  Z"
/>
<rect fill="#ffffff" x="-4.01" y="-6.52" transform="translate(98.73,261.06) rotate(0.5)" width="8.02" height="13.04" rx="3.51"/>
<path fill="#027240" d="
  M 143.57 327.62
  A 0.72 0.72 0.0 0 0 142.85 328.34
  Q 142.90 341.64 142.75 343.68
  Q 142.52 346.70 139.47 347.18
  Q 135.96 347.72 132.05 347.19
  A 3.12 3.12 0.0 0 1 129.46 344.95
  Q 129.00 343.35 129.00 340.25
  Q 129.03 321.06 129.01 297.48
  C 129.00 292.53 128.74 289.50 134.43 289.54
  Q 144.55 289.60 148.41 289.51
  Q 154.63 289.37 157.36 290.78
  C 165.67 295.08 166.35 307.16 164.57 315.36
  C 163.41 320.71 162.23 324.47 157.01 326.25
  C 152.36 327.83 148.22 327.66 143.57 327.62
  Z
  M 142.82 302.63
  L 142.94 314.15
  A 1.88 1.88 0.0 0 0 144.84 316.01
  L 146.31 316.00
  A 5.03 4.63 89.4 0 0 150.89 310.92
  L 150.83 305.70
  A 5.03 4.63 89.4 0 0 146.15 300.72
  L 144.68 300.73
  A 1.88 1.88 0.0 0 0 142.82 302.63
  Z"
/>
<path fill="#027240" d="
  M 187.42 335.94
  A 1.05 1.04 -8.7 0 0 186.42 335.21
  L 180.14 335.21
  A 2.03 2.03 0.0 0 0 178.16 336.80
  L 176.33 345.02
  A 2.96 2.96 0.0 0 1 173.44 347.33
  L 166.05 347.33
  A 3.13 3.12 -9.4 0 1 163.09 345.21
  Q 162.43 343.24 162.98 340.49
  Q 167.54 317.48 171.44 294.49
  C 172.10 290.60 174.90 289.28 178.70 289.53
  Q 179.15 289.56 188.53 289.50
  Q 193.75 289.47 194.68 294.81
  Q 198.57 317.23 203.32 340.46
  Q 203.83 342.93 203.38 344.69
  A 3.29 3.28 -86.2 0 1 200.60 347.13
  Q 197.90 347.46 192.96 347.42
  C 189.81 347.39 188.92 345.57 188.63 342.94
  Q 188.10 338.06 187.42 335.94
  Z
  M 180.48 322.83
  L 185.46 322.83
  A 0.27 0.27 0.0 0 0 185.73 322.56
  L 185.73 322.46
  A 19.81 2.65 89.9 0 0 183.04 302.65
  L 182.82 302.65
  A 19.81 2.65 89.9 0 0 180.21 322.46
  L 180.21 322.56
  A 0.27 0.27 0.0 0 0 180.48 322.83
  Z"
/>
<path fill="#027240" d="
  M 205.74 293.96
  A 4.41 4.41 0.0 0 1 210.14 289.54
  L 225.30 289.52
  A 19.35 17.77 89.9 0 1 243.10 308.84
  L 243.14 328.04
  A 19.35 17.77 89.9 0 1 225.40 347.42
  L 210.24 347.44
  A 4.41 4.41 0.0 0 1 205.82 343.04
  L 205.74 293.96
  Z
  M 219.58 302.00
  L 219.76 334.50
  A 1.45 1.45 0.0 0 0 221.21 335.94
  L 221.88 335.94
  A 8.64 5.86 89.7 0 0 227.70 327.27
  L 227.60 309.15
  A 8.64 5.86 89.7 0 0 221.70 300.54
  L 221.03 300.54
  A 1.45 1.45 0.0 0 0 219.58 302.00
  Z"
/>
<path fill="#027240" d="
  M 260.52 327.45
  A 0.52 0.52 0.0 0 0 259.72 327.90
  Q 259.78 340.02 259.66 343.42
  C 259.56 346.17 257.73 347.25 254.98 347.33
  Q 251.73 347.43 248.51 347.30
  A 2.42 2.41 -5.0 0 1 246.25 345.41
  Q 245.77 343.24 245.80 340.25
  Q 245.86 334.26 245.85 293.95
  Q 245.85 289.56 250.77 289.57
  Q 258.19 289.58 262.55 289.49
  C 271.90 289.29 278.69 290.76 281.28 300.23
  C 282.37 304.24 282.46 309.60 281.98 313.28
  Q 281.11 319.98 274.79 323.04
  A 1.72 1.70 -8.5 0 0 273.84 324.31
  Q 273.22 328.28 275.47 331.65
  A 2.27 2.26 68.7 0 0 277.68 332.63
  C 280.17 332.27 282.71 331.79 282.94 335.29
  Q 283.21 339.40 282.96 345.33
  A 1.70 1.69 -26.4 0 1 282.65 346.24
  Q 281.66 347.59 279.70 347.74
  Q 269.96 348.50 266.37 339.39
  Q 266.02 338.50 263.68 331.61
  Q 262.74 328.85 260.52 327.45
  Z
  M 259.66 302.55
  L 259.74 314.09
  A 1.89 1.89 0.0 0 0 261.64 315.96
  L 262.98 315.96
  A 5.50 4.81 89.6 0 0 267.75 310.42
  L 267.72 306.10
  A 5.50 4.81 89.6 0 0 262.88 300.64
  L 261.54 300.65
  A 1.89 1.89 0.0 0 0 259.66 302.55
  Z"
/>
<path fill="#027240" d="
  M 314.18 335.75
  A 1.06 1.05 14.2 0 1 314.74 336.68
  L 314.74 345.62
  A 1.73 1.72 0.0 0 1 313.01 347.34
  Q 293.30 347.42 290.16 347.37
  C 285.85 347.30 285.31 344.17 285.32 340.35
  Q 285.36 322.56 285.32 294.48
  Q 285.31 289.61 289.76 289.57
  Q 303.59 289.47 312.74 289.66
  A 2.16 2.16 0.0 0 1 314.85 291.82
  L 314.85 299.44
  A 1.52 1.52 0.0 0 1 313.31 300.96
  Q 304.20 300.84 302.45 300.88
  Q 300.51 300.93 299.56 302.22
  A 1.42 1.41 63.8 0 0 299.27 303.08
  L 299.27 308.92
  A 2.65 2.65 0.0 0 0 301.67 311.56
  Q 303.94 311.77 310.28 311.53
  C 312.73 311.44 313.87 312.44 313.98 314.77
  Q 314.17 318.77 313.95 321.17
  A 1.92 1.85 64.7 0 1 313.66 322.03
  Q 312.98 323.09 310.22 323.15
  Q 308.85 323.17 301.14 322.99
  A 1.82 1.82 0.0 0 0 299.27 324.73
  Q 299.05 329.56 299.29 332.41
  Q 299.53 335.15 302.80 335.09
  C 308.09 334.98 311.81 334.47 314.18 335.75
  Z"
/>
<path fill="#027240" d="
  M 117.1201 329.8448
  A 11.76 11.76 0.0 0 1 105.3396 341.5842
  L 100.4396 341.5757
  A 11.76 11.76 0.0 0 1 88.7002 329.7952
  L 88.7399 307.0552
  A 11.76 11.76 0.0 0 1 100.5204 295.3158
  L 105.4204 295.3243
  A 11.76 11.76 0.0 0 1 117.1598 307.1048
  L 117.1201 329.8448
  Z
  M 106.1102 307.0244
  A 2.76 2.76 0.0 0 0 103.3454 304.2692
  L 102.4454 304.2708
  A 2.76 2.76 0.0 0 0 99.6902 307.0356
  L 99.7298 329.7556
  A 2.76 2.76 0.0 0 0 102.4946 332.5108
  L 103.3946 332.5092
  A 2.76 2.76 0.0 0 0 106.1498 329.7444
  L 106.1102 307.0244
  Z"
/>
<path fill="#027240" d="
  M 57.16 298.90
  A 3.37 3.37 0.0 0 1 60.52 295.52
  L 72.30 295.50
  A 15.04 14.35 89.9 0 1 86.68 310.51
  L 86.70 326.35
  A 15.04 14.35 89.9 0 1 72.38 341.42
  L 60.60 341.44
  A 3.37 3.37 0.0 0 1 57.22 338.08
  L 57.16 298.90
  Z
  M 68.13 305.25
  L 68.27 331.35
  A 0.97 0.97 0.0 0 0 69.24 332.31
  L 69.89 332.31
  A 7.19 4.68 89.7 0 0 74.54 325.09
  L 74.46 311.43
  A 7.19 4.68 89.7 0 0 69.75 304.27
  L 69.10 304.27
  A 0.97 0.97 0.0 0 0 68.13 305.25
  Z"
/>
<path fill="#ffffff" d="
  M 142.82 302.63
  A 1.88 1.88 0.0 0 1 144.68 300.73
  L 146.15 300.72
  A 5.03 4.63 89.4 0 1 150.83 305.70
  L 150.89 310.92
  A 5.03 4.63 89.4 0 1 146.31 316.00
  L 144.84 316.01
  A 1.88 1.88 0.0 0 1 142.94 314.15
  L 142.82 302.63
  Z"
/>
<path fill="#ffffff" d="
  M 219.58 302.00
  A 1.45 1.45 0.0 0 1 221.03 300.54
  L 221.70 300.54
  A 8.64 5.86 89.7 0 1 227.60 309.15
  L 227.70 327.27
  A 8.64 5.86 89.7 0 1 221.88 335.94
  L 221.21 335.94
  A 1.45 1.45 0.0 0 1 219.76 334.50
  L 219.58 302.00
  Z"
/>
<path fill="#ffffff" d="
  M 259.66 302.55
  A 1.89 1.89 0.0 0 1 261.54 300.65
  L 262.88 300.64
  A 5.50 4.81 89.6 0 1 267.72 306.10
  L 267.75 310.42
  A 5.50 4.81 89.6 0 1 262.98 315.96
  L 261.64 315.96
  A 1.89 1.89 0.0 0 1 259.74 314.09
  L 259.66 302.55
  Z"
/>
<path fill="#ffffff" d="
  M 180.48 322.83
  A 0.27 0.27 0.0 0 1 180.21 322.56
  L 180.21 322.46
  A 19.81 2.65 89.9 0 1 182.82 302.65
  L 183.04 302.65
  A 19.81 2.65 89.9 0 1 185.73 322.46
  L 185.73 322.56
  A 0.27 0.27 0.0 0 1 185.46 322.83
  L 180.48 322.83
  Z"
/>
<path fill="#ffffff" d="
  M 68.13 305.25
  A 0.97 0.97 0.0 0 1 69.10 304.27
  L 69.75 304.27
  A 7.19 4.68 89.7 0 1 74.46 311.43
  L 74.54 325.09
  A 7.19 4.68 89.7 0 1 69.89 332.31
  L 69.24 332.31
  A 0.97 0.97 0.0 0 1 68.27 331.35
  L 68.13 305.25
  Z"
/>
<rect fill="#ffffff" x="-3.21" y="-14.12" transform="translate(102.92,318.39) rotate(-0.1)" width="6.42" height="28.24" rx="2.76"/>
<ellipse fill="#8c4227" cx="0.00" cy="0.00" transform="translate(284.26,364.67) rotate(-43.4)" rx="2.53" ry="1.18"/>
<path fill="#8c4227" d="
  M 179.85 377.53
  Q 181.99 378.37 183.84 377.78
  A 1.04 1.04 0.0 0 0 183.94 375.84
  C 181.69 374.86 178.95 373.99 178.78 371.63
  C 178.48 367.56 182.82 366.58 185.93 367.83
  A 1.39 1.39 0.0 0 1 186.79 369.30
  L 186.76 369.55
  A 0.86 0.86 0.0 0 1 185.60 370.25
  Q 183.84 369.59 182.42 369.96
  A 1.19 1.19 0.0 0 0 182.25 372.20
  C 185.24 373.53 188.97 374.76 186.62 378.82
  C 185.31 381.08 182.08 380.71 179.99 380.35
  A 1.49 1.49 0.0 0 1 178.75 378.88
  L 178.75 378.28
  A 0.81 0.81 0.0 0 1 179.85 377.53
  Z"
/>
<path fill="#8c4227" d="
  M 188.04 378.85
  L 188.03 378.25
  A 0.80 0.80 0.0 0 1 189.12 377.49
  Q 191.26 378.30 193.10 377.69
  A 1.03 1.03 0.0 0 0 193.17 375.76
  C 190.92 374.81 188.18 373.98 187.99 371.63
  C 187.64 367.58 191.95 366.55 195.06 367.76
  A 1.38 1.38 0.0 0 1 195.94 369.22
  L 195.91 369.47
  A 0.86 0.85 13.1 0 1 194.76 370.18
  Q 193.00 369.54 191.59 369.92
  A 1.19 1.18 48.8 0 0 191.45 372.16
  C 194.44 373.45 198.17 374.63 195.88 378.70
  C 194.60 380.96 191.38 380.63 189.29 380.30
  A 1.49 1.48 -85.9 0 1 188.04 378.85
  Z"
/>
<path fill="#8c4227" d="
  M 81.99 368.76
  A 1.11 1.10 -0.0 0 1 83.10 367.66
  L 87.65 367.66
  A 3.27 3.26 89.8 0 1 90.91 370.91
  C 90.94 375.54 88.80 375.45 85.45 375.93
  A 0.75 0.75 0.0 0 0 84.81 376.66
  L 84.81 379.45
  A 1.00 1.00 0.0 0 1 83.81 380.44
  L 83.07 380.44
  A 1.08 1.08 0.0 0 1 81.99 379.37
  L 81.99 368.76
  Z
  M 84.68 370.64
  L 84.64 372.90
  A 0.75 0.75 0.0 0 0 85.38 373.66
  L 86.05 373.66
  A 2.14 1.75 0.8 0 0 88.22 371.94
  L 88.22 371.68
  A 2.14 1.75 0.8 0 0 86.11 369.91
  L 85.44 369.90
  A 0.75 0.75 0.0 0 0 84.68 370.64
  Z"
/>
<path fill="#8c4227" d="
  M 104.68 373.95
  A 6.61 6.61 0.0 0 1 98.07 380.56
  A 6.61 6.61 0.0 0 1 91.46 373.95
  A 6.61 6.61 0.0 0 1 98.07 367.34
  A 6.61 6.61 0.0 0 1 104.68 373.95
  Z
  M 102.01 373.91
  A 3.92 3.92 0.0 0 0 98.09 369.99
  A 3.92 3.92 0.0 0 0 94.17 373.91
  A 3.92 3.92 0.0 0 0 98.09 377.83
  A 3.92 3.92 0.0 0 0 102.01 373.91
  Z"
/>
<path fill="#8c4227" d="
  M 108.78 373.75
  L 108.78 379.15
  A 1.32 1.32 0.0 0 1 107.46 380.47
  L 107.04 380.47
  A 1.03 1.03 0.0 0 1 106.01 379.44
  L 106.01 368.03
  A 0.42 0.42 0.0 0 1 106.73 367.74
  L 113.23 374.24
  A 0.36 0.36 0.0 0 0 113.84 373.98
  L 113.84 368.37
  A 0.92 0.92 0.0 0 1 115.41 367.72
  L 116.23 368.54
  A 1.38 1.36 -67.7 0 1 116.63 369.51
  L 116.63 379.89
  A 0.39 0.39 0.0 0 1 115.97 380.16
  L 109.32 373.52
  A 0.32 0.31 -67.6 0 0 108.78 373.75
  Z"
/>
<path fill="#8c4227" d="
  M 122.33 367.60
  Q 124.39 367.58 126.33 367.61
  A 0.99 0.98 0.4 0 1 127.31 368.59
  L 127.31 368.94
  A 0.97 0.97 0.0 0 1 126.34 369.91
  L 124.31 369.91
  A 0.59 0.59 0.0 0 0 123.72 370.50
  L 123.71 379.42
  A 1.19 1.18 61.3 0 1 123.53 380.05
  Q 123.28 380.46 122.27 380.46
  Q 121.25 380.45 121.01 380.04
  A 1.19 1.18 -60.8 0 1 120.84 379.41
  L 120.91 370.49
  A 0.59 0.59 0.0 0 0 120.32 369.89
  L 118.29 369.87
  A 0.97 0.97 0.0 0 1 117.33 368.90
  L 117.33 368.55
  A 0.99 0.98 0.1 0 1 118.32 367.57
  Q 120.26 367.56 122.33 367.60
  Z"
/>
<path fill="#8c4227" d="
  M 151.38 374.23
  L 152.09 374.23
  A 0.86 0.85 0.0 0 1 152.95 375.08
  L 152.95 379.14
  A 0.80 0.80 0.0 0 1 152.42 379.89
  C 139.47 384.61 138.10 364.37 151.72 367.80
  A 1.68 1.67 7.1 0 1 152.99 369.42
  L 152.99 369.77
  A 0.73 0.72 -83.7 0 1 152.11 370.48
  C 149.29 369.86 146.93 369.20 145.33 371.92
  C 143.35 375.25 146.12 378.32 149.88 377.92
  A 0.66 0.65 -2.9 0 0 150.47 377.27
  L 150.47 375.14
  A 0.91 0.91 0.0 0 1 151.38 374.23
  Z"
/>
<path fill="#8c4227" d="
  M 155.50 367.53
  L 161.14 367.75
  A 1.53 1.43 -27.2 0 1 161.77 367.93
  Q 164.83 369.65 163.76 373.19
  A 0.84 0.73 -22.5 0 1 163.62 373.47
  L 162.27 375.21
  A 0.67 0.67 0.0 0 0 162.19 375.90
  L 163.98 379.64
  A 0.70 0.70 0.0 0 1 163.24 380.63
  L 162.62 380.52
  A 2.30 2.29 81.7 0 1 160.92 379.25
  L 159.43 376.10
  A 0.98 0.98 0.0 0 0 157.57 376.52
  L 157.57 379.35
  A 1.07 1.07 0.0 0 1 156.50 380.42
  L 155.74 380.42
  A 0.91 0.91 0.0 0 1 154.83 379.51
  L 154.83 368.17
  A 0.64 0.64 0.0 0 1 155.50 367.53
  Z
  M 157.56 370.47
  L 157.41 372.87
  A 0.68 0.68 0.0 0 0 158.04 373.59
  L 159.01 373.65
  A 2.25 1.66 3.6 0 0 161.36 372.13
  L 161.39 371.69
  A 2.25 1.66 3.6 0 0 159.25 369.89
  L 158.28 369.83
  A 0.68 0.68 0.0 0 0 157.56 370.47
  Z"
/>
<path fill="#8c4227" d="
  M 178.06 373.95
  A 6.59 6.59 0.0 0 1 171.47 380.54
  A 6.59 6.59 0.0 0 1 164.88 373.95
  A 6.59 6.59 0.0 0 1 171.47 367.36
  A 6.59 6.59 0.0 0 1 178.06 373.95
  Z
  M 175.39 373.93
  A 3.94 3.94 0.0 0 0 171.45 369.99
  A 3.94 3.94 0.0 0 0 167.51 373.93
  A 3.94 3.94 0.0 0 0 171.45 377.87
  A 3.94 3.94 0.0 0 0 175.39 373.93
  Z"
/>
<path fill="#8c4227" d="
  M 222.89 368.76
  A 1.11 1.10 -0.0 0 1 224.00 367.66
  L 228.57 367.66
  A 3.28 3.27 89.8 0 1 231.84 370.92
  C 231.87 375.56 229.72 375.47 226.36 375.95
  A 0.76 0.75 -4.5 0 0 225.72 376.69
  L 225.72 379.48
  A 1.00 1.00 0.0 0 1 224.72 380.48
  L 223.97 380.48
  A 1.08 1.08 0.0 0 1 222.89 379.40
  L 222.89 368.76
  Z
  M 225.71 370.49
  L 225.56 372.93
  A 0.64 0.64 0.0 0 0 226.16 373.61
  L 226.90 373.65
  A 2.16 1.73 3.5 0 0 229.16 372.06
  L 229.17 371.80
  A 2.16 1.73 3.5 0 0 227.12 369.94
  L 226.39 369.89
  A 0.64 0.64 0.0 0 0 225.71 370.49
  Z"
/>
<path fill="#8c4227" d="
  M 250.68 376.15
  Q 251.65 377.36 252.25 379.16
  A 0.76 0.76 0.0 0 0 253.66 379.24
  L 258.88 368.06
  A 0.44 0.44 0.0 0 1 259.68 368.06
  L 265.18 379.59
  A 0.56 0.56 0.0 0 1 264.84 380.36
  Q 262.62 381.04 261.85 378.58
  A 0.82 0.82 0.0 0 0 261.07 378.01
  L 257.54 378.01
  A 0.85 0.85 0.0 0 0 256.77 378.50
  L 256.16 379.82
  A 0.95 0.94 -76.9 0 1 255.31 380.36
  L 250.67 380.36
  A 0.91 0.91 0.0 0 1 249.85 379.85
  L 248.07 376.10
  A 1.09 1.09 0.0 0 0 246.00 376.71
  Q 246.27 378.87 246.01 379.71
  A 1.22 1.22 0.0 0 1 243.62 379.43
  L 243.25 368.31
  A 0.72 0.71 89.2 0 1 243.96 367.57
  C 248.06 367.58 253.13 366.97 252.80 372.53
  Q 252.75 373.40 250.74 375.29
  A 0.63 0.63 0.0 0 0 250.68 376.15
  Z
  M 246.09 370.61
  L 245.99 372.81
  A 0.78 0.78 0.0 0 0 246.74 373.62
  L 247.59 373.66
  A 2.37 1.75 2.5 0 0 250.03 372.02
  L 250.04 371.76
  A 2.37 1.75 2.5 0 0 247.75 369.91
  L 246.90 369.87
  A 0.78 0.78 0.0 0 0 246.09 370.61
  Z
  M 259.30 376.05
  Q 260.05 376.03 260.17 375.99
  A 0.57 0.57 0.0 0 0 260.50 375.26
  Q 259.65 372.94 259.22 372.95
  Q 258.79 372.96 258.05 375.32
  A 0.57 0.57 0.0 0 0 258.43 376.04
  Q 258.54 376.07 259.30 376.05
  Z"
/>
<path fill="#8c4227" d="
  M 272.14 373.11
  Q 272.91 373.93 273.34 374.26
  A 0.33 0.32 -71.3 0 0 273.86 374.00
  L 273.86 368.54
  A 1.08 1.08 0.0 0 1 274.94 367.46
  L 275.33 367.46
  A 1.29 1.28 -0.0 0 1 276.62 368.74
  L 276.62 379.87
  A 0.31 0.31 0.0 0 1 276.10 380.10
  Q 273.16 377.53 270.51 374.71
  Q 269.74 373.89 269.31 373.56
  A 0.33 0.32 -71.3 0 0 268.79 373.82
  L 268.79 379.28
  A 1.08 1.08 0.0 0 1 267.71 380.36
  L 267.32 380.36
  A 1.29 1.28 0.0 0 1 266.03 379.08
  L 266.03 367.95
  A 0.31 0.31 0.0 0 1 266.55 367.72
  Q 269.49 370.29 272.14 373.11
  Z"
/>
<path fill="#8c4227" d="
  M 131.59 367.89
  Q 131.73 367.89 131.87 367.96
  Q 132.02 368.03 132.07 368.14
  Q 134.17 372.70 137.50 379.65
  A 0.59 0.59 0.0 0 1 136.96 380.49
  L 135.89 380.49
  A 1.33 1.33 0.0 0 1 134.69 379.73
  L 134.23 378.79
  A 1.18 1.17 -11.2 0 0 133.22 378.12
  Q 132.40 378.08 131.57 378.08
  Q 130.73 378.08 129.91 378.11
  A 1.18 1.17 11.3 0 0 128.90 378.78
  L 128.44 379.72
  A 1.33 1.33 0.0 0 1 127.24 380.48
  L 126.17 380.47
  A 0.59 0.59 0.0 0 1 125.63 379.63
  Q 128.98 372.69 131.09 368.14
  Q 131.14 368.03 131.30 367.96
  Q 131.43 367.89 131.59 367.89
  Z
  M 130.72 375.98
  L 132.40 376.04
  A 0.25 0.25 0.0 0 0 132.66 375.80
  L 132.66 375.66
  A 2.47 1.08 -88.0 0 0 131.67 373.15
  L 131.65 373.15
  A 2.47 1.08 -88.0 0 0 130.48 375.58
  L 130.48 375.72
  A 0.25 0.25 0.0 0 0 130.72 375.98
  Z"
/>
<path fill="#8c4227" d="
  M 236.60 378.06
  Q 235.77 378.06 234.96 378.09
  A 1.17 1.16 11.4 0 0 233.96 378.76
  L 233.49 379.69
  A 1.32 1.32 0.0 0 1 232.30 380.43
  L 231.24 380.43
  A 0.59 0.58 12.9 0 1 230.71 379.59
  Q 234.04 372.71 236.15 368.20
  Q 236.20 368.09 236.35 368.02
  Q 236.48 367.95 236.64 367.95
  Q 236.78 367.95 236.91 368.02
  Q 237.07 368.09 237.12 368.20
  Q 239.19 372.73 242.49 379.63
  A 0.59 0.58 -12.5 0 1 241.95 380.46
  L 240.89 380.46
  A 1.32 1.32 0.0 0 1 239.70 379.70
  L 239.24 378.77
  A 1.17 1.16 -11.1 0 0 238.24 378.10
  Q 237.43 378.07 236.60 378.06
  Z
  M 236.63 376.07
  Q 237.39 376.09 237.48 376.07
  A 0.54 0.54 0.0 0 0 237.87 375.40
  Q 237.11 372.95 236.72 372.94
  Q 236.32 372.93 235.43 375.33
  A 0.54 0.54 0.0 0 0 235.78 376.02
  Q 235.86 376.05 236.63 376.07
  Z"
/>
<path fill="#8c4227" d="
  M 202.54 378.10
  Q 201.70 378.10 200.89 378.14
  A 1.17 1.17 0.0 0 0 199.88 378.82
  L 199.43 379.76
  A 1.33 1.32 -77.6 0 1 198.23 380.52
  L 197.17 380.52
  A 0.59 0.59 0.0 0 1 196.62 379.69
  Q 199.92 372.74 201.99 368.18
  Q 202.04 368.07 202.19 368.00
  Q 202.32 367.93 202.47 367.93
  Q 202.63 367.93 202.76 367.99
  Q 202.91 368.06 202.96 368.17
  Q 205.09 372.71 208.47 379.62
  A 0.59 0.59 0.0 0 1 207.94 380.46
  L 206.87 380.47
  A 1.33 1.32 76.9 0 1 205.67 379.72
  L 205.20 378.78
  A 1.17 1.17 0.0 0 0 204.19 378.12
  Q 203.37 378.09 202.54 378.10
  Z
  M 202.51 376.03
  Q 203.27 376.04 203.40 376.01
  A 0.48 0.48 0.0 0 0 203.75 375.37
  Q 202.95 373.20 202.54 373.20
  Q 202.14 373.19 201.30 375.34
  A 0.48 0.48 0.0 0 0 201.63 375.99
  Q 201.76 376.02 202.51 376.03
  Z"
/>
<path fill="#8c4227" d="
  M 283.37 377.94
  Q 282.54 377.94 281.73 377.98
  A 1.16 1.16 0.0 0 0 280.73 378.64
  L 280.28 379.57
  A 1.31 1.31 0.0 0 1 279.09 380.32
  L 278.03 380.33
  A 0.59 0.58 12.6 0 1 277.50 379.49
  Q 280.79 372.62 282.86 368.11
  Q 282.91 368.00 283.06 367.93
  Q 283.19 367.86 283.35 367.86
  Q 283.49 367.86 283.62 367.93
  Q 283.78 368.00 283.83 368.11
  Q 285.92 372.61 289.24 379.47
  A 0.59 0.58 -12.8 0 1 288.71 380.30
  L 287.65 380.31
  A 1.31 1.31 0.0 0 1 286.46 379.56
  L 286.00 378.63
  A 1.16 1.16 0.0 0 0 285.00 377.97
  Q 284.19 377.94 283.37 377.94
  Z
  M 283.40 376.03
  Q 284.23 376.01 284.26 376.00
  A 0.49 0.48 74.9 0 0 284.63 375.36
  Q 283.78 373.00 283.32 373.01
  Q 282.87 373.02 282.14 375.42
  A 0.49 0.48 -77.8 0 0 282.54 376.05
  Q 282.57 376.05 283.40 376.03
  Z"
/>
<path fill="#ffffff" d="
  M 84.68 370.64
  A 0.75 0.75 0.0 0 1 85.44 369.90
  L 86.11 369.91
  A 2.14 1.75 0.8 0 1 88.22 371.68
  L 88.22 371.94
  A 2.14 1.75 0.8 0 1 86.05 373.66
  L 85.38 373.66
  A 0.75 0.75 0.0 0 1 84.64 372.90
  L 84.68 370.64
  Z"
/>
<path fill="#ffffff" d="
  M 157.56 370.47
  A 0.68 0.68 0.0 0 1 158.28 369.83
  L 159.25 369.89
  A 2.25 1.66 3.6 0 1 161.39 371.69
  L 161.36 372.13
  A 2.25 1.66 3.6 0 1 159.01 373.65
  L 158.04 373.59
  A 0.68 0.68 0.0 0 1 157.41 372.87
  L 157.56 370.47
  Z"
/>
<circle fill="#ffffff" cx="171.45" cy="373.93" r="3.94"/>
<path fill="#ffffff" d="
  M 225.71 370.49
  A 0.64 0.64 0.0 0 1 226.39 369.89
  L 227.12 369.94
  A 2.16 1.73 3.5 0 1 229.17 371.80
  L 229.16 372.06
  A 2.16 1.73 3.5 0 1 226.90 373.65
  L 226.16 373.61
  A 0.64 0.64 0.0 0 1 225.56 372.93
  L 225.71 370.49
  Z"
/>
<path fill="#ffffff" d="
  M 246.09 370.61
  A 0.78 0.78 0.0 0 1 246.90 369.87
  L 247.75 369.91
  A 2.37 1.75 2.5 0 1 250.04 371.76
  L 250.03 372.02
  A 2.37 1.75 2.5 0 1 247.59 373.66
  L 246.74 373.62
  A 0.78 0.78 0.0 0 1 245.99 372.81
  L 246.09 370.61
  Z"
/>
<circle fill="#ffffff" cx="98.09" cy="373.91" r="3.92"/>
<circle fill="#8c4227" cx="215.07" cy="373.94" r="1.99"/>
<path fill="#ffffff" d="
  M 130.72 375.98
  A 0.25 0.25 0.0 0 1 130.48 375.72
  L 130.48 375.58
  A 2.47 1.08 -88.0 0 1 131.65 373.15
  L 131.67 373.15
  A 2.47 1.08 -88.0 0 1 132.66 375.66
  L 132.66 375.80
  A 0.25 0.25 0.0 0 1 132.40 376.04
  L 130.72 375.98
  Z"
/>
<path fill="#ffffff" d="
  M 236.72 372.94
  Q 237.11 372.95 237.87 375.40
  A 0.54 0.54 0.0 0 1 237.48 376.07
  Q 237.39 376.09 236.63 376.07
  Q 235.86 376.05 235.78 376.02
  A 0.54 0.54 0.0 0 1 235.43 375.33
  Q 236.32 372.93 236.72 372.94
  Z"
/>
<path fill="#ffffff" d="
  M 259.22 372.95
  Q 259.65 372.94 260.50 375.26
  A 0.57 0.57 0.0 0 1 260.17 375.99
  Q 260.05 376.03 259.30 376.05
  Q 258.54 376.07 258.43 376.04
  A 0.57 0.57 0.0 0 1 258.05 375.32
  Q 258.79 372.96 259.22 372.95
  Z"
/>
<path fill="#ffffff" d="
  M 283.32 373.01
  Q 283.78 373.00 284.63 375.36
  A 0.49 0.48 74.9 0 1 284.26 376.00
  Q 284.23 376.01 283.40 376.03
  Q 282.57 376.05 282.54 376.05
  A 0.49 0.48 -77.8 0 1 282.14 375.42
  Q 282.87 373.02 283.32 373.01
  Z"
/>
<path fill="#ffffff" d="
  M 202.54 373.20
  Q 202.95 373.20 203.75 375.37
  A 0.48 0.48 0.0 0 1 203.40 376.01
  Q 203.27 376.04 202.51 376.03
  Q 201.76 376.02 201.63 375.99
  A 0.48 0.48 0.0 0 1 201.30 375.34
  Q 202.14 373.19 202.54 373.20
  Z"
/>
</svg>
