<?xml version="1.0" encoding="UTF-8" standalone="no"?>
<!DOCTYPE svg PUBLIC "-//W3C//DTD SVG 1.1//EN" "http://www.w3.org/Graphics/SVG/1.1/DTD/svg11.dtd">
<svg xmlns="http://www.w3.org/2000/svg" version="1.1" viewBox="0.00 0.00 200.00 200.00">
<g stroke-width="2.00" fill="none" stroke-linecap="butt">
<path stroke="#c5d295" vector-effect="non-scaling-stroke" d="
  M 56.11 89.21
  Q 48.45 83.47 42.97 81.02
  Q 33.04 76.58 23.11 72.17
  Q 14.73 68.44 7.95 62.47"
/>
<path stroke="#9fd8e0" vector-effect="non-scaling-stroke" d="
  M 7.95 62.47
  L 4.18 59.23
  A 1.08 1.08 0.0 0 0 2.44 59.78
  Q 1.10 65.04 0.98 70.73
  Q 0.55 91.07 12.22 107.53"
/>
<path stroke="#a1c9cf" vector-effect="non-scaling-stroke" d="
  M 12.22 107.53
  C 24.36 123.63 41.69 131.58 61.82 132.06
  A 1.63 1.62 -6.0 0 0 63.44 130.06
  C 60.14 116.48 51.66 108.06 41.06 99.74"
/>
<path stroke="#9fd8e0" vector-effect="non-scaling-stroke" d="
  M 41.06 99.74
  Q 30.26 91.72 19.90 83.35
  Q 10.19 75.50 5.27 64.37"
/>
<path stroke="#c5d295" vector-effect="non-scaling-stroke" d="
  M 5.27 64.37
  Q 7.45 67.19 9.42 70.17
  Q 12.02 74.07 13.75 75.78
  C 27.80 89.72 45.69 98.27 56.74 111.05
  Q 63.45 118.81 66.52 128.79
  A 0.64 0.64 0.0 0 0 67.77 128.61
  Q 67.80 126.03 68.97 124.30"
/>
<path stroke="#a6a4a4" vector-effect="non-scaling-stroke" d="
  M 68.97 124.30
  Q 71.49 124.11 71.67 121.22
  Q 72.01 115.43 73.27 106.55
  C 74.17 100.25 74.78 93.12 75.12 88.31
  A 0.49 0.49 0.0 0 1 75.80 87.89
  Q 76.83 88.32 77.44 89.25
  Q 83.79 99.01 99.28 122.61
  A 2.61 2.60 -16.4 0 0 101.47 123.80
  L 122.95 123.80
  A 0.47 0.46 78.9 0 0 123.38 123.16
  Q 122.52 121.04 121.11 118.91
  Q 111.19 104.02 101.58 89.18
  Q 100.46 87.46 99.45 85.45
  A 2.51 2.50 -38.6 0 1 99.76 82.71
  L 130.48 45.74
  A 0.62 0.61 20.3 0 0 130.01 44.73
  Q 120.27 44.58 112.23 44.76
  Q 107.83 44.87 105.08 48.09
  Q 83.02 73.85 82.72 74.22
  Q 78.86 78.94 77.04 81.49
  A 0.48 0.48 0.0 0 1 76.18 81.28
  Q 75.80 78.82 76.29 75.75
  C 77.61 67.47 78.17 59.28 78.42 54.50
  C 78.58 51.39 79.92 48.46 79.95 45.42
  A 0.60 0.60 0.0 0 0 79.35 44.82
  L 61.26 44.82
  A 0.89 0.89 0.0 0 0 60.37 45.71
  Q 60.35 53.05 59.45 58.96
  C 57.94 68.93 57.39 78.98 56.11 89.21"
/>
<path stroke="#6c7739" vector-effect="non-scaling-stroke" d="
  M 68.97 124.30
  Q 68.88 120.25 68.84 116.27
  Q 68.80 111.32 68.06 108.32
  Q 65.27 97.05 56.11 89.21"
/>
<path stroke="#65ab75" vector-effect="non-scaling-stroke" d="
  M 7.95 62.47
  Q 6.64 62.90 5.27 64.37"
/>
<path stroke="#41a2af" vector-effect="non-scaling-stroke" d="
  M 41.06 99.74
  L 12.22 107.53"
/>
<path stroke="#a6a4a4" vector-effect="non-scaling-stroke" d="
  M 190.97 107.13
  L 147.36 107.13
  A 0.72 0.72 0.0 0 1 146.65 106.28
  C 148.02 98.91 149.76 92.52 159.01 92.80
  Q 170.13 93.14 175.50 92.53
  C 182.50 91.74 187.53 89.13 191.56 83.07
  Q 199.39 71.31 194.92 57.07
  Q 192.64 49.80 186.39 47.73
  Q 179.07 45.30 169.01 45.22
  Q 153.49 45.10 143.59 45.21
  A 3.59 3.57 -72.2 0 0 140.74 46.68
  L 130.92 60.19
  A 1.13 1.13 0.0 0 0 131.85 61.99
  Q 148.53 61.71 166.24 61.97
  C 171.07 62.04 178.34 62.88 176.89 69.07
  Q 175.38 75.51 167.92 75.42
  Q 162.18 75.36 154.75 75.59
  Q 147.56 75.81 143.89 77.32
  C 135.37 80.83 129.60 88.62 128.44 97.72
  Q 127.40 105.99 125.87 122.02
  A 1.60 1.60 0.0 0 0 127.46 123.77
  L 189.47 123.77
  A 0.43 0.41 -85.1 0 0 189.88 123.41
  L 192.17 108.53
  A 1.22 1.21 -85.7 0 0 190.97 107.13"
/>
<path stroke="#9fd8e0" vector-effect="non-scaling-stroke" d="
  M 185.77 132.40
  L 165.99 132.58
  A 5.55 5.55 0.0 0 0 160.49 138.17
  L 160.57 147.68
  A 7.74 7.24 89.5 0 0 167.88 155.36
  L 184.28 155.22
  A 7.74 7.24 89.5 0 0 191.45 147.42
  L 191.37 137.91
  A 5.55 5.55 0.0 0 0 185.77 132.40"
/>
<path stroke="#a1c9cf" vector-effect="non-scaling-stroke" d="
  M 127.47 140.51
  Q 128.38 136.29 125.99 133.80
  A 2.56 2.55 70.4 0 0 124.42 133.05
  Q 115.91 132.26 107.11 132.73
  C 102.34 132.98 99.14 132.45 98.54 138.04
  Q 97.75 145.32 98.77 149.99
  C 99.53 153.50 101.45 154.84 105.00 155.05
  Q 112.72 155.50 121.24 154.99
  C 128.45 154.56 128.07 148.65 127.70 143.25
  A 0.82 0.82 0.0 0 0 126.92 142.49
  L 113.59 141.90
  A 1.49 1.49 0.0 0 0 112.03 143.33
  L 111.94 145.36
  A 1.46 1.46 0.0 0 0 113.44 146.89
  Q 117.85 146.79 121.21 147.02
  A 0.83 0.80 12.3 0 1 121.94 148.11
  Q 121.66 148.84 121.03 149.00
  Q 115.76 150.33 107.24 149.47
  A 2.53 2.52 85.9 0 1 105.05 147.57
  Q 104.26 144.34 104.64 140.28
  A 2.36 2.36 0.0 0 1 106.37 138.22
  C 110.55 137.08 118.78 136.33 122.51 139.75
  A 1.57 1.54 72.1 0 0 123.20 140.11
  L 126.83 140.92
  A 0.53 0.53 0.0 0 0 127.47 140.51"
/>
<path stroke="#a1c9cf" vector-effect="non-scaling-stroke" d="
  M 80.74 150.74
  Q 85.54 150.76 87.14 150.90
  A 2.20 2.19 -12.6 0 1 88.83 151.97
  L 89.89 153.81
  A 2.39 2.38 74.9 0 0 91.95 155.00
  L 96.79 155.00
  A 0.71 0.70 -14.5 0 0 97.41 153.96
  Q 94.72 149.12 87.64 135.44
  C 86.09 132.44 84.08 132.66 80.79 132.65
  C 77.51 132.64 75.50 132.41 73.93 135.40
  Q 66.77 149.04 64.06 153.87
  A 0.71 0.70 14.8 0 0 64.67 154.91
  L 69.51 154.94
  A 2.39 2.38 -74.6 0 0 71.58 153.76
  L 72.65 151.92
  A 2.20 2.19 12.9 0 1 74.34 150.86
  Q 75.95 150.73 80.74 150.74"
/>
<path stroke="#9fd8e0" vector-effect="non-scaling-stroke" d="
  M 156.29 145.48
  C 158.22 144.59 157.83 141.70 157.89 139.66
  Q 157.98 136.25 157.55 134.20
  A 1.81 1.81 0.0 0 0 155.78 132.76
  L 131.41 132.76
  A 0.82 0.82 0.0 0 0 130.60 133.71
  Q 131.16 137.19 130.90 139.92
  C 130.42 144.82 130.86 149.06 130.46 153.65
  A 1.27 1.27 0.0 0 0 131.72 155.03
  L 136.51 155.03
  A 1.29 1.28 0.0 0 0 137.80 153.75
  L 137.80 150.30
  A 1.12 1.11 90.0 0 1 138.91 149.18
  L 149.92 149.18
  A 1.34 1.33 -90.0 0 1 151.25 150.52
  L 151.25 153.37
  A 1.77 1.76 0.0 0 0 153.02 155.13
  L 156.63 155.13
  A 1.44 1.43 -1.0 0 0 158.07 153.65
  Q 157.94 149.11 157.62 147.82
  Q 157.49 147.30 157.05 147.05
  Q 156.32 146.63 156.09 146.35
  A 0.57 0.56 -32.2 0 1 156.29 145.48"
/>
<path stroke="#a1c9cf" vector-effect="non-scaling-stroke" d="
  M 24.49 150.28
  A 0.53 0.52 -88.5 0 0 25.10 150.93
  Q 30.29 149.85 37.64 149.89
  C 47.19 149.94 53.70 148.94 57.43 139.94
  C 58.13 138.26 58.36 136.46 56.57 135.42
  Q 54.30 134.10 51.26 133.50
  C 39.19 131.09 27.55 138.49 24.49 150.28"
/>
<path stroke="#9fd8e0" vector-effect="non-scaling-stroke" d="
  M 184.2192 140.3719
  A 2.14 2.14 0.0 0 0 182.0979 138.2134
  L 169.9184 138.1071
  A 2.14 2.14 0.0 0 0 167.7598 140.2283
  L 167.7008 146.9881
  A 2.14 2.14 0.0 0 0 169.8221 149.1466
  L 182.0016 149.2529
  A 2.14 2.14 0.0 0 0 184.1602 147.1317
  L 184.2192 140.3719"
/>
<path stroke="#a1c9cf" vector-effect="non-scaling-stroke" d="
  M 76.36 144.51
  A 1.40 1.40 0.0 0 0 77.60 146.53
  L 83.80 146.60
  A 1.40 1.40 0.0 0 0 85.08 144.60
  L 82.05 138.14
  A 1.40 1.40 0.0 0 0 79.53 138.11
  L 76.36 144.51"
/>
<path stroke="#9fd8e0" vector-effect="non-scaling-stroke" d="
  M 151.9227 139.7778
  A 1.69 1.69 0.0 0 0 150.2534 138.0673
  L 139.2743 137.9331
  A 1.69 1.69 0.0 0 0 137.5637 139.6024
  L 137.5373 141.7622
  A 1.69 1.69 0.0 0 0 139.2066 143.4727
  L 150.1857 143.6069
  A 1.69 1.69 0.0 0 0 151.8963 141.9376
  L 151.9227 139.7778"
/>
</g>
<path fill="#ffffff" d="
  M 200.00 0.00
  L 200.00 200.00
  L 0.00 200.00
  L 0.00 0.00
  L 200.00 0.00
  Z
  M 56.11 89.21
  Q 48.45 83.47 42.97 81.02
  Q 33.04 76.58 23.11 72.17
  Q 14.73 68.44 7.95 62.47
  L 4.18 59.23
  A 1.08 1.08 0.0 0 0 2.44 59.78
  Q 1.10 65.04 0.98 70.73
  Q 0.55 91.07 12.22 107.53
  C 24.36 123.63 41.69 131.58 61.82 132.06
  A 1.63 1.62 -6.0 0 0 63.44 130.06
  C 60.14 116.48 51.66 108.06 41.06 99.74
  Q 30.26 91.72 19.90 83.35
  Q 10.19 75.50 5.27 64.37
  Q 7.45 67.19 9.42 70.17
  Q 12.02 74.07 13.75 75.78
  C 27.80 89.72 45.69 98.27 56.74 111.05
  Q 63.45 118.81 66.52 128.79
  A 0.64 0.64 0.0 0 0 67.77 128.61
  Q 67.80 126.03 68.97 124.30
  Q 71.49 124.11 71.67 121.22
  Q 72.01 115.43 73.27 106.55
  C 74.17 100.25 74.78 93.12 75.12 88.31
  A 0.49 0.49 0.0 0 1 75.80 87.89
  Q 76.83 88.32 77.44 89.25
  Q 83.79 99.01 99.28 122.61
  A 2.61 2.60 -16.4 0 0 101.47 123.80
  L 122.95 123.80
  A 0.47 0.46 78.9 0 0 123.38 123.16
  Q 122.52 121.04 121.11 118.91
  Q 111.19 104.02 101.58 89.18
  Q 100.46 87.46 99.45 85.45
  A 2.51 2.50 -38.6 0 1 99.76 82.71
  L 130.48 45.74
  A 0.62 0.61 20.3 0 0 130.01 44.73
  Q 120.27 44.58 112.23 44.76
  Q 107.83 44.87 105.08 48.09
  Q 83.02 73.85 82.72 74.22
  Q 78.86 78.94 77.04 81.49
  A 0.48 0.48 0.0 0 1 76.18 81.28
  Q 75.80 78.82 76.29 75.75
  C 77.61 67.47 78.17 59.28 78.42 54.50
  C 78.58 51.39 79.92 48.46 79.95 45.42
  A 0.60 0.60 0.0 0 0 79.35 44.82
  L 61.26 44.82
  A 0.89 0.89 0.0 0 0 60.37 45.71
  Q 60.35 53.05 59.45 58.96
  C 57.94 68.93 57.39 78.98 56.11 89.21
  Z
  M 190.97 107.13
  L 147.36 107.13
  A 0.72 0.72 0.0 0 1 146.65 106.28
  C 148.02 98.91 149.76 92.52 159.01 92.80
  Q 170.13 93.14 175.50 92.53
  C 182.50 91.74 187.53 89.13 191.56 83.07
  Q 199.39 71.31 194.92 57.07
  Q 192.64 49.80 186.39 47.73
  Q 179.07 45.30 169.01 45.22
  Q 153.49 45.10 143.59 45.21
  A 3.59 3.57 -72.2 0 0 140.74 46.68
  L 130.92 60.19
  A 1.13 1.13 0.0 0 0 131.85 61.99
  Q 148.53 61.71 166.24 61.97
  C 171.07 62.04 178.34 62.88 176.89 69.07
  Q 175.38 75.51 167.92 75.42
  Q 162.18 75.36 154.75 75.59
  Q 147.56 75.81 143.89 77.32
  C 135.37 80.83 129.60 88.62 128.44 97.72
  Q 127.40 105.99 125.87 122.02
  A 1.60 1.60 0.0 0 0 127.46 123.77
  L 189.47 123.77
  A 0.43 0.41 -85.1 0 0 189.88 123.41
  L 192.17 108.53
  A 1.22 1.21 -85.7 0 0 190.97 107.13
  Z
  M 185.77 132.40
  L 165.99 132.58
  A 5.55 5.55 0.0 0 0 160.49 138.17
  L 160.57 147.68
  A 7.74 7.24 89.5 0 0 167.88 155.36
  L 184.28 155.22
  A 7.74 7.24 89.5 0 0 191.45 147.42
  L 191.37 137.91
  A 5.55 5.55 0.0 0 0 185.77 132.40
  Z
  M 127.47 140.51
  Q 128.38 136.29 125.99 133.80
  A 2.56 2.55 70.4 0 0 124.42 133.05
  Q 115.91 132.26 107.11 132.73
  C 102.34 132.98 99.14 132.45 98.54 138.04
  Q 97.75 145.32 98.77 149.99
  C 99.53 153.50 101.45 154.84 105.00 155.05
  Q 112.72 155.50 121.24 154.99
  C 128.45 154.56 128.07 148.65 127.70 143.25
  A 0.82 0.82 0.0 0 0 126.92 142.49
  L 113.59 141.90
  A 1.49 1.49 0.0 0 0 112.03 143.33
  L 111.94 145.36
  A 1.46 1.46 0.0 0 0 113.44 146.89
  Q 117.85 146.79 121.21 147.02
  A 0.83 0.80 12.3 0 1 121.94 148.11
  Q 121.66 148.84 121.03 149.00
  Q 115.76 150.33 107.24 149.47
  A 2.53 2.52 85.9 0 1 105.05 147.57
  Q 104.26 144.34 104.64 140.28
  A 2.36 2.36 0.0 0 1 106.37 138.22
  C 110.55 137.08 118.78 136.33 122.51 139.75
  A 1.57 1.54 72.1 0 0 123.20 140.11
  L 126.83 140.92
  A 0.53 0.53 0.0 0 0 127.47 140.51
  Z
  M 80.74 150.74
  Q 85.54 150.76 87.14 150.90
  A 2.20 2.19 -12.6 0 1 88.83 151.97
  L 89.89 153.81
  A 2.39 2.38 74.9 0 0 91.95 155.00
  L 96.79 155.00
  A 0.71 0.70 -14.5 0 0 97.41 153.96
  Q 94.72 149.12 87.64 135.44
  C 86.09 132.44 84.08 132.66 80.79 132.65
  C 77.51 132.64 75.50 132.41 73.93 135.40
  Q 66.77 149.04 64.06 153.87
  A 0.71 0.70 14.8 0 0 64.67 154.91
  L 69.51 154.94
  A 2.39 2.38 -74.6 0 0 71.58 153.76
  L 72.65 151.92
  A 2.20 2.19 12.9 0 1 74.34 150.86
  Q 75.95 150.73 80.74 150.74
  Z
  M 156.29 145.48
  C 158.22 144.59 157.83 141.70 157.89 139.66
  Q 157.98 136.25 157.55 134.20
  A 1.81 1.81 0.0 0 0 155.78 132.76
  L 131.41 132.76
  A 0.82 0.82 0.0 0 0 130.60 133.71
  Q 131.16 137.19 130.90 139.92
  C 130.42 144.82 130.86 149.06 130.46 153.65
  A 1.27 1.27 0.0 0 0 131.72 155.03
  L 136.51 155.03
  A 1.29 1.28 0.0 0 0 137.80 153.75
  L 137.80 150.30
  A 1.12 1.11 90.0 0 1 138.91 149.18
  L 149.92 149.18
  A 1.34 1.33 -90.0 0 1 151.25 150.52
  L 151.25 153.37
  A 1.77 1.76 0.0 0 0 153.02 155.13
  L 156.63 155.13
  A 1.44 1.43 -1.0 0 0 158.07 153.65
  Q 157.94 149.11 157.62 147.82
  Q 157.49 147.30 157.05 147.05
  Q 156.32 146.63 156.09 146.35
  A 0.57 0.56 -32.2 0 1 156.29 145.48
  Z
  M 24.49 150.28
  A 0.53 0.52 -88.5 0 0 25.10 150.93
  Q 30.29 149.85 37.64 149.89
  C 47.19 149.94 53.70 148.94 57.43 139.94
  C 58.13 138.26 58.36 136.46 56.57 135.42
  Q 54.30 134.10 51.26 133.50
  C 39.19 131.09 27.55 138.49 24.49 150.28
  Z"
/>
<path fill="#4d4948" d="
  M 68.97 124.30
  Q 68.88 120.25 68.84 116.27
  Q 68.80 111.32 68.06 108.32
  Q 65.27 97.05 56.11 89.21
  C 57.39 78.98 57.94 68.93 59.45 58.96
  Q 60.35 53.05 60.37 45.71
  A 0.89 0.89 0.0 0 1 61.26 44.82
  L 79.35 44.82
  A 0.60 0.60 0.0 0 1 79.95 45.42
  C 79.92 48.46 78.58 51.39 78.42 54.50
  C 78.17 59.28 77.61 67.47 76.29 75.75
  Q 75.80 78.82 76.18 81.28
  A 0.48 0.48 0.0 0 0 77.04 81.49
  Q 78.86 78.94 82.72 74.22
  Q 83.02 73.85 105.08 48.09
  Q 107.83 44.87 112.23 44.76
  Q 120.27 44.58 130.01 44.73
  A 0.62 0.61 20.3 0 1 130.48 45.74
  L 99.76 82.71
  A 2.51 2.50 -38.6 0 0 99.45 85.45
  Q 100.46 87.46 101.58 89.18
  Q 111.19 104.02 121.11 118.91
  Q 122.52 121.04 123.38 123.16
  A 0.47 0.46 78.9 0 1 122.95 123.80
  L 101.47 123.80
  A 2.61 2.60 -16.4 0 1 99.28 122.61
  Q 83.79 99.01 77.44 89.25
  Q 76.83 88.32 75.80 87.89
  A 0.49 0.49 0.0 0 0 75.12 88.31
  C 74.78 93.12 74.17 100.25 73.27 106.55
  Q 72.01 115.43 71.67 121.22
  Q 71.49 124.11 68.97 124.30
  Z"
/>
<path fill="#4d4948" d="
  M 190.97 107.13
  A 1.22 1.21 -85.7 0 1 192.17 108.53
  L 189.88 123.41
  A 0.43 0.41 -85.1 0 1 189.47 123.77
  L 127.46 123.77
  A 1.60 1.60 0.0 0 1 125.87 122.02
  Q 127.40 105.99 128.44 97.72
  C 129.60 88.62 135.37 80.83 143.89 77.32
  Q 147.56 75.81 154.75 75.59
  Q 162.18 75.36 167.92 75.42
  Q 175.38 75.51 176.89 69.07
  C 178.34 62.88 171.07 62.04 166.24 61.97
  Q 148.53 61.71 131.85 61.99
  A 1.13 1.13 0.0 0 1 130.92 60.19
  L 140.74 46.68
  A 3.59 3.57 -72.2 0 1 143.59 45.21
  Q 153.49 45.10 169.01 45.22
  Q 179.07 45.30 186.39 47.73
  Q 192.64 49.80 194.92 57.07
  Q 199.39 71.31 191.56 83.07
  C 187.53 89.13 182.50 91.74 175.50 92.53
  Q 170.13 93.14 159.01 92.80
  C 149.76 92.52 148.02 98.91 146.65 106.28
  A 0.72 0.72 0.0 0 0 147.36 107.13
  L 190.97 107.13
  Z"
/>
<path fill="#3eb1c0" d="
  M 7.95 62.47
  Q 6.64 62.90 5.27 64.37
  Q 10.19 75.50 19.90 83.35
  Q 30.26 91.72 41.06 99.74
  L 12.22 107.53
  Q 0.55 91.07 0.98 70.73
  Q 1.10 65.04 2.44 59.78
  A 1.08 1.08 0.0 0 1 4.18 59.23
  L 7.95 62.47
  Z"
/>
<path fill="#8ba42a" d="
  M 7.95 62.47
  Q 14.73 68.44 23.11 72.17
  Q 33.04 76.58 42.97 81.02
  Q 48.45 83.47 56.11 89.21
  Q 65.27 97.05 68.06 108.32
  Q 68.80 111.32 68.84 116.27
  Q 68.88 120.25 68.97 124.30
  Q 67.80 126.03 67.77 128.61
  A 0.64 0.64 0.0 0 1 66.52 128.79
  Q 63.45 118.81 56.74 111.05
  C 45.69 98.27 27.80 89.72 13.75 75.78
  Q 12.02 74.07 9.42 70.17
  Q 7.45 67.19 5.27 64.37
  Q 6.64 62.90 7.95 62.47
  Z"
/>
<path fill="#43929e" d="
  M 12.22 107.53
  L 41.06 99.74
  C 51.66 108.06 60.14 116.48 63.44 130.06
  A 1.63 1.62 -6.0 0 1 61.82 132.06
  C 41.69 131.58 24.36 123.63 12.22 107.53
  Z"
/>
<path fill="#3eb1c0" d="
  M 185.77 132.40
  A 5.55 5.55 0.0 0 1 191.37 137.91
  L 191.45 147.42
  A 7.74 7.24 89.5 0 1 184.28 155.22
  L 167.88 155.36
  A 7.74 7.24 89.5 0 1 160.57 147.68
  L 160.49 138.17
  A 5.55 5.55 0.0 0 1 165.99 132.58
  L 185.77 132.40
  Z
  M 184.2192 140.3719
  A 2.14 2.14 0.0 0 0 182.0979 138.2134
  L 169.9184 138.1071
  A 2.14 2.14 0.0 0 0 167.7598 140.2283
  L 167.7008 146.9881
  A 2.14 2.14 0.0 0 0 169.8221 149.1466
  L 182.0016 149.2529
  A 2.14 2.14 0.0 0 0 184.1602 147.1317
  L 184.2192 140.3719
  Z"
/>
<path fill="#43929e" d="
  M 126.83 140.92
  L 123.20 140.11
  A 1.57 1.54 72.1 0 1 122.51 139.75
  C 118.78 136.33 110.55 137.08 106.37 138.22
  A 2.36 2.36 0.0 0 0 104.64 140.28
  Q 104.26 144.34 105.05 147.57
  A 2.53 2.52 85.9 0 0 107.24 149.47
  Q 115.76 150.33 121.03 149.00
  Q 121.66 148.84 121.94 148.11
  A 0.83 0.80 12.3 0 0 121.21 147.02
  Q 117.85 146.79 113.44 146.89
  A 1.46 1.46 0.0 0 1 111.94 145.36
  L 112.03 143.33
  A 1.49 1.49 0.0 0 1 113.59 141.90
  L 126.92 142.49
  A 0.82 0.82 0.0 0 1 127.70 143.25
  C 128.07 148.65 128.45 154.56 121.24 154.99
  Q 112.72 155.50 105.00 155.05
  C 101.45 154.84 99.53 153.50 98.77 149.99
  Q 97.75 145.32 98.54 138.04
  C 99.14 132.45 102.34 132.98 107.11 132.73
  Q 115.91 132.26 124.42 133.05
  A 2.56 2.55 70.4 0 1 125.99 133.80
  Q 128.38 136.29 127.47 140.51
  A 0.53 0.53 0.0 0 1 126.83 140.92
  Z"
/>
<path fill="#43929e" d="
  M 80.79 132.65
  C 84.08 132.66 86.09 132.44 87.64 135.44
  Q 94.72 149.12 97.41 153.96
  A 0.71 0.70 -14.5 0 1 96.79 155.00
  L 91.95 155.00
  A 2.39 2.38 74.9 0 1 89.89 153.81
  L 88.83 151.97
  A 2.20 2.19 -12.6 0 0 87.14 150.90
  Q 85.54 150.76 80.74 150.74
  Q 75.95 150.73 74.34 150.86
  A 2.20 2.19 12.9 0 0 72.65 151.92
  L 71.58 153.76
  A 2.39 2.38 -74.6 0 1 69.51 154.94
  L 64.67 154.91
  A 0.71 0.70 14.8 0 1 64.06 153.87
  Q 66.77 149.04 73.93 135.40
  C 75.50 132.41 77.51 132.64 80.79 132.65
  Z
  M 76.36 144.51
  A 1.40 1.40 0.0 0 0 77.60 146.53
  L 83.80 146.60
  A 1.40 1.40 0.0 0 0 85.08 144.60
  L 82.05 138.14
  A 1.40 1.40 0.0 0 0 79.53 138.11
  L 76.36 144.51
  Z"
/>
<path fill="#3eb1c0" d="
  M 156.09 146.35
  Q 156.32 146.63 157.05 147.05
  Q 157.49 147.30 157.62 147.82
  Q 157.94 149.11 158.07 153.65
  A 1.44 1.43 -1.0 0 1 156.63 155.13
  L 153.02 155.13
  A 1.77 1.76 -0.0 0 1 151.25 153.37
  L 151.25 150.52
  A 1.34 1.33 -90.0 0 0 149.92 149.18
  L 138.91 149.18
  A 1.12 1.11 90.0 0 0 137.80 150.30
  L 137.80 153.75
  A 1.29 1.28 -0.0 0 1 136.51 155.03
  L 131.72 155.03
  A 1.27 1.27 0.0 0 1 130.46 153.65
  C 130.86 149.06 130.42 144.82 130.90 139.92
  Q 131.16 137.19 130.60 133.71
  A 0.82 0.82 0.0 0 1 131.41 132.76
  L 155.78 132.76
  A 1.81 1.81 0.0 0 1 157.55 134.20
  Q 157.98 136.25 157.89 139.66
  C 157.83 141.70 158.22 144.59 156.29 145.48
  A 0.57 0.56 -32.2 0 0 156.09 146.35
  Z
  M 151.9227 139.7778
  A 1.69 1.69 0.0 0 0 150.2534 138.0673
  L 139.2743 137.9331
  A 1.69 1.69 0.0 0 0 137.5637 139.6024
  L 137.5373 141.7622
  A 1.69 1.69 0.0 0 0 139.2066 143.4727
  L 150.1857 143.6069
  A 1.69 1.69 0.0 0 0 151.8963 141.9376
  L 151.9227 139.7778
  Z"
/>
<path fill="#43929e" d="
  M 24.49 150.28
  C 27.55 138.49 39.19 131.09 51.26 133.50
  Q 54.30 134.10 56.57 135.42
  C 58.36 136.46 58.13 138.26 57.43 139.94
  C 53.70 148.94 47.19 149.94 37.64 149.89
  Q 30.29 149.85 25.10 150.93
  A 0.53 0.52 -88.5 0 1 24.49 150.28
  Z"
/>
<path fill="#ffffff" d="
  M 76.36 144.51
  L 79.53 138.11
  A 1.40 1.40 0.0 0 1 82.05 138.14
  L 85.08 144.60
  A 1.40 1.40 0.0 0 1 83.80 146.60
  L 77.60 146.53
  A 1.40 1.40 0.0 0 1 76.36 144.51
  Z"
/>
<rect fill="#ffffff" x="-7.18" y="-2.77" transform="translate(144.73,140.77) rotate(0.7)" width="14.36" height="5.54" rx="1.69"/>
<rect fill="#ffffff" x="-8.23" y="-5.52" transform="translate(175.96,143.68) rotate(0.5)" width="16.46" height="11.04" rx="2.14"/>
</svg>
